<mxfile host="Electron" agent="Mozilla/5.0 (Macintosh; Intel Mac OS X 10_15_7) AppleWebKit/537.36 (KHTML, like Gecko) draw.io/26.0.4 Chrome/128.0.6613.186 Electron/32.2.5 Safari/537.36" version="26.0.4">
  <diagram name="Gradient timeline " id="Gradient_timeline_">
    <mxGraphModel dx="1026" dy="772" grid="1" gridSize="10" guides="1" tooltips="1" connect="1" arrows="1" fold="1" page="1" pageScale="1" pageWidth="1100" pageHeight="850" math="0" shadow="0">
      <root>
        <mxCell id="0" />
        <mxCell id="1" parent="0" />
        <UserObject label="" tags="Background" id="2">
          <mxCell style="vsdxID=1;fillColor=none;gradientColor=none;strokeOpacity=0;spacingTop=-3;spacingBottom=-3;spacingLeft=-3;spacingRight=-3;points=[[0,0.5,0],[1,0.5,0],[0.5,1,0],[0.5,0,0]];labelBackgroundColor=none;rounded=1;strokeColor=none;html=1;whiteSpace=wrap;" parent="1" vertex="1">
            <mxGeometry x="114" y="401" width="139" height="118" as="geometry" />
          </mxCell>
        </UserObject>
        <mxCell id="3" style="vsdxID=2;fillColor=#fda05e;gradientColor=none;strokeOpacity=0;shape=stencil(vVPRcoMgEPwaHmWAQ43PafID/QKmEmVqxUHa2H590bOOGJO35o27XVj2YAkc+1p1mgjWe2ff9dWUvibwQoQwba2d8WFF4ETgeLFOV85+tiXWnQpMwaaOLnEPH9mCKff2an409hgFnqcI4M4P+zUqDjOO0DdWksJUn5EaTho1ZirQtEC2W+hCYmehZDI6cD5+SNRg+sRZr7yxbYQ1ylU6CVLJpVFVBPVXrbtVm68v15h25aPIKGQ70rtOJGVy6yQ/RE4425/ME6xspYuU5o9eRWSxF6CHNPJyO5tF4v/d3HyJP+17f0xsX4bnkZs7w3mClYdZCYspk5hW0zQY6TW+zXBoYf7h9As=);spacingTop=-3;spacingBottom=-3;spacingLeft=-3;spacingRight=-3;points=[[0,0.5,0],[1,0.5,0],[0.5,1,0],[0.5,0,0]];labelBackgroundColor=none;rounded=1;html=1;whiteSpace=wrap;" parent="2" vertex="1">
          <mxGeometry width="139" height="118" as="geometry" />
        </mxCell>
        <mxCell id="4" value="&lt;div style=&quot;font-size: 1px&quot;&gt;&lt;p style=&quot;text-align:center;margin-left:0;margin-right:0;margin-top:0px;margin-bottom:0px;text-indent:0;vertical-align:middle;direction:ltr;&quot;&gt;&lt;font style=&quot;font-size:14.11px;font-family:Arial;color:#ffffff;direction:ltr;letter-spacing:0px;line-height:100%;opacity:1&quot;&gt;&lt;i&gt;&lt;b&gt;Phase 1: Project Definition and Use Case Understanding&lt;/b&gt;&lt;/i&gt;&lt;/font&gt;&lt;/p&gt;&lt;/div&gt;" style="text;vsdxID=1;fillColor=none;gradientColor=none;strokeOpacity=0;spacingTop=-3;spacingBottom=-3;spacingLeft=-3;spacingRight=-3;points=[[0,0.5,0],[1,0.5,0],[0.5,1,0],[0.5,0,0]];labelBackgroundColor=none;rounded=1;strokeColor=none;html=1;whiteSpace=wrap;verticalAlign=middle;align=center;overflow=width;;html=1;" parent="2" vertex="1">
          <mxGeometry x="3.17" y="3.06" width="133.99" height="112.4" as="geometry" />
        </mxCell>
        <UserObject label="" tags="Background" id="5">
          <mxCell style="vsdxID=3;fillColor=none;gradientColor=none;strokeOpacity=0;spacingTop=-3;spacingBottom=-3;spacingLeft=-3;spacingRight=-3;points=[[0,0.5,0],[1,0.5,0],[0.5,1,0],[0.5,0,0]];labelBackgroundColor=none;rounded=1;strokeColor=none;html=1;whiteSpace=wrap;" parent="1" vertex="1">
            <mxGeometry x="267" y="401" width="139" height="118" as="geometry" />
          </mxCell>
        </UserObject>
        <mxCell id="6" style="vsdxID=4;fillColor=#fd9d61;gradientColor=none;strokeOpacity=0;shape=stencil(vVPRcoMgEPwaHmWAQ43PafID/QKmEmVqxUHa2H590bOOGJO35o27XVj2YAkc+1p1mgjWe2ff9dWUvibwQoQwba2d8WFF4ETgeLFOV85+tiXWnQpMwaaOLnEPH9mCKff2an409hgFnqcI4M4P+zUqDjOO0DdWksJUn5EaTho1ZirQtEC2W+hCYmehZDI6cD5+SNRg+sRZr7yxbYQ1ylU6CVLJpVFVBPVXrbtVm68v15h25aPIKGQ70rtOJGVy6yQ/RE4425/ME6xspYuU5o9eRWSxF6CHNPJyO5tF4v/d3HyJP+17f0xsX4bnkZs7w3mClYdZCYspk5hW0zQY6TW+zXBoYf7h9As=);spacingTop=-3;spacingBottom=-3;spacingLeft=-3;spacingRight=-3;points=[[0,0.5,0],[1,0.5,0],[0.5,1,0],[0.5,0,0]];labelBackgroundColor=none;rounded=1;html=1;whiteSpace=wrap;" parent="5" vertex="1">
          <mxGeometry width="139" height="118" as="geometry" />
        </mxCell>
        <mxCell id="7" value="&lt;div style=&quot;font-size: 1px&quot;&gt;&lt;p style=&quot;text-align:center;margin-left:0;margin-right:0;margin-top:0px;margin-bottom:0px;text-indent:0;vertical-align:middle;direction:ltr;&quot;&gt;&lt;font style=&quot;font-size:14.11px;font-family:Arial;color:#ffffff;direction:ltr;letter-spacing:0px;line-height:100%;opacity:1&quot;&gt;&lt;i&gt;&lt;b&gt;Phase 2: Research and Problem Understanding&lt;/b&gt;&lt;/i&gt;&lt;/font&gt;&lt;font style=&quot;font-size:11.29px;font-family:Arial;color:#ffffff;direction:ltr;letter-spacing:0px;line-height:100%;opacity:1&quot;&gt;&lt;b&gt;&lt;br/&gt;&lt;/b&gt;&lt;/font&gt;&lt;/p&gt;&lt;/div&gt;" style="text;vsdxID=3;fillColor=none;gradientColor=none;strokeOpacity=0;spacingTop=-3;spacingBottom=-3;spacingLeft=-3;spacingRight=-3;points=[[0,0.5,0],[1,0.5,0],[0.5,1,0],[0.5,0,0]];labelBackgroundColor=none;rounded=1;strokeColor=none;html=1;whiteSpace=wrap;verticalAlign=middle;align=center;overflow=width;;html=1;" parent="5" vertex="1">
          <mxGeometry x="3.17" y="3.06" width="133.35" height="112.4" as="geometry" />
        </mxCell>
        <UserObject label="" tags="Background" id="8">
          <mxCell style="vsdxID=5;fillColor=none;gradientColor=none;strokeOpacity=0;spacingTop=-3;spacingBottom=-3;spacingLeft=-3;spacingRight=-3;points=[[0,0.5,0],[1,0.5,0],[0.5,1,0],[0.5,0,0]];labelBackgroundColor=none;rounded=1;strokeColor=none;html=1;whiteSpace=wrap;" parent="1" vertex="1">
            <mxGeometry x="419" y="401" width="139" height="118" as="geometry" />
          </mxCell>
        </UserObject>
        <mxCell id="9" style="vsdxID=6;fillColor=#fd9966;gradientColor=none;strokeOpacity=0;shape=stencil(vVPRcoMgEPwaHmWAQ43PafID/QKmEmVqxUHa2H590bOOGJO35o27XVj2YAkc+1p1mgjWe2ff9dWUvibwQoQwba2d8WFF4ETgeLFOV85+tiXWnQpMwaaOLnEPH9mCKff2an409hgFnqcI4M4P+zUqDjOO0DdWksJUn5EaTho1ZirQtEC2W+hCYmehZDI6cD5+SNRg+sRZr7yxbYQ1ylU6CVLJpVFVBPVXrbtVm68v15h25aPIKGQ70rtOJGVy6yQ/RE4425/ME6xspYuU5o9eRWSxF6CHNPJyO5tF4v/d3HyJP+17f0xsX4bnkZs7w3mClYdZCYspk5hW0zQY6TW+zXBoYf7h9As=);spacingTop=-3;spacingBottom=-3;spacingLeft=-3;spacingRight=-3;points=[[0,0.5,0],[1,0.5,0],[0.5,1,0],[0.5,0,0]];labelBackgroundColor=none;rounded=1;html=1;whiteSpace=wrap;" parent="8" vertex="1">
          <mxGeometry width="139" height="118" as="geometry" />
        </mxCell>
        <mxCell id="10" value="&lt;div style=&quot;font-size: 1px&quot;&gt;&lt;p style=&quot;text-align:center;margin-left:0;margin-right:0;margin-top:0px;margin-bottom:0px;text-indent:0;vertical-align:middle;direction:ltr;&quot;&gt;&lt;font style=&quot;font-size:14.11px;font-family:Arial;color:#ffffff;direction:ltr;letter-spacing:0px;line-height:100%;opacity:1&quot;&gt;&lt;i&gt;&lt;b&gt;Phase 3: Data Preparation and EDA&lt;/b&gt;&lt;/i&gt;&lt;/font&gt;&lt;font style=&quot;font-size:11.29px;font-family:Arial;color:#ffffff;direction:ltr;letter-spacing:0px;line-height:100%;opacity:1&quot;&gt;&lt;b&gt;&lt;br/&gt;&lt;/b&gt;&lt;/font&gt;&lt;/p&gt;&lt;/div&gt;" style="text;vsdxID=5;fillColor=none;gradientColor=none;strokeOpacity=0;spacingTop=-3;spacingBottom=-3;spacingLeft=-3;spacingRight=-3;points=[[0,0.5,0],[1,0.5,0],[0.5,1,0],[0.5,0,0]];labelBackgroundColor=none;rounded=1;strokeColor=none;html=1;whiteSpace=wrap;verticalAlign=middle;align=center;overflow=width;;html=1;" parent="8" vertex="1">
          <mxGeometry x="3.17" y="3.06" width="133.35" height="112.4" as="geometry" />
        </mxCell>
        <UserObject label="" tags="Background" id="11">
          <mxCell style="vsdxID=7;fillColor=none;gradientColor=none;strokeOpacity=0;spacingTop=-3;spacingBottom=-3;spacingLeft=-3;spacingRight=-3;points=[[0,0.5,0],[1,0.5,0],[0.5,1,0],[0.5,0,0]];labelBackgroundColor=none;rounded=1;strokeColor=none;html=1;whiteSpace=wrap;" parent="1" vertex="1">
            <mxGeometry x="724" y="401" width="139" height="109" as="geometry" />
          </mxCell>
        </UserObject>
        <mxCell id="12" style="vsdxID=8;fillColor=#fd8e73;gradientColor=none;strokeOpacity=0;shape=stencil(vVTbcoMgFPwaHmW4an1O0x/oFzCVKFMqDtLG5OuLHuuIiXlr3mB3OcsePCJ+6BvVacRIH7z71GdThQbxV8SYaRvtTYgrxI+IH07O69q777aCfaeikpEJ0RWcoaOaEeU/3s1VA0Ywp4UEAk5+uZ/RcZh5oC6wEzhnE/AG2lhqNJm1HMsS5H7RyxyQRZKLpOJcf8jUYPrMu6CCcW3CWeVrnUWr7GRVnVD9WetuBdP15axpV0HKHPP8jvXdJAITkSaRmIokCSU7rXlClq13KTF/efQuxSaNwEX6LrfdWTz+P87NR/HnvZOG0jQNx2WaZq87T8jyeF7iYhpMGFljLcz1mt8OcoTgJ8CPvw==);spacingTop=-3;spacingBottom=-3;spacingLeft=-3;spacingRight=-3;points=[[0,0.5,0],[1,0.5,0],[0.5,1,0],[0.5,0,0]];labelBackgroundColor=none;rounded=1;html=1;whiteSpace=wrap;" parent="11" vertex="1">
          <mxGeometry width="139" height="109" as="geometry" />
        </mxCell>
        <mxCell id="13" value="&lt;div style=&quot;font-size: 1px&quot;&gt;&lt;p style=&quot;text-align:center;margin-left:0;margin-right:0;margin-top:0px;margin-bottom:0px;text-indent:0;vertical-align:middle;direction:ltr;&quot;&gt;&lt;font style=&quot;font-size:14.11px;font-family:Arial;color:#ffffff;direction:ltr;letter-spacing:0px;line-height:100%;opacity:1&quot;&gt;&lt;i&gt;&lt;b&gt;Phase 5: Deployed PoC as a service&lt;br/&gt;&lt;/b&gt;&lt;/i&gt;&lt;/font&gt;&lt;/p&gt;&lt;/div&gt;" style="text;vsdxID=7;fillColor=none;gradientColor=none;strokeOpacity=0;spacingTop=-3;spacingBottom=-3;spacingLeft=-3;spacingRight=-3;points=[[0,0.5,0],[1,0.5,0],[0.5,1,0],[0.5,0,0]];labelBackgroundColor=none;rounded=1;strokeColor=none;html=1;whiteSpace=wrap;verticalAlign=middle;align=center;overflow=width;;html=1;" parent="11" vertex="1">
          <mxGeometry x="3.17" y="2.32" width="133.35" height="103.51" as="geometry" />
        </mxCell>
        <UserObject label="" tags="Background" id="14">
          <mxCell style="vsdxID=9;fillColor=none;gradientColor=none;strokeOpacity=0;spacingTop=-3;spacingBottom=-3;spacingLeft=-3;spacingRight=-3;points=[[0,0.5,0],[1,0.5,0],[0.5,1,0],[0.5,0,0]];labelBackgroundColor=none;rounded=1;strokeColor=none;html=1;whiteSpace=wrap;" parent="1" vertex="1">
            <mxGeometry x="876" y="401" width="139" height="109" as="geometry" />
          </mxCell>
        </UserObject>
        <mxCell id="15" style="vsdxID=10;fillColor=#fd8979;gradientColor=none;strokeOpacity=0;shape=stencil(vVTbcoMgFPwaHmW4an1O0x/oFzCVKFMqDtLG5OuLHuuIiXlr3mB3OcsePCJ+6BvVacRIH7z71GdThQbxV8SYaRvtTYgrxI+IH07O69q777aCfaeikpEJ0RWcoaOaEeU/3s1VA0Ywp4UEAk5+uZ/RcZh5oC6wEzhnE/AG2lhqNJm1HMsS5H7RyxyQRZKLpOJcf8jUYPrMu6CCcW3CWeVrnUWr7GRVnVD9WetuBdP15axpV0HKHPP8jvXdJAITkSaRmIokCSU7rXlClq13KTF/efQuxSaNwEX6LrfdWTz+P87NR/HnvZOG0jQNx2WaZq87T8jyeF7iYhpMGFljLcz1mt8OcoTgJ8CPvw==);spacingTop=-3;spacingBottom=-3;spacingLeft=-3;spacingRight=-3;points=[[0,0.5,0],[1,0.5,0],[0.5,1,0],[0.5,0,0]];labelBackgroundColor=none;rounded=1;html=1;whiteSpace=wrap;" parent="14" vertex="1">
          <mxGeometry width="139" height="109" as="geometry" />
        </mxCell>
        <mxCell id="16" value="&lt;div style=&quot;font-size: 1px&quot;&gt;&lt;p style=&quot;text-align:center;margin-left:0;margin-right:0;margin-top:0px;margin-bottom:0px;text-indent:0;vertical-align:middle;direction:ltr;&quot;&gt;&lt;font style=&quot;font-size:14.11px;font-family:Arial;color:#ffffff;direction:ltr;letter-spacing:0px;line-height:100%;opacity:1&quot;&gt;&lt;i&gt;&lt;b&gt;Phase 6. Evaluation&lt;/b&gt;&lt;/i&gt;&lt;/font&gt;&lt;/p&gt;&lt;/div&gt;" style="text;vsdxID=9;fillColor=none;gradientColor=none;strokeOpacity=0;spacingTop=-3;spacingBottom=-3;spacingLeft=-3;spacingRight=-3;points=[[0,0.5,0],[1,0.5,0],[0.5,1,0],[0.5,0,0]];labelBackgroundColor=none;rounded=1;strokeColor=none;html=1;whiteSpace=wrap;verticalAlign=middle;align=center;overflow=width;;html=1;" parent="14" vertex="1">
          <mxGeometry x="3.17" y="2.32" width="133.35" height="103.51" as="geometry" />
        </mxCell>
        <UserObject label="" tags="Background" id="17">
          <mxCell style="vsdxID=11;fillColor=none;gradientColor=none;strokeOpacity=0;spacingTop=-3;spacingBottom=-3;spacingLeft=-3;spacingRight=-3;points=[[0,0.5,0],[1,0.5,0],[0.5,1,0],[0.5,0,0]];labelBackgroundColor=none;rounded=1;strokeColor=none;html=1;whiteSpace=wrap;" parent="1" vertex="1">
            <mxGeometry x="572" y="401" width="139" height="118" as="geometry" />
          </mxCell>
        </UserObject>
        <mxCell id="18" style="vsdxID=12;fillColor=#fd936d;gradientColor=none;strokeOpacity=0;shape=stencil(vVPRcoMgEPwaHmWAQ43PafID/QKmEmVqxUHa2H590bOOGJO35o27XVj2YAkc+1p1mgjWe2ff9dWUvibwQoQwba2d8WFF4ETgeLFOV85+tiXWnQpMwaaOLnEPH9mCKff2an409hgFnqcI4M4P+zUqDjOO0DdWksJUn5EaTho1ZirQtEC2W+hCYmehZDI6cD5+SNRg+sRZr7yxbYQ1ylU6CVLJpVFVBPVXrbtVm68v15h25aPIKGQ70rtOJGVy6yQ/RE4425/ME6xspYuU5o9eRWSxF6CHNPJyO5tF4v/d3HyJP+17f0xsX4bnkZs7w3mClYdZCYspk5hW0zQY6TW+zXBoYf7h9As=);spacingTop=-3;spacingBottom=-3;spacingLeft=-3;spacingRight=-3;points=[[0,0.5,0],[1,0.5,0],[0.5,1,0],[0.5,0,0]];labelBackgroundColor=none;rounded=1;html=1;whiteSpace=wrap;" parent="17" vertex="1">
          <mxGeometry width="139" height="118" as="geometry" />
        </mxCell>
        <mxCell id="19" value="&lt;div style=&quot;font-size: 1px&quot;&gt;&lt;p style=&quot;text-align:center;margin-left:0;margin-right:0;margin-top:0px;margin-bottom:0px;text-indent:0;vertical-align:middle;direction:ltr;&quot;&gt;&lt;font style=&quot;font-size:14.11px;font-family:Arial;color:#ffffff;direction:ltr;letter-spacing:0px;line-height:100%;opacity:1&quot;&gt;&lt;i&gt;&lt;b&gt;Phase 4: Implement proof of concept AI/ML model&lt;br/&gt;&lt;/b&gt;&lt;/i&gt;&lt;/font&gt;&lt;/p&gt;&lt;/div&gt;" style="text;vsdxID=11;fillColor=none;gradientColor=none;strokeOpacity=0;spacingTop=-3;spacingBottom=-3;spacingLeft=-3;spacingRight=-3;points=[[0,0.5,0],[1,0.5,0],[0.5,1,0],[0.5,0,0]];labelBackgroundColor=none;rounded=1;strokeColor=none;html=1;whiteSpace=wrap;verticalAlign=middle;align=center;overflow=width;;html=1;" parent="17" vertex="1">
          <mxGeometry x="3.17" y="3.07" width="133.99" height="111.76" as="geometry" />
        </mxCell>
        <UserObject label="" tags="Background" id="20">
          <mxCell style="vsdxID=13;fillColor=none;gradientColor=none;strokeOpacity=0;spacingTop=-3;spacingBottom=-3;spacingLeft=-3;spacingRight=-3;points=[[0,0.5,0],[1,0.5,0],[0.5,1,0],[0.5,0,0]];labelBackgroundColor=none;rounded=1;strokeColor=none;html=1;whiteSpace=wrap;" parent="1" vertex="1">
            <mxGeometry x="88" y="696" width="190" height="147" as="geometry" />
          </mxCell>
        </UserObject>
        <mxCell id="21" style="vsdxID=14;fillColor=#f6f6f7;gradientColor=none;strokeOpacity=0;shape=stencil(vZTRcoMgEEW/hkcZZEXLc5r8QL6AqUSZUnHQNqZfX3SdVLTxrXmDuxcuZ8eVwKGrVasJZ13v3bu+mrKvCbwSzk1Ta2/6sCJwJHC4OK8r7z6bEvetCk7OJkWXeCYd3Zwp/3Y23xo1RiEtBBbw5If7GhOHuY6lG+6AZtkknNAbrhpDZi+nOaDd3/0gUfm1FNGN8/1DogbTJd71qjeuiWpW+UonISq5WFVFpe6qdbuQ0+XjrGkWILKgAH9EPyB5ydckeUySsgeteQLLOlvmVIg9miJb0wiIaLbduWf8P87mo5CSSrnHA2LNw2KebX/yZ9HsT0xYTKOJQ2usxcle1tejHCT8DcDxBw==);spacingTop=-3;spacingBottom=-3;spacingLeft=-3;spacingRight=-3;points=[[0,0.5,0],[1,0.5,0],[0.5,1,0],[0.5,0,0]];labelBackgroundColor=none;rounded=1;html=1;whiteSpace=wrap;" parent="20" vertex="1">
          <mxGeometry width="190" height="147" as="geometry" />
        </mxCell>
        <mxCell id="22" value="&lt;div style=&quot;font-size: 1px&quot;&gt;&lt;p style=&quot;text-align:left;margin-left:6;margin-right:7;margin-top:2px;margin-bottom:0px;text-indent:0;vertical-align:top;direction:ltr;&quot;&gt;&lt;ul style=&quot;margin: 0;list-style-type: disc&quot;&gt;&lt;font style=&quot;font-size:11.29px;font-family:Arial;color:#333333;direction:ltr;letter-spacing:0px;line-height:100%;opacity:1&quot;&gt;&lt;i&gt;&lt;li&gt;Project Github Repository following a standard template with updated Readme&lt;/li&gt;&lt;li&gt;Project Outline markdown added to repository using the project outline template&lt;/li&gt;&lt;li&gt;Team Agreement Document Completed&lt;/li&gt;&lt;li&gt;Midterm Presentation Slides on plan to execute project&lt;/i&gt;&lt;/font&gt;&lt;/li&gt;&lt;/ul&gt;&lt;/p&gt;&lt;/div&gt;" style="text;vsdxID=13;fillColor=none;gradientColor=none;strokeOpacity=0;spacingTop=-3;spacingBottom=-3;spacingLeft=-3;spacingRight=-3;points=[[0,0.5,0],[1,0.5,0],[0.5,1,0],[0.5,0,0]];labelBackgroundColor=none;rounded=1;strokeColor=none;html=1;whiteSpace=wrap;verticalAlign=top;align=left;overflow=width;;html=1;" parent="20" vertex="1">
          <mxGeometry x="3.05" y="2.38" width="184.79" height="141.61" as="geometry" />
        </mxCell>
        <UserObject label="" tags="Background" id="23">
          <mxCell style="vsdxID=15;fillColor=none;gradientColor=none;strokeOpacity=0;spacingTop=-3;spacingBottom=-3;spacingLeft=-3;spacingRight=-3;points=[[0,0.5,0],[1,0.5,0],[0.5,1,0],[0.5,0,0]];labelBackgroundColor=none;rounded=1;strokeColor=none;html=1;whiteSpace=wrap;" parent="1" vertex="1">
            <mxGeometry x="235" y="118" width="203" height="101" as="geometry" />
          </mxCell>
        </UserObject>
        <mxCell id="24" style="vsdxID=16;fillColor=#f6f6f7;gradientColor=none;strokeOpacity=0;shape=stencil(vVPLkoMgEPwajlo8JJbnbPID+wVUHJVaVixkE5OvX8y4lhiT2+YG0800PdBE7PtGdUA47b2zX3DRpW+I+CCc67YBp31YEXEgYl9ZB7WzP22J+04FJqf3CpR4ho1sTpU7feobYI2mguUSATz5bc+j4jDhCF1xh8QjEkOfUWEi8jTLkesmcpYWAiszRUbdpt5DogbdJ8565bVtI8woV0MSlJLKqDqC+gtAtyiz5d2MbhcminxT+YkPKWMfMmWRDUa3hvIGG2vh4uVz7B5s8CLy8TCVuf//W1l/hT/pJ164WH+tbBd52RzMG3y8iEdY3EOI8dTGYIaX+Dq0oYSBF4df);spacingTop=-3;spacingBottom=-3;spacingLeft=-3;spacingRight=-3;points=[[0,0.5,0],[1,0.5,0],[0.5,1,0],[0.5,0,0]];labelBackgroundColor=none;rounded=1;html=1;whiteSpace=wrap;" parent="23" vertex="1">
          <mxGeometry width="203" height="101" as="geometry" />
        </mxCell>
        <mxCell id="25" value="&lt;div style=&quot;font-size: 1px&quot;&gt;&lt;p style=&quot;text-align:left;margin-left:6;margin-right:7;margin-top:2px;margin-bottom:0px;text-indent:0;vertical-align:top;direction:ltr;&quot;&gt;&lt;/p&gt;&lt;ul style=&quot;margin: 0;list-style-type: disc&quot;&gt;&lt;font style=&quot;font-size: 11.29px; font-family: Arial; color: rgb(51, 51, 51); direction: ltr; letter-spacing: 0px; line-height: 100%; opacity: 1;&quot;&gt;&lt;i&gt;&lt;li&gt;Research document markdown added to the project repository outlining possible approaches&lt;/li&gt;&lt;li&gt;&lt;i style=&quot;color: light-dark(rgb(51, 51, 51), rgb(51, 51, 51)); letter-spacing: 0px; background-color: transparent;&quot;&gt;Update checklist for project completion section with any new discoveries here&lt;/i&gt;&lt;br&gt;&lt;/li&gt;&lt;/i&gt;&lt;/font&gt;&lt;/ul&gt;&lt;p&gt;&lt;/p&gt;&lt;/div&gt;" style="text;vsdxID=15;fillColor=none;gradientColor=none;strokeOpacity=0;spacingTop=-3;spacingBottom=-3;spacingLeft=-3;spacingRight=-3;points=[[0,0.5,0],[1,0.5,0],[0.5,1,0],[0.5,0,0]];labelBackgroundColor=none;rounded=1;strokeColor=none;html=1;whiteSpace=wrap;verticalAlign=top;align=left;overflow=width;;html=1;" parent="23" vertex="1">
          <mxGeometry x="3.05" y="2.45" width="197.49" height="95.89" as="geometry" />
        </mxCell>
        <UserObject label="" tags="Background" id="26">
          <mxCell style="vsdxID=17;fillColor=none;gradientColor=none;strokeOpacity=0;spacingTop=-3;spacingBottom=-3;spacingLeft=-3;spacingRight=-3;points=[[0,0.5,0],[1,0.5,0],[0.5,1,0],[0.5,0,0]];labelBackgroundColor=none;rounded=1;strokeColor=none;html=1;whiteSpace=wrap;" parent="1" vertex="1">
            <mxGeometry x="426" y="696" width="127" height="62" as="geometry" />
          </mxCell>
        </UserObject>
        <mxCell id="27" style="vsdxID=18;fillColor=#f6f6f7;gradientColor=none;strokeOpacity=0;shape=stencil(vVPbcoMgFPwaHmW4qMhzmv5Av4CpRJlScZA2Jl9fzGEyYlPfmjc4u5xlDyzih6lXo0aMTMG7D302begRf0GMmaHX3oS4QvyI+OHkvO68+xpa2I8qMhm5VXQLZ+jCZkT59zdz1VAjmFNRAQAnP933ojgnHKAL7BpMgfsK3NhqEUlcjmXq5O98UkIlUcqsXWo+F2o2U+FdUMG4IcOs8p0uok5xsqrLoOms9bgq0/XNrBlWLmT9QPehhxLXIvcgccUzD5T8MZQnGNlqS4obuueGbtw0uKKZm81o7gL/7yX/C1JiKfb+luC5E4Hr3MnvyTztWfZTEhe3OEJQjbWQ5jW+jW8sQfT58Qc=);spacingTop=-3;spacingBottom=-3;spacingLeft=-3;spacingRight=-3;points=[[0,0.5,0],[1,0.5,0],[0.5,1,0],[0.5,0,0]];labelBackgroundColor=none;rounded=1;html=1;whiteSpace=wrap;" parent="26" vertex="1">
          <mxGeometry width="127" height="62" as="geometry" />
        </mxCell>
        <mxCell id="28" value="&lt;div style=&quot;font-size: 1px&quot;&gt;&lt;p style=&quot;text-align:left;margin-left:6;margin-right:7;margin-top:2px;margin-bottom:0px;text-indent:0;vertical-align:top;direction:ltr;&quot;&gt;&lt;/p&gt;&lt;ul style=&quot;margin: 0;list-style-type: disc&quot;&gt;&lt;font style=&quot;font-size: 11.29px; font-family: Arial; color: rgb(51, 51, 51); direction: ltr; letter-spacing: 0px; line-height: 100%; opacity: 1;&quot;&gt;&lt;i&gt;&lt;/i&gt;&lt;/font&gt;&lt;/ul&gt;&lt;i style=&quot;color: light-dark(rgb(51, 51, 51), rgb(51, 51, 51)); font-family: Arial; font-size: 11.29px; letter-spacing: 0px; background-color: transparent;&quot;&gt;Exploratory Data Analysis (EDA) Notebook added to Project Repository&lt;/i&gt;&lt;br&gt;&lt;p&gt;&lt;/p&gt;&lt;/div&gt;" style="text;vsdxID=17;fillColor=none;gradientColor=none;strokeOpacity=0;spacingTop=-3;spacingBottom=-3;spacingLeft=-3;spacingRight=-3;points=[[0,0.5,0],[1,0.5,0],[0.5,1,0],[0.5,0,0]];labelBackgroundColor=none;rounded=1;strokeColor=none;html=1;whiteSpace=wrap;verticalAlign=top;align=left;overflow=width;;html=1;" parent="26" vertex="1">
          <mxGeometry x="3.05" y="2.73" width="121.29" height="56.52" as="geometry" />
        </mxCell>
        <UserObject label="" tags="Background" id="29">
          <mxCell style="vsdxID=19;fillColor=none;gradientColor=none;strokeOpacity=0;spacingTop=-3;spacingBottom=-3;spacingLeft=-3;spacingRight=-3;points=[[0,0.5,0],[1,0.5,0],[0.5,1,0],[0.5,0,0]];labelBackgroundColor=none;rounded=1;strokeColor=none;html=1;whiteSpace=wrap;" parent="1" vertex="1">
            <mxGeometry x="730" y="696" width="170" height="84" as="geometry" />
          </mxCell>
        </UserObject>
        <mxCell id="30" style="vsdxID=20;fillColor=#f6f6f7;gradientColor=none;strokeOpacity=0;shape=stencil(vVPLbsMgEPwajkY8jAnnNPmBfgGqiY3qGgvTxu3XF3tRZJzUt+YGs8MOs9pB/Di2ejCIkTF4926utg4t4i+IMdu3xtsQT4ifED9enDeNd599DfdBRyYjC2JqeENnNiPav73aHwMYwZxKAQV4+eG+ZsUp1aH0DbcSK74AZ+DGVrNI4nKsUid/4x8kIIlSZu1S86nQkx0L74IO1vVZrdO+MUXUKS6dbrLSeDVmWMF0/bPO9isXqnqg+9BDiSuZexBY5h4o+WMoTzCy1VYCE7HrRty5KTM3m9HcBP7fS74LSmF12NstXm13i+ZO7icjn2VlPyXxsMQRgmq7DtK8rm/jGyGIPj/9Ag==);spacingTop=-3;spacingBottom=-3;spacingLeft=-3;spacingRight=-3;points=[[0,0.5,0],[1,0.5,0],[0.5,1,0],[0.5,0,0]];labelBackgroundColor=none;rounded=1;html=1;whiteSpace=wrap;" parent="29" vertex="1">
          <mxGeometry width="170" height="84" as="geometry" />
        </mxCell>
        <mxCell id="31" value="&lt;div style=&quot;font-size: 1px&quot;&gt;&lt;p style=&quot;text-align:left;margin-left:6;margin-right:7;margin-top:2px;margin-bottom:0px;text-indent:0;vertical-align:top;direction:ltr;&quot;&gt;&lt;/p&gt;&lt;ul style=&quot;margin: 0;list-style-type: disc&quot;&gt;&lt;font style=&quot;font-size: 11.29px; font-family: Arial; color: rgb(51, 51, 51); direction: ltr; letter-spacing: 0px; line-height: 100%; opacity: 1;&quot;&gt;&lt;i&gt;&lt;li&gt; Deployed model available as a tool or application&lt;/li&gt;&lt;li&gt;&lt;i style=&quot;color: light-dark(rgb(51, 51, 51), rgb(51, 51, 51)); letter-spacing: 0px; background-color: transparent;&quot;&gt;Instructions to interact with model or example code to run model&lt;/i&gt;&lt;br&gt;&lt;/li&gt;&lt;/i&gt;&lt;/font&gt;&lt;/ul&gt;&lt;p&gt;&lt;/p&gt;&lt;/div&gt;" style="text;vsdxID=19;fillColor=none;gradientColor=none;strokeOpacity=0;spacingTop=-3;spacingBottom=-3;spacingLeft=-3;spacingRight=-3;points=[[0,0.5,0],[1,0.5,0],[0.5,1,0],[0.5,0,0]];labelBackgroundColor=none;rounded=1;strokeColor=none;html=1;whiteSpace=wrap;verticalAlign=top;align=left;overflow=width;;html=1;" parent="29" vertex="1">
          <mxGeometry x="4.082677165354331" y="1.7211764705882353" width="162.35669291338584" height="80.01411764705881" as="geometry" />
        </mxCell>
        <UserObject label="" tags="Background" id="32">
          <mxCell style="vsdxID=21;fillColor=none;gradientColor=none;strokeOpacity=0;spacingTop=-3;spacingBottom=-3;spacingLeft=-3;spacingRight=-3;points=[[0,0.5,0],[1,0.5,0],[0.5,1,0],[0.5,0,0]];labelBackgroundColor=none;rounded=1;strokeColor=none;html=1;whiteSpace=wrap;" parent="1" vertex="1">
            <mxGeometry x="883" y="149" width="127" height="54" as="geometry" />
          </mxCell>
        </UserObject>
        <mxCell id="33" style="vsdxID=22;fillColor=#f6f6f7;gradientColor=none;strokeOpacity=0;shape=stencil(vVPLbsMgEPwajkbAOn6c0/QH8gWoJjYqNRamiduvL/aiyCRObs2N3Rl2mBVDYD92clBEsNE7+6kuuvEdgTcihO475bQPJwIHAvuTdap19rtvsB5kYAq2dFSDd/jMFky6j6P+VdhjFHi5QwBvftnzrDhFHKEfrGoKS/2O1DBp1ohUoHUc5K50XmEnUvJkWpw9ZXLSY+asl17bPsGMdK3Kgk52MrJNoPGi1LBq8/XLjO5XJupiQ3fTQ06LMvXAGa3KxARn20t5gZE7aUbLZ2bg3gxPzdys5irw/17yTeEHP2tXpEYqKtKf9WAvL/DxNCHhsCQRM6qNwSCv8dvkhhamHg5/);spacingTop=-3;spacingBottom=-3;spacingLeft=-3;spacingRight=-3;points=[[0,0.5,0],[1,0.5,0],[0.5,1,0],[0.5,0,0]];labelBackgroundColor=none;rounded=1;html=1;whiteSpace=wrap;" parent="32" vertex="1">
          <mxGeometry width="127" height="54" as="geometry" />
        </mxCell>
        <mxCell id="34" value="&lt;div style=&quot;font-size: 1px&quot;&gt;&lt;p style=&quot;text-align:left;margin-left:6;margin-right:7;margin-top:2px;margin-bottom:0px;text-indent:0;vertical-align:top;direction:ltr;&quot;&gt;&lt;/p&gt;&lt;ul style=&quot;margin: 0;list-style-type: disc&quot;&gt;&lt;font style=&quot;font-size: 11.29px; font-family: Arial; color: rgb(51, 51, 51); direction: ltr; letter-spacing: 0px; line-height: 100%; opacity: 1;&quot;&gt;&lt;i&gt;&lt;/i&gt;&lt;/font&gt;&lt;/ul&gt;&lt;i style=&quot;color: light-dark(rgb(51, 51, 51), rgb(51, 51, 51)); font-family: Arial; font-size: 11.29px; letter-spacing: 0px; background-color: transparent;&quot;&gt;Presentation Slides on deployed application&lt;/i&gt;&lt;br&gt;&lt;p&gt;&lt;/p&gt;&lt;/div&gt;" style="text;vsdxID=21;fillColor=none;gradientColor=none;strokeOpacity=0;spacingTop=-3;spacingBottom=-3;spacingLeft=-3;spacingRight=-3;points=[[0,0.5,0],[1,0.5,0],[0.5,1,0],[0.5,0,0]];labelBackgroundColor=none;rounded=1;strokeColor=none;html=1;whiteSpace=wrap;verticalAlign=top;align=left;overflow=width;;html=1;" parent="32" vertex="1">
          <mxGeometry x="3.05" y="2.43" width="121.29" height="48.9" as="geometry" />
        </mxCell>
        <UserObject label="" tags="Background" id="35">
          <mxCell style="vsdxID=23;fillColor=none;gradientColor=none;strokeOpacity=0;spacingTop=-3;spacingBottom=-3;spacingLeft=-3;spacingRight=-3;points=[[0,0.5,0],[1,0.5,0],[0.5,1,0],[0.5,0,0]];labelBackgroundColor=none;rounded=1;strokeColor=none;html=1;whiteSpace=wrap;" parent="1" vertex="1">
            <mxGeometry x="578" y="149" width="127" height="62" as="geometry" />
          </mxCell>
        </UserObject>
        <mxCell id="36" style="vsdxID=24;fillColor=#f6f6f7;gradientColor=none;strokeOpacity=0;shape=stencil(vVPbcoMgFPwaHmW4qMhzmv5Av4CpRJlScZA2Jl9fzGEyYlPfmjc4u5xlDyzih6lXo0aMTMG7D302begRf0GMmaHX3oS4QvyI+OHkvO68+xpa2I8qMhm5VXQLZ+jCZkT59zdz1VAjmFNRAQAnP933ojgnHKAL7BpMgfsK3NhqEUlcjmXq5O98UkIlUcqsXWo+F2o2U+FdUMG4IcOs8p0uok5xsqrLoOms9bgq0/XNrBlWLmT9QPehhxLXIvcgccUzD5T8MZQnGNlqS4obuueGbtw0uKKZm81o7gL/7yX/C1JiKfb+luC5E4Hr3MnvyTztWfZTEhe3OEJQjbWQ5jW+jW8sQfT58Qc=);spacingTop=-3;spacingBottom=-3;spacingLeft=-3;spacingRight=-3;points=[[0,0.5,0],[1,0.5,0],[0.5,1,0],[0.5,0,0]];labelBackgroundColor=none;rounded=1;html=1;whiteSpace=wrap;" parent="35" vertex="1">
          <mxGeometry width="127" height="62" as="geometry" />
        </mxCell>
        <mxCell id="37" value="&lt;div style=&quot;font-size: 1px&quot;&gt;&lt;p style=&quot;text-align:left;margin-left:6;margin-right:7;margin-top:2px;margin-bottom:0px;text-indent:0;vertical-align:top;direction:ltr;&quot;&gt;&lt;/p&gt;&lt;ul style=&quot;margin: 0;list-style-type: disc&quot;&gt;&lt;font style=&quot;font-size: 11.29px; font-family: Arial; color: rgb(51, 51, 51); direction: ltr; letter-spacing: 0px; line-height: 100%; opacity: 1;&quot;&gt;&lt;i&gt;&lt;/i&gt;&lt;/font&gt;&lt;/ul&gt;&lt;i style=&quot;background-color: transparent; color: light-dark(rgb(51, 51, 51), rgb(51, 51, 51)); font-family: Arial; font-size: 11.29px; letter-spacing: 0px;&quot;&gt;Proof of Concept (PoC) Notebook added to Project Repository.&lt;/i&gt;&lt;i style=&quot;color: light-dark(rgb(51, 51, 51), rgb(51, 51, 51)); font-family: Arial; font-size: 11.29px; letter-spacing: 0px; background-color: transparent;&quot;&gt;&lt;br&gt;&lt;/i&gt;&lt;p&gt;&lt;/p&gt;&lt;/div&gt;" style="text;vsdxID=23;fillColor=none;gradientColor=none;strokeOpacity=0;spacingTop=-3;spacingBottom=-3;spacingLeft=-3;spacingRight=-3;points=[[0,0.5,0],[1,0.5,0],[0.5,1,0],[0.5,0,0]];labelBackgroundColor=none;rounded=1;strokeColor=none;html=1;whiteSpace=wrap;verticalAlign=top;align=left;overflow=width;;html=1;" parent="35" vertex="1">
          <mxGeometry x="3.05" y="2.73" width="121.29" height="56.52" as="geometry" />
        </mxCell>
        <UserObject label="" tags="Background" id="120">
          <mxCell style="vsdxID=25;edgeStyle=none;startArrow=none;endArrow=block;startSize=5;endSize=5;strokeColor=#333333;spacingTop=-3;spacingBottom=-3;spacingLeft=-3;spacingRight=-3;verticalAlign=middle;html=1;labelBackgroundColor=none;rounded=0;" parent="1" edge="1">
            <mxGeometry relative="1" as="geometry">
              <mxPoint y="-1" as="offset" />
              <Array as="points">
                <mxPoint x="184" y="565.54" />
                <mxPoint x="183.81" y="565.54" />
              </Array>
              <mxPoint x="184" y="520" as="sourcePoint" />
              <mxPoint x="184" y="613" as="targetPoint" />
            </mxGeometry>
          </mxCell>
        </UserObject>
        <UserObject label="" tags="Background" id="121">
          <mxCell style="vsdxID=26;edgeStyle=none;startArrow=none;endArrow=block;startSize=5;endSize=5;strokeColor=#333333;spacingTop=-3;spacingBottom=-3;spacingLeft=-3;spacingRight=-3;verticalAlign=middle;html=1;labelBackgroundColor=none;rounded=0;" parent="1" edge="1">
            <mxGeometry relative="1" as="geometry">
              <mxPoint y="-1" as="offset" />
              <Array as="points">
                <mxPoint x="184" y="678.86" />
                <mxPoint x="184" y="678.86" />
              </Array>
              <mxPoint x="184" y="664" as="sourcePoint" />
              <mxPoint x="184" y="696" as="targetPoint" />
            </mxGeometry>
          </mxCell>
        </UserObject>
        <UserObject label="" tags="Background" id="122">
          <mxCell style="vsdxID=27;edgeStyle=none;startArrow=none;endArrow=block;startSize=5;endSize=5;strokeColor=#333333;spacingTop=-3;spacingBottom=-3;spacingLeft=-3;spacingRight=-3;verticalAlign=middle;html=1;labelBackgroundColor=none;rounded=0;" parent="1" edge="1">
            <mxGeometry relative="1" as="geometry">
              <mxPoint as="offset" />
              <Array as="points" />
              <mxPoint x="337" y="401" as="sourcePoint" />
              <mxPoint x="337" y="302" as="targetPoint" />
            </mxGeometry>
          </mxCell>
        </UserObject>
        <UserObject label="" tags="Background" id="123">
          <mxCell style="vsdxID=28;edgeStyle=none;startArrow=none;endArrow=block;startSize=5;endSize=5;strokeColor=#333333;spacingTop=-3;spacingBottom=-3;spacingLeft=-3;spacingRight=-3;verticalAlign=middle;html=1;labelBackgroundColor=none;rounded=0;" parent="1" edge="1">
            <mxGeometry relative="1" as="geometry">
              <mxPoint as="offset" />
              <Array as="points">
                <mxPoint x="337" y="236.2" />
                <mxPoint x="337" y="236.2" />
              </Array>
              <mxPoint x="337" y="251" as="sourcePoint" />
              <mxPoint x="337" y="219" as="targetPoint" />
            </mxGeometry>
          </mxCell>
        </UserObject>
        <UserObject label="" tags="Background" id="124">
          <mxCell style="vsdxID=29;edgeStyle=none;startArrow=none;endArrow=block;startSize=5;endSize=5;strokeColor=#333333;spacingTop=-3;spacingBottom=-3;spacingLeft=-3;spacingRight=-3;verticalAlign=middle;html=1;labelBackgroundColor=none;rounded=0;" parent="1" edge="1">
            <mxGeometry relative="1" as="geometry">
              <mxPoint as="offset" />
              <Array as="points">
                <mxPoint x="489" y="678.86" />
                <mxPoint x="488.55" y="678.86" />
              </Array>
              <mxPoint x="489" y="664" as="sourcePoint" />
              <mxPoint x="489" y="695" as="targetPoint" />
            </mxGeometry>
          </mxCell>
        </UserObject>
        <UserObject label="" tags="Background" id="125">
          <mxCell style="vsdxID=30;edgeStyle=none;startArrow=none;endArrow=block;startSize=5;endSize=5;strokeColor=#333333;spacingTop=-3;spacingBottom=-3;spacingLeft=-3;spacingRight=-3;verticalAlign=middle;html=1;labelBackgroundColor=none;rounded=0;" parent="1" edge="1">
            <mxGeometry relative="1" as="geometry">
              <mxPoint as="offset" />
              <Array as="points" />
              <mxPoint x="489" y="520" as="sourcePoint" />
              <mxPoint x="489" y="613" as="targetPoint" />
            </mxGeometry>
          </mxCell>
        </UserObject>
        <UserObject label="" tags="Background" id="126">
          <mxCell style="vsdxID=31;edgeStyle=none;startArrow=none;endArrow=block;startSize=5;endSize=5;strokeColor=#333333;spacingTop=-3;spacingBottom=-3;spacingLeft=-3;spacingRight=-3;verticalAlign=middle;html=1;labelBackgroundColor=none;rounded=0;" parent="1" edge="1">
            <mxGeometry relative="1" as="geometry">
              <mxPoint y="-1" as="offset" />
              <Array as="points" />
              <mxPoint x="641" y="251" as="sourcePoint" />
              <mxPoint x="641" y="211" as="targetPoint" />
            </mxGeometry>
          </mxCell>
        </UserObject>
        <UserObject label="" tags="Background" id="127">
          <mxCell style="vsdxID=32;edgeStyle=none;startArrow=none;endArrow=block;startSize=5;endSize=5;strokeColor=#333333;spacingTop=-3;spacingBottom=-3;spacingLeft=-3;spacingRight=-3;verticalAlign=middle;html=1;labelBackgroundColor=none;rounded=0;" parent="1" edge="1">
            <mxGeometry relative="1" as="geometry">
              <mxPoint as="offset" />
              <Array as="points" />
              <mxPoint x="641" y="401" as="sourcePoint" />
              <mxPoint x="641" y="302" as="targetPoint" />
            </mxGeometry>
          </mxCell>
        </UserObject>
        <UserObject label="" tags="Background" id="128">
          <mxCell style="vsdxID=33;edgeStyle=none;startArrow=none;endArrow=block;startSize=5;endSize=5;strokeColor=#333333;spacingTop=-3;spacingBottom=-3;spacingLeft=-3;spacingRight=-3;verticalAlign=middle;html=1;labelBackgroundColor=none;rounded=0;" parent="1" edge="1">
            <mxGeometry relative="1" as="geometry">
              <mxPoint y="-1" as="offset" />
              <Array as="points" />
              <mxPoint x="794" y="664" as="sourcePoint" />
              <mxPoint x="794" y="695" as="targetPoint" />
            </mxGeometry>
          </mxCell>
        </UserObject>
        <UserObject label="" tags="Background" id="129">
          <mxCell style="vsdxID=34;edgeStyle=none;startArrow=none;endArrow=block;startSize=5;endSize=5;strokeColor=#333333;spacingTop=-3;spacingBottom=-3;spacingLeft=-3;spacingRight=-3;verticalAlign=middle;html=1;labelBackgroundColor=none;rounded=0;" parent="1" edge="1">
            <mxGeometry relative="1" as="geometry">
              <mxPoint y="-1" as="offset" />
              <Array as="points" />
              <mxPoint x="794" y="511" as="sourcePoint" />
              <mxPoint x="794" y="613" as="targetPoint" />
            </mxGeometry>
          </mxCell>
        </UserObject>
        <UserObject label="" tags="Background" id="130">
          <mxCell style="vsdxID=35;edgeStyle=none;startArrow=none;endArrow=block;startSize=5;endSize=5;strokeColor=#333333;spacingTop=-3;spacingBottom=-3;spacingLeft=-3;spacingRight=-3;verticalAlign=middle;html=1;labelBackgroundColor=none;rounded=0;" parent="1" edge="1">
            <mxGeometry relative="1" as="geometry">
              <mxPoint as="offset" />
              <Array as="points" />
              <mxPoint x="946" y="401" as="sourcePoint" />
              <mxPoint x="946" y="302" as="targetPoint" />
            </mxGeometry>
          </mxCell>
        </UserObject>
        <UserObject label="" tags="Background" id="131">
          <mxCell style="vsdxID=36;edgeStyle=none;startArrow=none;endArrow=block;startSize=5;endSize=5;strokeColor=#333333;spacingTop=-3;spacingBottom=-3;spacingLeft=-3;spacingRight=-3;verticalAlign=middle;html=1;labelBackgroundColor=none;rounded=0;" parent="1" edge="1">
            <mxGeometry relative="1" as="geometry">
              <mxPoint x="-1" y="-1" as="offset" />
              <Array as="points">
                <mxPoint x="946" y="228.14" />
                <mxPoint x="946.25" y="228.14" />
              </Array>
              <mxPoint x="946" y="251" as="sourcePoint" />
              <mxPoint x="946" y="203" as="targetPoint" />
            </mxGeometry>
          </mxCell>
        </UserObject>
        <UserObject label="" tags="Background" id="38">
          <mxCell style="vsdxID=37;fillColor=none;gradientColor=none;strokeColor=none;strokeWidth=4;spacingTop=-3;spacingBottom=-3;spacingLeft=-3;spacingRight=-3;points=[[0,0.5,0],[1,0.5,0],[0.5,1,0],[0.5,0,0]];labelBackgroundColor=none;rounded=1;html=1;whiteSpace=wrap;" parent="1" vertex="1">
            <mxGeometry x="311" y="251" width="50" height="50" as="geometry" />
          </mxCell>
        </UserObject>
        <mxCell id="39" style="vsdxID=38;fillColor=#ffffff;gradientColor=none;shape=stencil(hVLtDoIwDHya/SWlDaI/jR8v4BMQmLKIQAYo+PQOSnSbEvnV3q7ctTlBuyZPaikQmlZXV/lQWZsL2gtEVeZSq9ZUgg6CdudKy4uuujLjvk4ME2FCZMYz4chGSHR6Uk/JGAQUxhE/8OStuo+K/TwDwI8D9xG3R+amnWZy6LNnII6DFTLU4xc0oDfWk6MCA7mESRa2P5QRA1q72p+/zjLgqtreyGXQ97I/Vb1tRxPxxvoi14Bt0vW0tPg/A/YxXU+9f9sB/5gkf2DpCqae4sXBU0XB6XynwhR+HA3EUabDCw==);strokeColor=#fcce14;strokeWidth=4;spacingTop=-3;spacingBottom=-3;spacingLeft=-3;spacingRight=-3;points=[[0,0.5,0],[1,0.5,0],[0.5,1,0],[0.5,0,0]];labelBackgroundColor=none;rounded=1;html=1;whiteSpace=wrap;" parent="38" vertex="1">
          <mxGeometry width="50" height="50" as="geometry" />
        </mxCell>
        <mxCell id="40" value="&lt;div style=&quot;font-size: 1px&quot;&gt;&lt;p style=&quot;text-align:center;margin-left:0;margin-right:0;margin-top:0px;margin-bottom:0px;text-indent:0;vertical-align:middle;direction:ltr;&quot;&gt;&lt;font style=&quot;font-size:14.11px;font-family:Arial;color:#000000;direction:ltr;letter-spacing:0px;line-height:100%;opacity:1&quot;&gt; &lt;/font&gt;&lt;/p&gt;&lt;/div&gt;" style="text;vsdxID=37;fillColor=none;gradientColor=none;strokeColor=none;strokeWidth=4;spacingTop=-3;spacingBottom=-3;spacingLeft=-3;spacingRight=-3;points=[[0,0.5,0],[1,0.5,0],[0.5,1,0],[0.5,0,0]];labelBackgroundColor=none;rounded=1;html=1;whiteSpace=wrap;verticalAlign=middle;align=center;overflow=width;;html=1;" parent="38" vertex="1">
          <mxGeometry x="3.17" y="2.38" width="44.45" height="44.45" as="geometry" />
        </mxCell>
        <UserObject label="" tags="Background" id="41">
          <mxCell style="vsdxID=39;fillColor=none;gradientColor=none;strokeColor=none;strokeWidth=4;spacingTop=-3;spacingBottom=-3;spacingLeft=-3;spacingRight=-3;points=[[0,0.5,0],[1,0.5,0],[0.5,1,0],[0.5,0,0]];labelBackgroundColor=none;rounded=1;html=1;whiteSpace=wrap;" parent="1" vertex="1">
            <mxGeometry x="159" y="613" width="50" height="50" as="geometry" />
          </mxCell>
        </UserObject>
        <mxCell id="42" style="vsdxID=40;fillColor=#ffffff;gradientColor=none;shape=stencil(hVLtDoIwDHya/SWlDaI/jR8v4BMQmLKIQAYo+PQOSnSbEvnV3q7ctTlBuyZPaikQmlZXV/lQWZsL2gtEVeZSq9ZUgg6CdudKy4uuujLjvk4ME2FCZMYz4chGSHR6Uk/JGAQUxhE/8OStuo+K/TwDwI8D9xG3R+amnWZy6LNnII6DFTLU4xc0oDfWk6MCA7mESRa2P5QRA1q72p+/zjLgqtreyGXQ97I/Vb1tRxPxxvoi14Bt0vW0tPg/A/YxXU+9f9sB/5gkf2DpCqae4sXBU0XB6XynwhR+HA3EUabDCw==);strokeColor=#6db1ff;strokeWidth=4;spacingTop=-3;spacingBottom=-3;spacingLeft=-3;spacingRight=-3;points=[[0,0.5,0],[1,0.5,0],[0.5,1,0],[0.5,0,0]];labelBackgroundColor=none;rounded=1;html=1;whiteSpace=wrap;" parent="41" vertex="1">
          <mxGeometry width="50" height="50" as="geometry" />
        </mxCell>
        <UserObject label="" tags="Background" id="43">
          <mxCell style="vsdxID=41;fillColor=none;gradientColor=none;strokeColor=none;strokeWidth=4;spacingTop=-3;spacingBottom=-3;spacingLeft=-3;spacingRight=-3;points=[[0,0.5,0],[1,0.5,0],[0.5,1,0],[0.5,0,0]];labelBackgroundColor=none;rounded=1;html=1;whiteSpace=wrap;" parent="1" vertex="1">
            <mxGeometry x="464" y="613" width="50" height="50" as="geometry" />
          </mxCell>
        </UserObject>
        <mxCell id="44" style="vsdxID=42;fillColor=#ffffff;gradientColor=none;shape=stencil(hVLtDoIwDHya/SWlDaI/jR8v4BMQmLKIQAYo+PQOSnSbEvnV3q7ctTlBuyZPaikQmlZXV/lQWZsL2gtEVeZSq9ZUgg6CdudKy4uuujLjvk4ME2FCZMYz4chGSHR6Uk/JGAQUxhE/8OStuo+K/TwDwI8D9xG3R+amnWZy6LNnII6DFTLU4xc0oDfWk6MCA7mESRa2P5QRA1q72p+/zjLgqtreyGXQ97I/Vb1tRxPxxvoi14Bt0vW0tPg/A/YxXU+9f9sB/5gkf2DpCqae4sXBU0XB6XynwhR+HA3EUabDCw==);strokeColor=#ff80df;strokeWidth=4;spacingTop=-3;spacingBottom=-3;spacingLeft=-3;spacingRight=-3;points=[[0,0.5,0],[1,0.5,0],[0.5,1,0],[0.5,0,0]];labelBackgroundColor=none;rounded=1;html=1;whiteSpace=wrap;" parent="43" vertex="1">
          <mxGeometry width="50" height="50" as="geometry" />
        </mxCell>
        <UserObject label="" tags="Background" id="45">
          <mxCell style="vsdxID=43;fillColor=none;gradientColor=none;strokeColor=none;strokeWidth=4;spacingTop=-3;spacingBottom=-3;spacingLeft=-3;spacingRight=-3;points=[[0,0.5,0],[1,0.5,0],[0.5,1,0],[0.5,0,0]];labelBackgroundColor=none;rounded=1;html=1;whiteSpace=wrap;" parent="1" vertex="1">
            <mxGeometry x="616" y="251" width="50" height="50" as="geometry" />
          </mxCell>
        </UserObject>
        <mxCell id="46" style="vsdxID=44;fillColor=#ffffff;gradientColor=none;shape=stencil(hVLtDoIwDHya/SWlDaI/jR8v4BMQmLKIQAYo+PQOSnSbEvnV3q7ctTlBuyZPaikQmlZXV/lQWZsL2gtEVeZSq9ZUgg6CdudKy4uuujLjvk4ME2FCZMYz4chGSHR6Uk/JGAQUxhE/8OStuo+K/TwDwI8D9xG3R+amnWZy6LNnII6DFTLU4xc0oDfWk6MCA7mESRa2P5QRA1q72p+/zjLgqtreyGXQ97I/Vb1tRxPxxvoi14Bt0vW0tPg/A/YxXU+9f9sB/5gkf2DpCqae4sXBU0XB6XynwhR+HA3EUabDCw==);strokeColor=#008573;strokeWidth=4;spacingTop=-3;spacingBottom=-3;spacingLeft=-3;spacingRight=-3;points=[[0,0.5,0],[1,0.5,0],[0.5,1,0],[0.5,0,0]];labelBackgroundColor=none;rounded=1;html=1;whiteSpace=wrap;" parent="45" vertex="1">
          <mxGeometry width="50" height="50" as="geometry" />
        </mxCell>
        <UserObject label="" tags="Background" id="47">
          <mxCell style="vsdxID=45;fillColor=none;gradientColor=none;strokeColor=none;strokeWidth=4;spacingTop=-3;spacingBottom=-3;spacingLeft=-3;spacingRight=-3;points=[[0,0.5,0],[1,0.5,0],[0.5,1,0],[0.5,0,0]];labelBackgroundColor=none;rounded=1;html=1;whiteSpace=wrap;" parent="1" vertex="1">
            <mxGeometry x="921" y="251" width="50" height="50" as="geometry" />
          </mxCell>
        </UserObject>
        <mxCell id="48" style="vsdxID=46;fillColor=#ffffff;gradientColor=none;shape=stencil(hVLtDoIwDHya/SWlDaI/jR8v4BMQmLKIQAYo+PQOSnSbEvnV3q7ctTlBuyZPaikQmlZXV/lQWZsL2gtEVeZSq9ZUgg6CdudKy4uuujLjvk4ME2FCZMYz4chGSHR6Uk/JGAQUxhE/8OStuo+K/TwDwI8D9xG3R+amnWZy6LNnII6DFTLU4xc0oDfWk6MCA7mESRa2P5QRA1q72p+/zjLgqtreyGXQ97I/Vb1tRxPxxvoi14Bt0vW0tPg/A/YxXU+9f9sB/5gkf2DpCqae4sXBU0XB6XynwhR+HA3EUabDCw==);strokeColor=#00c2a8;strokeWidth=4;spacingTop=-3;spacingBottom=-3;spacingLeft=-3;spacingRight=-3;points=[[0,0.5,0],[1,0.5,0],[0.5,1,0],[0.5,0,0]];labelBackgroundColor=none;rounded=1;html=1;whiteSpace=wrap;" parent="47" vertex="1">
          <mxGeometry width="50" height="50" as="geometry" />
        </mxCell>
        <UserObject label="" tags="Background" id="49">
          <mxCell style="vsdxID=47;fillColor=none;gradientColor=none;strokeColor=none;strokeWidth=4;spacingTop=-3;spacingBottom=-3;spacingLeft=-3;spacingRight=-3;points=[[0,0.5,0],[1,0.5,0],[0.5,1,0],[0.5,0,0]];labelBackgroundColor=none;rounded=1;html=1;whiteSpace=wrap;" parent="1" vertex="1">
            <mxGeometry x="768" y="613" width="50" height="50" as="geometry" />
          </mxCell>
        </UserObject>
        <mxCell id="50" style="vsdxID=48;fillColor=#ffffff;gradientColor=none;shape=stencil(hVLtDoIwDHya/SWlDaI/jR8v4BMQmLKIQAYo+PQOSnSbEvnV3q7ctTlBuyZPaikQmlZXV/lQWZsL2gtEVeZSq9ZUgg6CdudKy4uuujLjvk4ME2FCZMYz4chGSHR6Uk/JGAQUxhE/8OStuo+K/TwDwI8D9xG3R+amnWZy6LNnII6DFTLU4xc0oDfWk6MCA7mESRa2P5QRA1q72p+/zjLgqtreyGXQ97I/Vb1tRxPxxvoi14Bt0vW0tPg/A/YxXU+9f9sB/5gkf2DpCqae4sXBU0XB6XynwhR+HA3EUabDCw==);strokeColor=#ff8f8f;strokeWidth=4;spacingTop=-3;spacingBottom=-3;spacingLeft=-3;spacingRight=-3;points=[[0,0.5,0],[1,0.5,0],[0.5,1,0],[0.5,0,0]];labelBackgroundColor=none;rounded=1;html=1;whiteSpace=wrap;" parent="49" vertex="1">
          <mxGeometry width="50" height="50" as="geometry" />
        </mxCell>
        <UserObject label="" tags="Background" id="87">
          <mxCell style="vsdxID=80;fillColor=none;gradientColor=none;strokeColor=none;spacingTop=-3;spacingBottom=-3;spacingLeft=-3;spacingRight=-3;points=[[0,0.5,0],[1,0.5,0],[0.5,1,0],[0.5,0,0]];labelBackgroundColor=none;rounded=1;html=1;whiteSpace=wrap;" parent="1" vertex="1">
            <mxGeometry x="114" y="346" width="139" height="41" as="geometry" />
          </mxCell>
        </UserObject>
        <mxCell id="88" style="vsdxID=81;fillColor=#f2f2ff;gradientColor=none;shape=stencil(vVRBcoMwDHyNj3iMBTic0+QDeYGnOOCpixlDG9LX1yBCMaTpqbkZ7UrrlSUI7NtKNopw1nbOvqmLLrqKwAvhXNeVcrrzJwIHAvuzdap09qMu8LuRnsnZGFEF5sQDmzPpXk/6S2GMUYhFigBmvtvPQbGfcISuUwVOQYyRI5J9rUFlIgNNc+S7n4Sb7MzJkqDmpNBHstdt5GwnO23rADPSlSryWtHZyDKA2otSzSIcL29ndL2wkmcUsjvSd60klCUrK0BFEliJ2W/deYKbtfhO0Gz36Glu7zD7YTSHwM+2QbPI//vZzIXXpix9OGxiM2xx6GjbIniWnz8Wxx/GFcXl1cbghi/x9Ur7EP4O4PAN);strokeColor=#333333;spacingTop=-3;spacingBottom=-3;spacingLeft=-3;spacingRight=-3;points=[[0,0.5,0],[1,0.5,0],[0.5,1,0],[0.5,0,0]];labelBackgroundColor=none;rounded=1;html=1;whiteSpace=wrap;" parent="87" vertex="1">
          <mxGeometry width="139" height="41" as="geometry" />
        </mxCell>
        <mxCell id="89" value="&lt;div style=&quot;font-size: 1px&quot;&gt;&lt;p style=&quot;text-align:center;margin-left:0;margin-right:0;margin-top:0px;margin-bottom:0px;text-indent:0;vertical-align:middle;direction:ltr;&quot;&gt;&lt;font style=&quot;font-size:15.52px;font-family:Arial;color:#333333;direction:ltr;letter-spacing:0px;line-height:100%;opacity:1&quot;&gt;&lt;b&gt;Week 1-2&lt;/b&gt;&lt;/font&gt;&lt;/p&gt;&lt;/div&gt;" style="text;vsdxID=80;fillColor=none;gradientColor=none;strokeColor=none;spacingTop=-3;spacingBottom=-3;spacingLeft=-3;spacingRight=-3;points=[[0,0.5,0],[1,0.5,0],[0.5,1,0],[0.5,0,0]];labelBackgroundColor=none;rounded=1;html=1;whiteSpace=wrap;verticalAlign=middle;align=center;overflow=width;;html=1;" parent="87" vertex="1">
          <mxGeometry x="3.17" y="3.11" width="133.99" height="34.93" as="geometry" />
        </mxCell>
        <UserObject label="" tags="Background" id="90">
          <mxCell style="vsdxID=82;fillColor=none;gradientColor=none;strokeColor=none;spacingTop=-3;spacingBottom=-3;spacingLeft=-3;spacingRight=-3;points=[[0,0.5,0],[1,0.5,0],[0.5,1,0],[0.5,0,0]];labelBackgroundColor=none;rounded=1;html=1;whiteSpace=wrap;" parent="1" vertex="1">
            <mxGeometry x="267" y="535" width="139" height="41" as="geometry" />
          </mxCell>
        </UserObject>
        <mxCell id="91" style="vsdxID=83;fillColor=#f2f2ff;gradientColor=none;shape=stencil(vVRBcoMwDHyNj3iMBTic0+QDeYGnOOCpixlDG9LX1yBCMaTpqbkZ7UrrlSUI7NtKNopw1nbOvqmLLrqKwAvhXNeVcrrzJwIHAvuzdap09qMu8LuRnsnZGFEF5sQDmzPpXk/6S2GMUYhFigBmvtvPQbGfcISuUwVOQYyRI5J9rUFlIgNNc+S7n4Sb7MzJkqDmpNBHstdt5GwnO23rADPSlSryWtHZyDKA2otSzSIcL29ndL2wkmcUsjvSd60klCUrK0BFEliJ2W/deYKbtfhO0Gz36Glu7zD7YTSHwM+2QbPI//vZzIXXpix9OGxiM2xx6GjbIniWnz8Wxx/GFcXl1cbghi/x9Ur7EP4O4PAN);strokeColor=#333333;spacingTop=-3;spacingBottom=-3;spacingLeft=-3;spacingRight=-3;points=[[0,0.5,0],[1,0.5,0],[0.5,1,0],[0.5,0,0]];labelBackgroundColor=none;rounded=1;html=1;whiteSpace=wrap;" parent="90" vertex="1">
          <mxGeometry width="139" height="41" as="geometry" />
        </mxCell>
        <mxCell id="92" value="&lt;div style=&quot;font-size: 1px&quot;&gt;&lt;p style=&quot;text-align:center;margin-left:0;margin-right:0;margin-top:0px;margin-bottom:0px;text-indent:0;vertical-align:middle;direction:ltr;&quot;&gt;&lt;font style=&quot;font-size:15.52px;font-family:Arial;color:#333333;direction:ltr;letter-spacing:0px;line-height:100%;opacity:1&quot;&gt;&lt;b&gt;Week 3&lt;/b&gt;&lt;/font&gt;&lt;/p&gt;&lt;/div&gt;" style="text;vsdxID=82;fillColor=none;gradientColor=none;strokeColor=none;spacingTop=-3;spacingBottom=-3;spacingLeft=-3;spacingRight=-3;points=[[0,0.5,0],[1,0.5,0],[0.5,1,0],[0.5,0,0]];labelBackgroundColor=none;rounded=1;html=1;whiteSpace=wrap;verticalAlign=middle;align=center;overflow=width;;html=1;" parent="90" vertex="1">
          <mxGeometry x="3.17" y="3.11" width="133.99" height="34.93" as="geometry" />
        </mxCell>
        <UserObject label="" tags="Background" id="93">
          <mxCell style="vsdxID=84;fillColor=none;gradientColor=none;strokeColor=none;spacingTop=-3;spacingBottom=-3;spacingLeft=-3;spacingRight=-3;points=[[0,0.5,0],[1,0.5,0],[0.5,1,0],[0.5,0,0]];labelBackgroundColor=none;rounded=1;html=1;whiteSpace=wrap;" parent="1" vertex="1">
            <mxGeometry x="426" y="346" width="139" height="41" as="geometry" />
          </mxCell>
        </UserObject>
        <mxCell id="94" style="vsdxID=85;fillColor=#f2f2ff;gradientColor=none;shape=stencil(vVRBcoMwDHyNj3iMBTic0+QDeYGnOOCpixlDG9LX1yBCMaTpqbkZ7UrrlSUI7NtKNopw1nbOvqmLLrqKwAvhXNeVcrrzJwIHAvuzdap09qMu8LuRnsnZGFEF5sQDmzPpXk/6S2GMUYhFigBmvtvPQbGfcISuUwVOQYyRI5J9rUFlIgNNc+S7n4Sb7MzJkqDmpNBHstdt5GwnO23rADPSlSryWtHZyDKA2otSzSIcL29ndL2wkmcUsjvSd60klCUrK0BFEliJ2W/deYKbtfhO0Gz36Glu7zD7YTSHwM+2QbPI//vZzIXXpix9OGxiM2xx6GjbIniWnz8Wxx/GFcXl1cbghi/x9Ur7EP4O4PAN);strokeColor=#333333;spacingTop=-3;spacingBottom=-3;spacingLeft=-3;spacingRight=-3;points=[[0,0.5,0],[1,0.5,0],[0.5,1,0],[0.5,0,0]];labelBackgroundColor=none;rounded=1;html=1;whiteSpace=wrap;" parent="93" vertex="1">
          <mxGeometry width="139" height="41" as="geometry" />
        </mxCell>
        <mxCell id="95" value="&lt;div style=&quot;font-size: 1px&quot;&gt;&lt;p style=&quot;text-align:center;margin-left:0;margin-right:0;margin-top:0px;margin-bottom:0px;text-indent:0;vertical-align:middle;direction:ltr;&quot;&gt;&lt;font style=&quot;font-size:15.52px;font-family:Arial;color:#333333;direction:ltr;letter-spacing:0px;line-height:100%;opacity:1&quot;&gt;&lt;b&gt;Week 4-5&lt;/b&gt;&lt;/font&gt;&lt;/p&gt;&lt;/div&gt;" style="text;vsdxID=84;fillColor=none;gradientColor=none;strokeColor=none;spacingTop=-3;spacingBottom=-3;spacingLeft=-3;spacingRight=-3;points=[[0,0.5,0],[1,0.5,0],[0.5,1,0],[0.5,0,0]];labelBackgroundColor=none;rounded=1;html=1;whiteSpace=wrap;verticalAlign=middle;align=center;overflow=width;;html=1;" parent="93" vertex="1">
          <mxGeometry x="3.17" y="3.11" width="133.99" height="34.93" as="geometry" />
        </mxCell>
        <UserObject label="" tags="Background" id="96">
          <mxCell style="vsdxID=86;fillColor=none;gradientColor=none;strokeColor=none;spacingTop=-3;spacingBottom=-3;spacingLeft=-3;spacingRight=-3;points=[[0,0.5,0],[1,0.5,0],[0.5,1,0],[0.5,0,0]];labelBackgroundColor=none;rounded=1;html=1;whiteSpace=wrap;" parent="1" vertex="1">
            <mxGeometry x="572" y="535" width="139" height="41" as="geometry" />
          </mxCell>
        </UserObject>
        <mxCell id="97" style="vsdxID=87;fillColor=#f2f2ff;gradientColor=none;shape=stencil(vVRBcoMwDHyNj3iMBTic0+QDeYGnOOCpixlDG9LX1yBCMaTpqbkZ7UrrlSUI7NtKNopw1nbOvqmLLrqKwAvhXNeVcrrzJwIHAvuzdap09qMu8LuRnsnZGFEF5sQDmzPpXk/6S2GMUYhFigBmvtvPQbGfcISuUwVOQYyRI5J9rUFlIgNNc+S7n4Sb7MzJkqDmpNBHstdt5GwnO23rADPSlSryWtHZyDKA2otSzSIcL29ndL2wkmcUsjvSd60klCUrK0BFEliJ2W/deYKbtfhO0Gz36Glu7zD7YTSHwM+2QbPI//vZzIXXpix9OGxiM2xx6GjbIniWnz8Wxx/GFcXl1cbghi/x9Ur7EP4O4PAN);strokeColor=#333333;spacingTop=-3;spacingBottom=-3;spacingLeft=-3;spacingRight=-3;points=[[0,0.5,0],[1,0.5,0],[0.5,1,0],[0.5,0,0]];labelBackgroundColor=none;rounded=1;html=1;whiteSpace=wrap;" parent="96" vertex="1">
          <mxGeometry width="139" height="41" as="geometry" />
        </mxCell>
        <mxCell id="98" value="&lt;div style=&quot;font-size: 1px&quot;&gt;&lt;p style=&quot;text-align:center;margin-left:0;margin-right:0;margin-top:0px;margin-bottom:0px;text-indent:0;vertical-align:middle;direction:ltr;&quot;&gt;&lt;font style=&quot;font-size:15.52px;font-family:Arial;color:#333333;direction:ltr;letter-spacing:0px;line-height:100%;opacity:1&quot;&gt;&lt;b&gt;Week 6-7&lt;/b&gt;&lt;/font&gt;&lt;/p&gt;&lt;/div&gt;" style="text;vsdxID=86;fillColor=none;gradientColor=none;strokeColor=none;spacingTop=-3;spacingBottom=-3;spacingLeft=-3;spacingRight=-3;points=[[0,0.5,0],[1,0.5,0],[0.5,1,0],[0.5,0,0]];labelBackgroundColor=none;rounded=1;html=1;whiteSpace=wrap;verticalAlign=middle;align=center;overflow=width;;html=1;" parent="96" vertex="1">
          <mxGeometry x="3.17" y="3.11" width="133.99" height="34.93" as="geometry" />
        </mxCell>
        <UserObject label="" tags="Background" id="99">
          <mxCell style="vsdxID=88;fillColor=none;gradientColor=none;strokeColor=none;spacingTop=-3;spacingBottom=-3;spacingLeft=-3;spacingRight=-3;points=[[0,0.5,0],[1,0.5,0],[0.5,1,0],[0.5,0,0]];labelBackgroundColor=none;rounded=1;html=1;whiteSpace=wrap;" parent="1" vertex="1">
            <mxGeometry x="724" y="346" width="139" height="41" as="geometry" />
          </mxCell>
        </UserObject>
        <mxCell id="100" style="vsdxID=89;fillColor=#f2f2ff;gradientColor=none;shape=stencil(vVRBcoMwDHyNj3iMBTic0+QDeYGnOOCpixlDG9LX1yBCMaTpqbkZ7UrrlSUI7NtKNopw1nbOvqmLLrqKwAvhXNeVcrrzJwIHAvuzdap09qMu8LuRnsnZGFEF5sQDmzPpXk/6S2GMUYhFigBmvtvPQbGfcISuUwVOQYyRI5J9rUFlIgNNc+S7n4Sb7MzJkqDmpNBHstdt5GwnO23rADPSlSryWtHZyDKA2otSzSIcL29ndL2wkmcUsjvSd60klCUrK0BFEliJ2W/deYKbtfhO0Gz36Glu7zD7YTSHwM+2QbPI//vZzIXXpix9OGxiM2xx6GjbIniWnz8Wxx/GFcXl1cbghi/x9Ur7EP4O4PAN);strokeColor=#333333;spacingTop=-3;spacingBottom=-3;spacingLeft=-3;spacingRight=-3;points=[[0,0.5,0],[1,0.5,0],[0.5,1,0],[0.5,0,0]];labelBackgroundColor=none;rounded=1;html=1;whiteSpace=wrap;" parent="99" vertex="1">
          <mxGeometry width="139" height="41" as="geometry" />
        </mxCell>
        <mxCell id="101" value="&lt;div style=&quot;font-size: 1px&quot;&gt;&lt;p style=&quot;text-align:center;margin-left:0;margin-right:0;margin-top:0px;margin-bottom:0px;text-indent:0;vertical-align:middle;direction:ltr;&quot;&gt;&lt;font style=&quot;font-size:15.52px;font-family:Arial;color:#333333;direction:ltr;letter-spacing:0px;line-height:100%;opacity:1&quot;&gt;&lt;b&gt;Week 8-10&lt;/b&gt;&lt;/font&gt;&lt;/p&gt;&lt;/div&gt;" style="text;vsdxID=88;fillColor=none;gradientColor=none;strokeColor=none;spacingTop=-3;spacingBottom=-3;spacingLeft=-3;spacingRight=-3;points=[[0,0.5,0],[1,0.5,0],[0.5,1,0],[0.5,0,0]];labelBackgroundColor=none;rounded=1;html=1;whiteSpace=wrap;verticalAlign=middle;align=center;overflow=width;;html=1;" parent="99" vertex="1">
          <mxGeometry x="3.17" y="3.11" width="133.99" height="34.93" as="geometry" />
        </mxCell>
        <UserObject label="" tags="Background" id="102">
          <mxCell style="vsdxID=90;fillColor=none;gradientColor=none;strokeColor=none;spacingTop=-3;spacingBottom=-3;spacingLeft=-3;spacingRight=-3;points=[[0,0.5,0],[1,0.5,0],[0.5,1,0],[0.5,0,0]];labelBackgroundColor=none;rounded=1;html=1;whiteSpace=wrap;" parent="1" vertex="1">
            <mxGeometry x="876" y="528" width="139" height="41" as="geometry" />
          </mxCell>
        </UserObject>
        <mxCell id="103" style="vsdxID=91;fillColor=#f2f2ff;gradientColor=none;shape=stencil(vVRBcoMwDHyNj3iMBTic0+QDeYGnOOCpixlDG9LX1yBCMaTpqbkZ7UrrlSUI7NtKNopw1nbOvqmLLrqKwAvhXNeVcrrzJwIHAvuzdap09qMu8LuRnsnZGFEF5sQDmzPpXk/6S2GMUYhFigBmvtvPQbGfcISuUwVOQYyRI5J9rUFlIgNNc+S7n4Sb7MzJkqDmpNBHstdt5GwnO23rADPSlSryWtHZyDKA2otSzSIcL29ndL2wkmcUsjvSd60klCUrK0BFEliJ2W/deYKbtfhO0Gz36Glu7zD7YTSHwM+2QbPI//vZzIXXpix9OGxiM2xx6GjbIniWnz8Wxx/GFcXl1cbghi/x9Ur7EP4O4PAN);strokeColor=#333333;spacingTop=-3;spacingBottom=-3;spacingLeft=-3;spacingRight=-3;points=[[0,0.5,0],[1,0.5,0],[0.5,1,0],[0.5,0,0]];labelBackgroundColor=none;rounded=1;html=1;whiteSpace=wrap;" parent="102" vertex="1">
          <mxGeometry width="139" height="41" as="geometry" />
        </mxCell>
        <mxCell id="104" value="&lt;div style=&quot;font-size: 1px&quot;&gt;&lt;p style=&quot;text-align:center;margin-left:0;margin-right:0;margin-top:0px;margin-bottom:0px;text-indent:0;vertical-align:middle;direction:ltr;&quot;&gt;&lt;font style=&quot;font-size:15.52px;font-family:Arial;color:#333333;direction:ltr;letter-spacing:0px;line-height:100%;opacity:1&quot;&gt;&lt;b&gt;Week 11&lt;/b&gt;&lt;/font&gt;&lt;/p&gt;&lt;/div&gt;" style="text;vsdxID=90;fillColor=none;gradientColor=none;strokeColor=none;spacingTop=-3;spacingBottom=-3;spacingLeft=-3;spacingRight=-3;points=[[0,0.5,0],[1,0.5,0],[0.5,1,0],[0.5,0,0]];labelBackgroundColor=none;rounded=1;html=1;whiteSpace=wrap;verticalAlign=middle;align=center;overflow=width;;html=1;" parent="102" vertex="1">
          <mxGeometry x="3.17" y="3.11" width="133.99" height="34.93" as="geometry" />
        </mxCell>
        <UserObject label="" tags="Background" id="105">
          <mxCell style="vsdxID=92;fillColor=none;gradientColor=none;strokeColor=none;strokeWidth=0;spacingTop=-3;spacingBottom=-3;spacingLeft=-3;spacingRight=-3;points=[[0,0.5,0],[1,0.5,0],[0.5,1,0],[0.5,0,0]];labelBackgroundColor=none;rounded=0;html=1;whiteSpace=wrap;" parent="1" vertex="1">
            <mxGeometry x="167" y="618" width="34" height="34" as="geometry" />
          </mxCell>
        </UserObject>
        <mxCell id="106" style="vsdxID=93;fillColor=none;gradientColor=none;image;aspect=fixed;image=data:image/png,iVBORw0KGgoAAAANSUhEUgAAAPAAAADwCAMAAAAJixmgAAAABGdBTUEAALGPC/xhBQAAACBjSFJNAAB6JgAAgIQAAPoAAACA6AAAdTAAAOpgAAA6mAAAF3CculE8AAACQFBMVEUAAAAkJEknKzQlKjMoKDJVVVUrKzYmKjImKjImKTIpMTEuLi4mKjIlLDUmKzMmKjElLTMoKDYmKjIrLjIqLzUmKTEkKDUkLDMsLDcnKjImKjMmKjImKjImKjIpKTQlKjIgIEAoMDAoLDQpLDIoKzMoKzQmKzNAQEAnKTImKTIkLjcnLDMoLDMoLDMnLDMoLDMpLDQrKzUnLjQmKjIqKjInLDQoLDMpLDMpLTMoLTQoLDMpKzIqKjIoKzIrKzIpLjQoLTQqKjQrKyspLDMoLDMnLDMzMzMnKjIsLDMoLDQoLDMnLDEqLjMmLTMoKzMoLDMoLDMoLDIoKzMoLTMnLTIqLjEoLDMnLDMnLTQwMDAmJjMpLTMnLTQpLDMrKzUpLDQnLDMoLDMoLDMpLjIoKzIoLDIoKzMoLDIoLDMoLDMnKzQoLDMoLDIoKzMoKzIoLTMnLTMoLDInLDInKzInKzMoLTIoLTMoLDMoLDMqLTMoLTInLDMoLDMpLDMoLTInLDMoLDIoLTMpLDMpKzMpLDMoLTQqKjInLTQoLDQoLDMoLjMoLDMoLDQoLDInLTMnLDMpLDEoLDQoLTEnLTMuLjcoLDMoLDIoLDIoKjQqLDMnLDMnLDMqLTApLTQnLTMoKzMsMzMoLDInKzMnLDMuLjInLDQnLDcnLDMoKzMoLDMnKzMoKzQnKzMoLTIpKTEqLzQnKjImJjkzMzMoLTMnLjQnLjQoKzQpLDMmKjMoLDMoLDIoKzQoLTQoLDMoLDP////NidBMAAAAvnRSTlMABztuMwMv1f3FHwvdUn5yWhPpQiteP0YXzdnx+b1KnQggQFdfUzwEudEcb7PT7+tjGCflJHvHw3dn22tWR5Ust2IMl/uvD+Ejy+c0Nyjf97+nn6tbQ/ObTxAUg49LMKPPc9c4k7uHf4vj982svpnHsK2diYPf5dGRgbf38a+x9vOl3Gr7sT38xv6M9PyF9uubkoH8HPq4/YVt/ulP06TZI/7xiz2yLtzrpP2m4OkfNlsbFOpUqNTucrnFk86uYHoURgAAAAFiS0dEv9Pbs1UAAAAJcEhZcwAADsQAAA7EAZUrDhsAAAAHdElNRQfkDAsWBwOdE4GLAAAOrUlEQVR42u2d938btxXAaTuOlSaR7UzHSdPTsJhqcCSUZFN1pdBUWlMxScsSJdHUsBKZVvdIuvdK90733nuvdNzfVoq6B+B4A3jAkbhj7vuTPqd7eO/xcMAD8IBLJGJiYmJiYmJeXhw5euzYbcd1W9E7bj8x0OKOV+i2o1fceddAmzteLs/47gGL23Rb0iMGweFjui3ptcODui2JHY4djh1Wcvikbkt6xClw+KhuS3rE6XsO/T1xRLclveLetsd33a7bjt5x+tTg4N136rYiOO67/wHlMo4/eP+9uv0Q5MzBWOih+9QKeeDswegiEpXgSHvsN/Dw/QplHB98pF3IK6MwnnoUOp1XeT0fY2h4ZPTc2FDSq4gzj0EZUajVJ8HYgVefcfxzfGJyKmUC6anJTNZZwuNPkCJUqkmvIKPd1jto/09uesZ0Mns+Z7/tzrO0hAd1eyPA8XuovcwIP3lhyvQiP8fWbuYXOxuJ0OQ1Ay418qK3u22Xz1F5EmoPPBKFV7jFa4nFYPD8gsljZhjEnyTiURlNHXnIMvihw16lcKnI9bfFotV+PfU6S/yxKHRKbV7/8GFXfPgKZy+LuNuitHQo/uhhJ/zEGQUTeszRg47lxNPtv6+UOx2rlKtXl6/Nlh3PvbJieXzwjM8+rtsLDK3RwanDFna1ZvMpvba+Qe6qry+n7S5fP/zHU09GdmyRYR9jpbHaGV0lhxsp1uPJgm6L1dhkfCkuZ13v2WhUWI91m6xEjqnP1S3v27adtTqSFGi0URz1vXOsRD1e0W22PFeJE6lhzq3jO/RNX9Jttyw3iA/lK9ybC9dof5wVKDyE5EgDvSvkQYPGXLpNl2MZ7K/xn28b+ox5L0AomScPeF1QokDe4xndxsuwiO9nxklbfU5YJjRsge2zSXGhMRDKI4RCwqLU+0gikDnd9mMZJwEWSiwHUWZetwNYLoDDz+DkSN+Uw8lpZ1KyS92AsdN53R7gMKBqbmIl4RHP6nYBx0WIiw2s5CrU6WjFl89aVi+gJZMwB5LR7QOKXfneBSLSaM0EQL0cwouuW6JTun3AkIWBnoRs3ZJN63bCjyNHjw22IDnQ8ypPCQYdSfeyw8Bh/jOTAw1N7Z5MaWXb6+AoOwRA/jPNgR61bF6WKW7WEh5zLzsEMOub1grpecvmmzLFwTzAOfeyQ8Aga1Q7B7pp2dyUKW6N7YidZYcAm1EnlR2GjnjUvewQcIo1qp0/CVVaalIdxsQj7mWHgNNMksNh/qRSo1VlZw6cZYeBe4lVVv7kimXzNZnSLrOttLPsUHCQO3kArHEOqwQesB415F52KIHQsmjgZXMwstTtBAoY423hRWHwcFm3Dyj2LKsn8KIw5bGm2wcUt+QnavYjOVEL9bJYx0pumfJvg0aMmmydhhodtYlpGAHsI9dMNmC685ZuD5BA6IFNYJgGuTHdHiAxYEK9bGDEsiC2q9sBNNfhUaFGTGQRPaPbfjRZeBkrguv/B0BIapYM3fbjuQTG7wgbX4c+OGorS4fWw+toNkRFyJpyXvg3ChNzYL45KibQJALoJbhQkCQ5KhWhReJ14m+0Vlko8yRptCSw5LJE8jLT0Vo4ZKCVeneDd+9QKeIVug1NNePl8mzsklujFlSyMOm02743Jqvkxr3oZSwx5GiKv2/ERSIsM48eUIaLsaLIq0lf9hQiLgsnI9QXz6Z6ifwqxagNklwgAz7PHDWDNlgRzoanrBF3PKapbpEbpnXbGgi0BU659sY0kXwbW3RIoYMg15aatNDiw6qwQxqllItL4+SfEik/YeUmPMQR5/9gadW8oNvKADEgUHZZToTFwh3dRgbKhOXVG6oO4AGL7oyIBnXulul0pENoJ2/kOfwm3RYGzJt5Dr9Ft4UB81aew2/TbWHAvJ3n8Dt0Wxgw7+Q5/JxuCwOmyXNYKoctxIDDz3d2w++y/nFDt4UB45luaks07CMgN8+xjwmShSO5g9YHWBesGfbrZIPTvG4LA2YDYsuOMRGsr9T6LLKkmVsl+zQsrD9FdTnJGzITW2WfJRkMRysrSwS6XFylz5gcXFOJ7PqZN3S6tnTBaF/J0vUG4TXzCGEwh7HUFm82b+3RMXKxj6azKKvekwD9FmZZzHn5u6Dbsm7RcPdX7CCXSDLnVqsv96+/rfe45PB3MeJnpHEwplM2d/MXdVvUdepzpD+qLK4Yus3pCRvDo+ebN0aG+7syx8TExMTEhBPudw/6idz0LA0u03sT47oN6ipbN/OOwcNOM2qHowmTu2a6UlzrywFi1udo/Mp1bsZ85LhQM/1I91cSTyK5ZvLoqwXiepXrr2le7Z/RYueXDzy+e7AT2rYLGThk91m3yo1hkDMurtnmuHYEn3FPA5d6ZpEJHLZX+DYmZxmfqp05/ps7zH+vdkO/CoWJ2c6+pbKX4fzQdAXJnHJpi5OjTIXntFyGjH55kheck6wH5Ef8pCbojWvuphUm6S1+vZOcfnnW86YXl70zNMh5wmbRcw04SbaTm2nvCEROvzSFq6YfDa96RU6MLvrNQGdIQV5HcMnql2Wc9w2hBfdHs0VuyPiWT56xx9K4rH5ZnimZPHZd95RBaod5yV9BkrzHa4Hql2SsYivbPXBIu2gkpxjM8KpcoQxVPxegfkmG2N83tT0CfV99dJEdErhsEiZdEr9VgdQ1l65JXr8cBSY2SDUN2/9s3w5acHxNCTaXCmQlkR30O8Hpl2SRFvmsc7PrENN8duamkM8YiOTZkW8zdc76MPov4fTLQeoa+aZZB+fpu9RRc2HJX+zLHFBxO05oUtAvhUFC/5LXYQ2b5E3qONcNQgWxTZQwZrYf4auiXwqSLFfz/g7SJvmNbVFeAa6KtZ9wsLz9ZGkF/VKQ7xD4lkWssn1zBA4w3BdTZXScLK2sXwoSAvmfJExajgxzEXrhqqCusnU/m6ZG9g74H/7gql8KeA1L/p3cEPQO7AsIp4iJ7gu2nSwdgH4ZoFZyD7eDBrnCjMhvCD0ciu1k6QD0ywApoWXeu7EBLSXTdWBPXbadLB2AfhmglvG7dAgPmPqLPUgcXkSmeVLSLwHpWMRj4bTzkuipy1WHMjX9EsArJLDZte7sVNRbaTX9EmBMdpp7BTpHMWVJaGmNgPRLgOlYnJ3KhomyAbxLBaVfAkzH4tKpQBgsdmCry6eWFPXjwXQsLp0KXKoKKYM6yQw1FPXjwXQsLp0KfMJEaE8DGTwzczyK+vFgOhZnp0IPIcbIs02con48qq0kien5p0WTQw/Zp9nzVho6FoEBXsHZqTBecGP65K7bb6OqHw3pWPgnU8JJYSnbVTJ/zpv0ICkCtsNclPWjgQlD/kdIYE3FvkOYTExzDm8kW3w6pqVV9aOB8T/3vGdyoHTGfn0BPKn5vcYXyRxNxwqFsn4sW2AIb9QF47jOY/C3iCs172ecoTd1LC0R/bwt81760UCwxDkQmGwedXzogBwt5fkeJy/RWxxnTCnrx0J2k/nvD4QvOzqjyOQCdWfPrVoPMwuDzpU0Zf1YxqG1L/p16OQM/JJzhqVADzVsRRCdveQ8s/xv30wdlH4spEqmvZNAnyELPG7HnjHHl7bsrk4w48fpGeZfZrneFf1I6MTwrpfGJbK65z4tPJYybeSryzebt7ar+/bL+1e6pB8JzUpJu9eqEbpm6ZGTkts1+cxmu6YfB5NnVbxhOJ8A0wx75lkVFrj+Lie7qB8Hm0mX7+iPk3PMYrVPJl3ypv8hcRWf1jVbZvSPyunHsWVbZ79O4trkcIOxxSx1LuwepAhONC0u5X38ffd74LYJl5RCWf3yrNvN27canbTtqv3o+9x5Zm8DlvTe3LiiflWPa1wjS8zk2fx1kVbKn8vTQ9L6A2Brn6NviplM3uZaJ0TxWdpub5XF9QdDdtZXH93YXm9UzKBINQto/Wowzc573/d+T3Uf+CC0Oc0PfTgwdw/4yEehYCH9EypZ1PVRJjM5SqRpJhfi0c5VuaerhpjKwgrqQSdH+bmNImrL1auNJo6Gcy+EHHlEmLk5pa7P3G+syr5NxuZaWt0Ac1awozKW1XWZM6opYuvqPblpXhf5ybMz6oo+prSgdUjy459QN2SS33pxIwwBPmmo+9viUy+omzLF27q6ZI/hxJudTxOZz3w2EHdbPP05UujnvyDZ5JX8Pc6yrXMNsSvI+CLxNxOUv4nE+JeIMV8WFqpnFtlYb8rPhwIzgVhrYnrvrxC5rwbnbyJxhTzjr30dIVZvMI950qflYqJ+3CZm40WQ+0aQ/rZq9TehYFyKXY5JsvZeXCaTnWYxg7PrWyAY+Nn234aSv4McDjEHPHv1xwaZk0CPLb8Lkt8L2N9E4vtQ9A+QgnQM7bUaQaYH0XMHQyD5w8D9Tfzox1bZP8FK0nkS9yiTTgCjz3r+KUj+LHiHEz+Hwn+BlSS12n26mhwtit8q8UtL8ldd8DeRBbt+jRYlLZfr2icEryn89p/fWKK/7YbDid9Zpf8eLUk+5bTg9k/4NfDrb38A0T92xWH44tYLeFG/LGpIido30MX+yRJ9kb1ojI0uSfVRDsE/w+/5F3RZdYi5XJK3xDOTHcBix1+Za1sHb8iMxFSiiyAMm/6GL807i5pkJq/iS/27JfoPprhy+wp3j6XTDhfBf1rl/wtvGmxMdmZRIzKTHbxkyf6bXjpnXVrCluUmWLau/QdvmncWNTaZm6XqlIUuEN0Cugn+17r2Pwnb4MdyvFzYLTeCDqMPnHETrCo8DM8sauyWm6g47JlFLW1hyB2GntjxbvWrw56GvGwdriJXCg54vkcOPy9hW5XnsArddliF2OHYYQleCrHDjtzUFfUy2U/5Beow9xuCAjgirXoAC5TP+dst7TD3G4J8dg2HplV1j5v+dks7rP66ld0StesrEt2cV1/XFYdlYoQ25wI+Oa/ZI4dDc9anyxOoyj4UN8FqWB3uNrHDscN95nBovjQWRJQmQrAJwgoEEaUJ4BIt6SKAKI1Pmb/punfIR2naoqWYmJiYmBj9/B9p9M1DPYoIKwAAACV0RVh0ZGF0ZTpjcmVhdGUAMjAyMC0xMi0xMVQyMjowNzowMyswMDowMGaHcZUAAAAldEVYdGRhdGU6bW9kaWZ5ADIwMjAtMTItMTFUMjI6MDc6MDMrMDA6MDAX2skpAAAAAElFTkSuQmCC;strokeWidth=102;spacingTop=-3;spacingBottom=-3;spacingLeft=-3;spacingRight=-3;points=[[0,0.5,0],[1,0.5,0],[0.5,1,0],[0.5,0,0]];labelBackgroundColor=none;rounded=0;html=1;whiteSpace=wrap;" parent="105" vertex="1">
          <mxGeometry width="34" height="34" as="geometry" />
        </mxCell>
        <UserObject label="" tags="Background" id="107">
          <mxCell style="vsdxID=94;fillColor=none;gradientColor=none;strokeColor=none;strokeWidth=0;spacingTop=-3;spacingBottom=-3;spacingLeft=-3;spacingRight=-3;points=[[0,0.5,0],[1,0.5,0],[0.5,1,0],[0.5,0,0]];labelBackgroundColor=none;rounded=0;html=1;whiteSpace=wrap;" parent="1" vertex="1">
            <mxGeometry x="320" y="260" width="32" height="32" as="geometry" />
          </mxCell>
        </UserObject>
        <mxCell id="108" style="vsdxID=95;fillColor=none;gradientColor=none;image;aspect=fixed;image=data:image/png,iVBORw0KGgoAAAANSUhEUgAAAPAAAADwCAYAAAA+VemSAAAABGdBTUEAALGPC/xhBQAAACBjSFJNAAB6JgAAgIQAAPoAAACA6AAAdTAAAOpgAAA6mAAAF3CculE8AAAABmJLR0QA/wD/AP+gvaeTAAAACXBIWXMAAA7EAAAOxAGVKw4bAAAAB3RJTUUH5AwPFwYAk6EcEAAAP7FJREFUeNrtvX90HNWZ9/l9brXtdmgZBUQsB2WmeVeRSq6W0la3YjMxm2YNAzmGNSxwYt44r83iTGBxFtgwJ84EBucNszEbcjAT54S8IS9mghezNgMsMMAAr8XCnJhYLStWt9XyeF6UgwcaLBJBN3Hb7rrP/tFtx5alqlv9q7ql+pzDOUDdqrq31E/Vvc99nu8DeHh4eHh4eHh4eHh4eHh4eHh4eHh4eHh4eHh4eHh4eHh4eHh4eHh4eHh4eHh4eHh4eHh4eHh4eHh4eHh4eHh4eHh4eHh4eHh4eHi4C7ndgdlOLBbzvfthpt1H8kJpiraT/5+IcwzxPnz5Me3EifFkMpmtZb8Mwwgwz2uVQrQxyQtJku/UQaLfCSkPHzgweMjt5zfb8QzYBbp6epeBaSUzLgMQBuBXOC0BxvMgerm1JfBmf39/vpJ9isVivvR4djkTVhHzVQDaFU7LAhhg0KtC4NmR/QOJmj/MWY5nwDUiGIz555/z8c1MdAfUjGNaGJgA0TafpPuTyb3pcq5lGH2tecHfAfM6AprL7NcQiB9YdP6CJyv9gvGYGs+Aa0Bnd+/XiOkBAK0VvnSOiR4uxZDD4XBzLi9uB+guAIEK9+sQmDekkoMvV/i6HpPwDLiKdHREWsQ8+hWYr6zyrXLEfNdIcvCnKo11o/cKEG1D5V8oZ8LYpiH3rVqv32cTngGXQCwW86UnJtqQ9wUJciEz+QGABU34JP3uggvOSbz7YaZdMF4B0Fbm7RzAOzQ+9g0rg9FDkW8D2AzAp37dskhoLC7/5JNzJuYFPgoRa38OcPGLT1kJfl/MMQ+nhobGavecZg6eASsQDMb88wOZFRK4hoCrYPflIphgmADmutDdlCRce3A4njr9f8ZiMV/6SOYXIKxzoU/HmHkOEQnLVowxFvSMRubznznv3Ne9dbQ9ngFbsLhnyQqW2joGXwvgHLf744C0JFx6uhF3haK/YvAatzvmgA8ZeBqQPx9N7BtwuzP1imfAU2AYfWGTzB8BdFmNbpkFkAB4DEw5AACxH6BWADpKW6umNBaXJpN7052h6PcIfF8J1zgM4BCBDjNzvtivNkA0AxxGzabhvENI3OPtO5+NZ8CnYRh9rSbkD5nwdQK0at6LGR8T4b9IxrMHk/E3rdp2dEd0DVglGaupsG+syh6wfAAkdkDd2A4R4RETeHbyNPzMZ2UEJPm/DNBqBm4EuKrPC+DjAP2932f+3dDQ0ER179U4eAZcRA9FYyD+RzA+XYv7ETCysKWpx+k6r7M7ugrMm1QNmYFjBMxTaJoGY2PrBU3bnfSpsB2l/XegNs8NjPdIo7/0gkYKiPIv0fh0haI3M/jVWhkvADDQlT6SXeX0vNHhgWcXtTT1gbFZpb2a8fKrfp/ZlUrGH3P6QsnltZtRK+MtDGgRSx7oCkVW1uyedcysNuBYLObr7I4+yOBHqj1lngom6KWc19/fn08l498tesTL2mNl4JHWlgVfKXlayghV/UGdzTwJPNfVHbnHhXvXFbPagN8fz/yEmO9w6/4CPFTO+SOJ+AsErAZQ2nYL0UuLWppuLWe7holccSwRQMz4z12haCnOuRnDrF0D693Rb4L54TIucYKATxj0B4CPEuM4ADDBB6AZhIVgzLE4P61x7vOViFIqLgEecXQSY0xDrrvc+7f3LG3TZH7YJo76OID3AP4ALEDgOUyYC3CAQAsABLhEjzYDTCxvSCX3PVXuc2xEZqUBL+5ZssKU4uUSps1pAv2ThPbQaOKt/VYNg8GY3x/ILgPzWhBW48yMo6xkfMXO++wEvTv6oqOQTabrU8mBivzou0KRlQzswJkx1VkmekSQfHLheQsG7L7y3d1LLj4uxQYirACw0Mn9mcj0+UQkue83v63U82wUZp0B6+FwkE9ovyXCAgen/bvG4tZkcu9zpdyzvWdp2xzzxCoQhcCcENCeKjeLaDId3RFdMIah8CVjYGg0EV9SyfsvXtzbbgpaKQAdoAHzOD978GB8vJRr6aG+/wUkfwLGZ5VPYmT9c8zPzbYtptlnwN2RnWBcr9hcAvKOVGLfT9zutwrK0VaMdalk/DG3+2s7HiN6pxT4EbHyHvPzqUT8arf7XUtmlROrw4gsd2C8f9R85rJGMV4AkIRdSu1O4AW3+6rCSHLgwbnQlgLIqJ3BKxcv7jPc7nctmVUGLIAH1Fpy1u8zL0wODe11u89OOJYJvAzgqE2z/aVObd1gePituMaig4Df27cmkprc4Xafa8msMWDdiF4HwlK7dkwwGXO+1IhrqbGx/hwB79o0e8ftfjolmdybFixWoODNtoYR0nt6Z800etYYMEjeotZQfMPOw1zPMOGPNk3sjaAOSSb3DoHxV4oP4f90u7+1YlYYcEdHpIVBl9q1I6aDo8N7H3W7v2Xyic0g57vdwVJJJeOPEWGPbUPG4lgsVivBAleZFQaszaVVKnu+PmGuc7uvZcPIWR8nFQXMuoWZvqvQTLw/nrnN7b7WgllhwBJ8lV0bJowOD+/7tdt99bAmlRjoZ+bX7Nox0Vq3+1oLZrwBB4MxPwG2EUrENKu8lw0NkX1ADbMbSRY1Z8avE/zNE63Ia7bTRnmct6pcr6AtlV1FgtshOcvAodYLFrzm6TfVDk3yC1LQFptmc1Su1ejMeANG3hcE2K7Vxyp7o1090VB6PLMTBJ0ZABUC2dLjmVRHd+RaKwWL2UAwGPOfc84nugn5BRYUJkAH85kvT+YEC+zRTLxVqkTOgQODh/RQ5DBsFD87e5ZcP7p/n1JwS6Myow3YMPpa85D32saLMj6wa1JQnuCdwJQ5vLpgPAfg826P2Q30UDRWSNrIrDaLSRvE07w0iWLE2CAF0BmKTAjQ8xLmQyUI1x2CnWSvFDt0I/Ij/xzz/kbc11dhxq6Bu0KRlXmSIwTEbBsTbL++R/PaWsAyAb9dN3qvcHvctSIWi/k6Q5Hb9VBkBODdRblaRx5uApoZvIYg9naFIm90dkdXqW//sG0yCAEaCBtzeW24q6d3mdvPrBrMSAPWQ5FvM/CMeq0fOmLfhIJ2TZhINc66oenq6V2WHs/sI2ALUJqqyGQYWE7Mz6THM/v0cDho256Ek2yuNpa0uyvU+1V3nlj1mHEGrBuRH6IQ86y+PCBpF34IMI/ZXga4JhiMNfQ+qxWGYQR0o/cnLOkNoGpSOiHktVfsvsRC4Qs8CT+Ddujd0W/W5GHViBllwF2h6M0gbHR6nkbin2zbSFbJ4Gnxn5OZcW95oCi5S/N3g2gDqu87aX/vw6ylaB2ZXJoYAfPWmbTUmTEGvLhnyQpGCRI5jIMXnBewNeADBwYPMTCkcMVNM+0rXDBeuRvgaM1uaiOWV/Rg95dwZR+IdnX1RGfEPvGMMGDDMAJSim1w/mU4RBpdp7qHS4wt9o0Q9AcyP3D7mVSKju6IXjDeyqx1lSHY6z4zb0Zpgn4Blnh0JsRLzwgDzov5P4BCFUBmyFP/TrRF49wSJwLhrRc0bUeh3Igdd80Eh0kwGPMT4wk4NV7GGAi7iLARjHUn/yHmDQw8AtgaZ7qY22xJKjn4MphWMzBx5v1Z2p0LcPS9GRAv3fCSOoU6RnIvbL6+BLzpnyPX5E5ol4GlX7WW7mS6Qr1fZSiFXebBtLpSwnGq6KHIblhvnfWnEnHbzCwA6OyOPnia7G4O1ttEeQLtYOCXqcRAv921DaMvnCd5GwFrJl03zZBXO9kX7uiItGhzaRVDtjHhEEgMkORnYP/iyWosPl9pfbJa0vAGrBuRRxVKZu7ROHd5pQpN66HeV1QLnxHhvqOZpr8bG+vPqbQvv2+VMeBiEfCXJv3vFAozndPVJ0HAmxB0aynlTtp7lrb52FzJhaitMT6O7ZVQDCmu298A0G7dkjelEoPfL/d+btHQBlz8I70N6y9DWmOxpJJv2eJ990G9auAhMO5zWneoFCphwB0dkRYxF8NnjY8xBqKbAH4FxRkPETaODMfvr+aYSqWo1LkPNr+PXLbpolq9YCtNQ6+B88Q3wy76h2lDpadIhevRjVB3oLSDsC09nnlHN3p/0hWKrOzoiLSc1ahnaZtuRK/Tjcjazu6o47pJlYLm4muY6uVECGpMKRTCGPNMvKZejRcAirHpd9s0a53X9PF1bve1VBraC0fgy6yP482RKq1BU4mBft2Irgaxk9KdrSDawMAGMRfQQ5EcGOliZ1sh8/6TcyJihh6KpEjQDbWuxEeM8HRzMxP8JRASxPRAaji+vZb9KoXWlqaH0kcyG0AITjteSZcBqPuxTEXDfoENwwgAWG7VRhIpqlCWRio58BSYSq9NBPhBCBZ/XFPNJHSW/HSttztIYNqsKhZYDubESGLgl7XsU6n09/fnmWy2/8g+X7xeaVgDNml+FNZfvuyi8wNV1z9OJQeekoxLAfuEiBJpf388U9PIoXma+fPpxkOM5X6ffKiW/SkXH4snbZq0qsRf1yMNa8Bg/nPLw8CrtUqyP5iMv5kXviUEVKzW0RlQbUt4Dg0NTQghV2NS6VIGJkjgpkZLzUsm96Zto+jyvqDb/SyFhl0Dk0ArW+TpE/9pGmgYRoB5XqsUoo1JXkiSTo2bCOMm4d+OZ5rGyvFEHtr/1uFYLHbpe+OZ2wi4D5O2WsqBJWq+T3lg/77XDKPv83mSXxWADsKYPIZfjhwccF0U3jCMgNTmByXjfyDJzSf/PxHnGOJ9+PJjuYnm9Ol/TwKnAApPd02CdFRQrV5oWANmRovVcRIc1UORYQBBEwgUnDIMYjpj84wBCAb8gQx0IzIG4j0M2qNJfsGpYkTxi/+QYfQ9aUL+EIQ1KP8ZH8590mQ3BawKRe+969PlYrDOCgaWE7DMBFohufBnPONvSQAYyGvwBzLoDEUmCHQIkM+D8ClrYRZRsRduLWlYAwajxWoXm1kt0OIMCEGAggSsloK2dIYiQwDt8jH90slWVLHtTR3dkfuFxHfKMORxhry2Ufcoy2Hx4t521mgtM1abkO2A86CFQj44RwGK2qkqMXNDapo17hpYkGoQRckQECbwfSbJd7pC0V8ZRl/YyfkHh+OpVDJ+k8bic1RIc7QXJQeyDDwDolv8PvPzJUjNNDQdRmR5ZyjytBT0r8y4G7aRVJWBFFRZ6pGG/AIXNJjwxRre0sfgNSbx6s5QZJuPxT0lfJHvB3B/OBxuzp0QS5lIJ/xp/QamMQ3it8nk3qEajqtuWLy4t11q9EMH1SM90GChlLFYzPf+eObvGbjVzX4wMCHAt4wkBl1Zm1pRyWSGWtEZitxOwGY41NSqJAxmAv04lYj/tdvPwwkNY8CF+GN+rqZJ5TYQ6HHBR2+tVJJEJWgkAzaMvlZT8KNgrptACgZ+4+Pcinr6m1rREGvgrp5oKE9ypJ6MFwAK0+r5uw2jr+rr8ZlGUSjgjdOMty6cSAR8MS/87/T0LLXNL68H6n4N3NEd0VnKXxOoHDd/IeaYMAZwGkwFry6xHxDtDG5XV7CcDEdN4t0zQdg9HA43/9HUWgVTK5O8EEwtAji0sKXp5UoGxXQYkeWCsRPq2VxTMQ7gEIEOnfIgCwSI0cqMNhDaUOLvmxjNx5E/GAotXZao81KzdT2F7uiO6BrzXi7NeA+BsUsCLxxMxm0jpLp6oiEpeYUArmebGOupYGBoUUtTn9slVpxOobt6oiEwrwTjKgaWYeoffUISbqjEC6ogkK8NQ0FBZRJ5gPsJYgdJ+brdHn0sFvN98PuPvixNugZE15RwPwA4Pk/Tun/7298cLHfc1aJuDbj4h04BcBYhQ9hFRN8vJ4PHMPrCJuTtTvdvCbhqJBGvevy1FaoG3NkdXQXmTQSEFS99OJdt+ny5e9JdRu9tTKRUh6pIjoke1kz501JLsQAFLWuW2AzQlx2emmltafpMf3997sXX7Rr4qCl2wYnxEvaQ4ItTw/Gy0++Syb1DqWT8JhJ8iaISJQCAay38VhrndYYi+4j5GQfGCwBtn1rw0ZfKvbnDZ9QvCUtGhwfuLMd4AWBk/+CeVGIwJoS8jAEnM4mm9HhmX7njrhZ1acBdRuR/I6YVKm2ZWRJofWo4fvHI/kGVQAllRvYP7lnU0tTHZFsJr9AXorJ+ZDWix6HhnkJKUdJ5p6P4jPJE2JhKxC+ttF/hwP59ry1qaeomEn/LSuJ3AABdNyJ1mS9cdwash8NBSfh7xea/Fxq+VM3c1P7+/vzo8MCdYKyDlaeUMeaTR20LTzcyTI6rIZyFKXxPnaUieSZZMF9VTaWP/v7+/Mjw3h8Iov8ZILWpMeE/6t2R/1itPpVK3a2Bu0K9r7CaYNzv8sK3/ND+t1RkXitChxFZLohvA+ganB50wBgjjW9UnQEEgzH//EBmBQM6gQ+fzKDRTpwYL3f/UWENXBIMTMz3mRdVIpWwKJi3DWd7oVMk+KZKz6SsKDov31DbhaDf57KBC+spNr2uDLinJ9p5TMoROll4dxoYmPCx6HJLDrQo+raWgHaABo5mA9tV/6iFlwCewPRe0SyABIOe9zG94DS0skoGfFgyblTx5qtiGEZAYt5aJgqCkSfioYUtC55yw4vf1RMNseQ4gLl2bYnEfSPDe++pdR+n7Y/bHTgdPdT7G4D6bHpsMstljRjkX1Sz/Fc4yxU+zMBLxLwrlRy0FTuvgAHnCBhg8GECTTDRkF/LP9loSfxO6QpFVkrgObK3iRMaiz+rFy3pugnkWLy4z5CQffYteX0jGi8ASCHXgh0n+rcRsB5E6ztDkSFi3qhiyCWwh4k2++TR1xoljLCSjCTiL3Qsjv6QBP+NTdM5JskHUBCkd526cWJJIW3rCRHwm9Tw4Da3+1oqLLms8DwCwiB6SQ9FduuhaKwifQImwHR9KhG/eHR44NnZaLwn+exnAveyWumcr7XXSahl3RgwgL+0OsgAQ9DNbneyHMjZ/qMVMYB366HIc1PpSzsgxYSLa13+pV7p7+/Pz9Gg9BvTZL4utKTrwoAXL774iwDOsWxE/HKt9ZErzQltzrOobND+VWIO9naGlpyW5EHzFM8dF5KvbvT47UqT+G38nxkYsWsnCDe63VegTgxYimN32rXxSe0mt/tZLof2v3V4ymp65UAIEsQbXaFo8cvBFyidx7ym3OimmYpPg23VQmYsrYdpdF14ofVQ5HcA/syil++mhuMXut3PStHes7StOAULEaG5Ehk0AMDAI0S4AYxzbVq+mkoMXu72c6hn9FDkjwDmW7Vh4I7RRNxV0b968UJbvsmY8azbHawkxeCTs/7wwWDM/6kFH33JlGI1AVfaPZfJELDeTrwNACRTw1bjqx38L3YVKAm4Bi6rdrpuwMaSpYvNE3nLqfwc8MNu97MWFINBXiv+A93ovYKJNpcauzwlhBMHE5ULyJipkBA7WLJdRGBNBPescN2AzfyJL1rO5BnHE8nBqidVF8IbP15VkKulsaPZptfcDpkr7ve+3Nnd+zVi2oQK/GCY+Q9ujqlRWHhe4LH0eOYRm2aur4Hdd2JJ6rQ6TISq/+C6enqX+QOZdxi0g4m2MvC8/5zMSEd3pC7SA0eHB7drnFsCwq5yryVAx8q9RiwW83V2R1d1hiK3L+5ZsqLWxddqQX9/f/6UcosFbtdUqocHv8jq4Oke22Aw5p/XlL0CjBATP1U5hQh6DphU6YEQFIydsVhsidsqGwBQDLC4QQ/13gvQplKvw8RmOf3oMCLL0+OZnVRMRJBSID2eSejh8NWpoaExt5+TUwzDCOTF/BVCyjYpxOFF5wdeOPn3JuI/so1SJknRCsC1cbtuwCT4QmYrZzh/GA6Hm4+Z2jeZM3eACz8cYtzd1R3ZtPD8ph+XY2A50/dVgKcLhgh98PuPvozimrQeSCUGv9/Z3XuImB4v6QJMH5d67/aepW1C5qfSsgohr70Yi8W6q/WyM4y+VkkyIoF2AjeDKQgAJHBYMsY1IROfOe/c153cv8OILDcJTxNzCxOBmJEezxzuDEUeOJZt+jnTxx+D6TzLx2kKV3dHXDdgKWkBWS6BxeeO5untKdK9/MzY/N54ZrVh9N1UsiA6y1arNXgxib1uDBgoTKn1UG97iV/i35d6X5/MfxXTC9Hp6fHscgD9lRqnYfSF84LXEvOVJqQOnPxL/SnlgLnwr8WZQGrx4t6rVfa3w+Fw89E8nsPZv6s2ArbMC2Q2gcn2ZUBUqhhiZXB9DUyEDyyPgz9nlatJQNgkubfDiDgWolOD67LoVSox+P1KrIkdPQkbORwGypbcicViPt2IXtcZiuwzSe4j5jugLsOjS0EvqqzJc3ntZpvfVTMA2zBVEuZYuWMuB9cNmJkPVOAyPk2U/+OZCiJyfZYyHZrM3QSgZtFUAmS9HgSX5bVf3LNkRXo8sw/Eu8rYOmt/78PsSttWzMGyHwhj/I8fn/svZV+nDFw3YEGiMpKdjJLipBk0YX28foXqkslklok31ep+0m42wqUVCAuHw826EXlUSvEqUH4xcyGl7fYOCSpbyYU0+bdubzW6bsDMshKSOIcWtjSVlCNLzNaebK5gEEUVGB0e3O5EObMciCsYw12kq6d3WS6vDYOwrkKXzEshbH9TJ8i3HQX1k5IxWeyu9PNwiusGnNfmJMu8xGFJuLpU76fC/dsXL+51PeLGCmLe6HYfAIAdOnR0I7KWJb2BigZE8H3HMgHbl/mh/W8dZqI1pSeWsPzs+U1jlet3abhuwJo0f1jCaWkwbyXQer/P7C5nP7gYl2wpj2IK8VW3n5MVxYitWoj7WT4nIvWKFp2hyO0gbENld0Lu8vvkQ6rT2tHhgWdN4esmwn3ODZlEejzzjNtBLK4asN4d+T8IrC5Nwhgj0PpctumiVHLwWyOJgV9WRKuJ8ZLVYQJvcPsPZT8E6zFU5B6Crf0MjKtUCr11dvd+jYAtlewbMW9obWl6yOnv4dD+tw6PDMfvme8zL2LgDsDROv6K98c//q+VHIdTXPtRhkJ9f5Fn+SPlE5i3ajj23WSi8pIvRPwSg9ZZNGl9/8PMt1Eo0l11TkacEXM7mBMqGliakDukFOur2S+T5rzuY8uVij8v+DsAps3v7gwtiRKTXYzxZMYBfpWIhlgiDXAaEAGAA0zUJiAPjSQHn7TNwregaPgPdXREtot5+JlqoXEGfb3T6E2MJgf/rwo9Zke4kg9crHv0DhTUGZlgaiSuOLB/b9WCKYLBmN8fyLwDi30/BibIZy6pdrigYfSFTZLP4cx14SEh+StWAQrFMWRg/1Iuqz6wHor8K6yTKvIk+JKptJ0NwwiY5N8H9aSMfjBvbr1gwWu1DmftMqKrmXg7FGapDLAArnajLpYrU+jcCe0foSatKjWzusYLFNP4GJZfBQKakfftrOZUWg+Hg3mSu3G2U6ddCnra6t7FMdivg4n9tm2secbmuI8l/WqqqbRJ/nuhZrzjRaG9S1PJwYqWNlVlJDmwQzIpqcAQQBLYWaY+WUnU3IA7upZcBoLtF4BBJjNde+BAdY33JBrEQwBsnB8cTX+YeaIaRmwYfa3Iay9aRAeF0keyq6yuQWRvwMT24uWW5wt6TKFZu0nyldN/0EVP/h0K56aE5LoQ2juYHPgHEN8EwLaGEgHzxTz6Va37WHMDFpqwHyRDguVVo8mB/7dW/SoIdfNmhb5dn/4w+5xhGBULsewwIstNyF/DLlSRrGVpmWArNs6kLHo3JUVhwX6FpiExF/tOhriyEPfCfnqfzgvf5fWk1ZUaHtwmJP8npcbMV4a+EPlLpbYVoqYG3GVEb4NCVXYC/mY0OVh1r+pkctkF90NlO4b5SpP8+7p6epeVc7/2nqVtnaHILwRhNwhBu/aakHZe4DG7axCj3Ck0AGVJnjZB2K2Hep9g8GqF695Yy1pXqhw4MLgdkErbnaaJfwgGYxV4xmrU1ICZ8J/tG+G/jSSrV5nOirGx/pxk3Ag16dd2lvRr3Yg8ahh9YdV7BIMxf2d3dJUe6n3CJ/NvE7AearsBabu4W5XpLYM/Kfc5pRID/SBSfcH6AFptN0YGHkklBvrL7Vu1SCX2/Q0BtlJEDCz8VCDzV7XqV8280B09fSuElK/ajP6YhlyL29UB9FDk2wAecHhaAozniXjIZPp3Mcc8DADyhNamEV/IoCiIQmCOAY6/gnnJuFSluFhnKPIRAQssmpTlhT71jMLhIPLaMJzVeZp2fBqLz9VLvaHpMIxYwET2iK0jkPFuKlkbFdWafYFJyk12bVjQ37ptvACQSsR/rFrU+zRCIGxk0A5BeAN57W3ktbcF4Q0G7QBwF5ivhHPjBYFuUa0MSOCxmjyjoaExJqpIfSAC7ah34wWAZLI/CyH/WmFAnzW+ECn7JalCTQw4Fov5iHCx5ZgJfxgdHnBlM3wqRocH7iTAdTVMBu5wVsCcSk7Yd8ro8MCzrOZZtu6xMLfVqs/lkhoe3Arg3+3amSarBymVQU0M+P0jmb8CQ7NqQ8x/X4u+OGEkEb8VILcqIebrQTjcjtFE/KGiEZe6V5v9zHnnvu72OJwggPsUmi2phTOrNlNowddaNyDzMy0LVB5KTSlsFXHZ+aklkCXgmno33pOMJuIPgfkqwH4b6yyI3qwH0UBHXebc4wBs1D1JzGv649XV7ktNDJhZ9No8kb31+EfMi3mrUMKatUz64TO73QjLK4dUcvBlv8/sQsH5p5zkTuCGq/WcTCazzPT/2I8t/79Wuy+1MWDwp22a7KxFP5xCELUs4pwG0S2tLU2XN6I8K1BICEgl4n/t95mLitNq2z1dlrWTBKokBLaPEGSKKlyqLKpuwHooGiOb7Sp5DP9Q7X6UBHOVhPLO4DARNmqc+3xqeODn9TgTccrQ0NBEcfpva5xCq4giS82RAm/Zt+Lzq52GWnUDZsg+y+OEowcPxkvSUqomxWB8yz1OEnwxE68BeIfDhPAsgR5nomtaW5ouGhmO318P22duIKVWltC8WxwcjqcY+Mi6FdEHf/hDdzX7Uf18YKYOq++vYBypeh9K6baWNyCt32/zhEwNDQ3tAbAdALp6oiE20QniYCFXVTST5GYAAGGcmMck8VuLWs4dOvmlHXV7oC5D4HPKv4o7CGCYYa1Cwvl5EQD7qtWHqhswCZxvVfJSovq1j0pBmqLNLk5tsvpDMdDfVh1z9hgtp+2C/Yqqnw3lsPtT3zlnNz5JeTv/T1lU34nFsBwA1akBq6AiHzO7UZFu5ao7eqoGK4yPqaOaXaj+GpjxKZvjtrmW9YrUzKDbfahnCKQgNkhX1TJ7p6LjE7AdH1F1K3tU3YAFWYuEEfEHqteqLWTvVGKyrwAwi5Ewf6vQLOA/J1PXqp/TMTIcv5+YLaW4GFTV33f1v8ACln9E4hKid2oAadI23pUl1tS7WqWbjCb2DUBF5ZFwd8M+R4Jl8XkNUuUlVjLVXwOb1j4bJvsEfzc4+vGCIdjF9xKC6SOZr7nd13qGoJQ33F5U/Ww4GPTnVscltP9ezftX3YDJZgrNoLqsPVQQB6ch+wFis+fMmh6pWEGRGfeVq3DiBna1s0iUVi9KlepPoX2mZekSAvR6nT4x2SswAGg1ST5dr2Nwm0XnB16AWtUIH0t6uqM7Upcv9Klo71naZlWiFEB+4XmBkquGqFB1Ay7G9Vo5hPzvHsnU5ZvXJ5UUGAFg2fvjmd1uyIrWO/39/XkibFVs3ioYu/VwOOh2v1XQ+MSXbZqkqh0aW5OvBgFDVhErAlgJBb0hJ4TD4ebjx0WLFKKNSV4IphZRrGKo+lCTyb1DeijSDyBm15aBZWIu3ujoiFxSj6GhbnI00/SQP5DZALUiZgHktUdjsdjlTn/8sVjM9/545goGRwHKgmlMgt8Xc8zD1UgQIcZVlsdVlmBlUhMDZvCrAE0fcka4HsB3S71+LBbzpcezy8F8BROuJEDP5eEvzC8YxFTsB5Aez6Q6uiPXqhZEI+ABVjDg4rNsF3P5CQCX1+K5NgpjY/25zu7ejcT0uG1jxgYQthVnZcov9c7Qkmj6SGZnQd2zGB1FXPgJ5DXooQgApAFOMOh5U/ieKkcBs7B3nbE0YGZ+VfV6pVKrdEK7ULl23ei9wsk1Y7GYryvU+1U91PvEe+OZIwDvBmFjsbK7VWCALiReVA0eGEnEX1BRIyziA2h5Izpjqs3o8OB2JSVLot8V6yDZTU9PEQ6HmwniaQVp3laALiNgi0/m3+kKRd7oDEVub+9Z6ri8qb8puxY2yS7yRPVDRGtiwMX9QOv9XqINKteKxWI+3YisTY9nRgpicbTaxpEwxb0Q/NSCj76k2vyE8N3oINvIzyy+UMnnN1OQx/jrKDi0LINkiGiPcKDucdQUK1FCjWEGlheN+W3d6P1JOBxuVj+Z7X6ve2qxlKqlLrTd9OkqPRSNTXfwdMMt1pUtq+i2lCKs2vbQ/rcOgyyrF54JVzd8rlE5eDA+ToJvgIViR9FfETSP87Oq1yWIcp+3D0Qbjua1t7uM3tvsdhR0I7IWgKXUEjHbLxcqQO0M2Gf+VKHVlEp+Hd0RPT2e2VcJwz0JEzuKABsdHniWCBuL/2ktGcM0Vok+zkRG9g/ukYxrp5vRCJAuwQEnX6/U8MDPS5ABPgsCmploa3o8M3yyJMxkgsGYH2QrapcVOKa6g1EWNTPgohfweetWHC2Kqp9CN6LXCcZe2LzxnMDAxHxNOl6fjAzH7wdjHQoOq+mMOK3hqG0939nMwWT8TQGsmcqImXGNEHSP02uODg/cWQkjLqILwu7O7t6zouz853z8I9hN15m31UqgoaalVSQrFcjebBh94Vgs5tNDkR+BeBcqo/5/knFmXO20kvtJUsn4YwRcg6mDE9KScOlsVddwwkgi/sJ8n3kRETaCsQ3MWwm8Opdt6ivmVTtmdHjgztNmSeXiI6bHO0PR7538H12hyEoFX01OMGqmJlrzAt96d2SnffVz/ncAvwPoL8q4VRYFR8hhAh0GOMtEQ5o8ur1SBtbV07uMJV0HZj9AA7lPmp4shGC6hx6K7Ib1tte0pVVisZgvPTHRdqocDJNfAv92/JOmAbfH5YSuUPRmZl4OgQAYbcCpf0qCgUc0TWyRptwD+4/JA6lE3L56Q4WouQEvXtzbLgWNoCp70DQAyOcZ/ELR8z3rcGrAHR2RFprHV4DpegKmLP3CwJAm+YZ6KvvpFMMwAnkxb5XVOG3I2Z3DwMR8n3lRqbO7Uqi5AQOAHuq9F6BNFbpcHswP57U599djacpao2rAhRcpfgDQ9VB4mTIwtKilqW8mqGYahhGQmLdWEt3neAvSCsa6VDJeE+fVSWpe4BsAWlsW/B2APWVeJg/GNiG5K5Uc/JZnvGoQ4NNDkR9JQcMqZT9POy/8we8/Ug6uqGeSyWR2JDn40/k+8yIwb0XpZWH+BGFXrY0XcMmA+/v78/CZN8JmQ9+CNECXp5Lxmxp5WucGDHwRwF0ooeKEKbUZFWE2NDQ0kUoOfosELUEpZWH+xGG/Zn7DjTG4YsBAcVuJ+Xo4f/vt0Vgsqedi0HXO3FJPJMgZmTI5sn8gobFYAgVF0SnIaixK3tUoF1f/IKnk4Mu6EVlfDNBQgHe0tiz4+kxYh00mGIz55wcyKxgcJaIcmMcY4n348mO5ieZ0PXiByb1KjVUnmdybNgzjYpPmPQ3QZYqn5YWQ1yT3x4fc6rfrb1TB/C8mEduVXwFjX+sFM9N4O0NLosSZnYxCJg0zUHgcDOQ1+AMZ6KHIIQDPSMazn72gaY8Lz+Gw4FxDlQF1SjKZzBqGca1J/l9DIXCIQDsO7N9nXyOpirjihT4dPRTdq6ANfNzvMxe6NU2pJh0dkRYxF/vgbJ9ynIBdgsX3J1e2V/BCl0KaBF87sn+wXMdjQ9DRHdEFYwCAXdUI13+Xrq2BgUIghJKwt8BfzUTjBQCax1fAeZBBCwO3mCTf1o3IDx1l0diTK6RP8g4CHibmDX6f2TVbjBco1D0C01qFpnNzps9VSVxXp9AS4g6yqruCwv7j6P7au+drRSGThks93Q/CxqN57ZauUPSukcTAL8voyh4m2uyTR1/zQkGBVHLgqU4j8iwRVlm1I+b/HcDP3eqnq1PorlBvlkHTTlMY4HmCuvbvH5jR5YQ6u6MPEvMd5V6HgIcB7mKoJ8MzMEFM61PJgafcfg71hmH0hU2StoXJ5HFc4JaMkmtT6E7ji/+TlfEWOsevzXTjBSqXScPALSA4ERNIMeFiz3inJpncO4Ri5UkrtLm8wq0+umbARKatAodgrWZB4W5TqUwaZmpWbDouJF+tqg02W5H2ub+QQlzrVv9cm0J3dkcmiHGuRdfeTyUGZp1g+umZNMRolUCoovG6J2G+MpUc9PKWFegKRd5jWFQQIbybGo5f6EbfXHFiBYMxP3HmXKs2BH7ajb65TdERdcoZFYvFfO8eySwjQdeBeV1ljJlf9YxXHQm8QMDN0x1npoVu9c2VL7CxZMli84SwrNggCV2NOL0rpK3NX0HM7QSknOhQ21+7rzVP8geEU6ogJSEZlxxMxiuqwz2T6TAiywXhDas2GotFk/fka4Era2AzT5dYHSdCvhGNtzO0JGqSf4SYn0FBT/r59PjHL5YiWzoVyeTe9Ggi/g2ALnegknkmhBOe8Trjsxc07UExPm46jtOJbjf65pYTyzJMjRlHXOpXyRhGXytBvIgzgzJyAOlzZP6JStZOSiUG+plwMUrIoGHmP7j9rBqNwgxKWMaizwF9zo2+uWLADGGpLFmvNYOnIxaL+UwyfwVgcm2kLIA2Bpa/92G2osXADw7HUyTocjhMyRSgY+4+rUaFP7I6Kll83o1eufMFlnye1WEmfKR6qXrg/SMff3OaDJZTBi2krMg0+nRG9g8kwFASxD8Jg2ZcMkiNOGp1kAjnql6okrjihRbAXKsFBYMrpq4Ri8V86SMfrwBhmRD8ZqWzR8LhcPPRPN1n6w2k6tSJTSXjj+mhyPWAdaGtP/WDPynlPqc758AYF5o8fBxzR+tJCSUYjPnnNWWvIMnNAKcr6WlnwnGy+NEy+NNujNmdWGjCuyjUMJrmMCqistHV07ssPZ75FYjaAUBKQmcoMkSMLZVSkDxq+u4lcLNNs7x5nKqWdqaxuMckqWTAJJ2vgbt6epeZJj1BzMHCRQApBXzIQw9FDjPwEoG2uymy0NUTDbHMvAhGW2FvhaCHIilJUC5kZ/ncmP9gtWnDoA/cGLdLTizxz1ZHGVT2dFM3otexpFcwqZIDAWEQtvkD2TdKvPQpwuFwMzGvt2/J/dWMlS2G/D2v0paJTKdjZEk7LQqHtRGwHuDdeigy3NkdXeXk+pUgFov5WPJunJ3VpQvG7umqLDiDMpZHWVS9EuFUuOPEYuspMlF5wQqdocjt9oLwHHVaEXEyR/OabYU6AHnJ9P1y7qMCgZ6pxnWL6XKqL9QQMT+jhyIlFekOBmP+zu7oKj3Ue69uRK8zDENJ0D89nl2Osx2IJ2kVhN26Eb2unOdAwHzrBpxRvFRFcecLTPjQ8jij5DdmZyhyOwFbFDtSbqjmOvsmfF8t9l3Zl1ecorOjvzkxh0voTgx5zdHXWA9FY/5A5p3CHjptAvEuk/z7Orojuv2QpJ1x+kC8oxwjZoslX+EO+bFSr10Orhiw35cfsmnSqvSHm4RuRK9TN14Ua9GWRnvP0jay+6MCh3PZBSrlZMqmWHvK3ndAzkTtmJ2rVxYJEPMznaHI7XYNw+FwMxdCZyd/RdsFwzaklojsfDl5FIz48VKm04bRF4b1TCuXm2h2ZevTFQMeGhqaYGDIqg0xHE1vO0NLoiDe4eCUQ60tgZK/jHPMEypfly01FqOz9QiTJEcGSeCyhOwI2GJnxEfz2lqLGG99cc8Sm3Q9W7G9kwbuJ8JzTqf3puClNk2G3BIddE9Sh6jf8jBwi+qlDMMIEIudUPeqZwH6RjkxygyylwLymTXNsy3UgLLpN7GjL7B5gp4sOWzzVL+wpVhTd7rjlmtsKcnyqznPl38KCi+v4r2akdccRcYR8xqbJq6FprqpidVvc1zvCkWUopdMmvcLCy/pZNIk+PJytzyYbKbPjLHitLZ2EKvoGjsy4IMH4+PEvLpcIwZha1dPdJoQWraMJiO23kMvzOjktVCPSluWPpL5gUrDju6IzrD2yTDR7DNgnzz6mt2PgoG77d6UhekVrVa8bUpIvqQSAm1kJztKGKvsE7NnZDh+PxcqO1rheKqXSg6+7GPRRaD1YN4Kwi4USuM4CeMMsOSpv3w8rQe5eJhs7zOa2DfAkJdCNT6ccJeKn0VIvs3uec7X8q7J7bpmwMlkMguibTbNlhXCFKcmFov5pBRbVO7HwJDGub4KlmJxXVN7KoSNI4sIJSUzJJN70yOJgV+mkoPfSg3Hb0gl4hfnsk0XMPEaEL2keJlQ+kjmrKLZTNZTZBastNQZTewbKFZYUJlO+wToQasGHd0RHUTWSznGjlkrK0ta/iHYlFZhos3TOR3SH2ZvhoIAN4CUj8VXZoPaIoMs096YnQVyWDE21p8bHR7cnhoe+AqYrgcUwkUJm4PB2ClHmmH0he28+T6pJW2vWySZ3JuWhMuh8iVmvtIqFkAw/wR2L2oiVxVTXTXg1NDQGAjP2DQLIK+92NEROXuaxXyXwm1yGosbXUi2rnjyQj2TSg48JSSrpDi2zgtkvgmczOKSP7Npn//kk3MchUIWdJ15nVJjwpS/oc5Q9HsKJVZSbtfoctWAAUAC98B+XaZrc/H06ZE5RQdXu815YGBjMdSw1rRXWHC97jlwYPCQxuIrsFkbE2hNMcnkQQB2FQ/fLGWLJpUcfFlN6ZMum+xc6wpFVhJ4k+2ZCm2qjesGXAg058127RhYLsn/omH0tQIAE6mk0R1a1NL0U7fGljvhc01u1C0KL0t+wLoVR9Pj2f8PKn9DVi18dzbztfz3lbznpzmqukKRlQzsgM3UmYA3RxKDT1b26TnHdQMGCgW/7QI7gIIRmyTf6O5ecjGYbSvIMdFdVSwCZusMY+Irq3Tvusbvkw/ZGw5frHCpbO6TppKNpOhc2mTXjoHrAUA3ImsZeAYK8e0QdGsln1mp1IUB9/f3530sboLatkT7CRavw94LnF50fuCF6vXaPkKJgNWqAfkziaGhoQkBUsqOsoJBm8uNcOLj2A77JVpLp9H7T8Uytyq7C1tG9g+UUku44tSFAQPFqRfTOqgV/J5j24KxrZolOImVom8CefLfrNBuxsHM5abXpY5lAz8utx+FNE5+xq4dEX1FcWSvtrY0fbcSz6gS1I0BAwVPJgMqnmV7iKqqe3xCm/OsUjeAjbPNmVUYeOmJIgDyAN1asfhiVt6ntuOQ3ydvqKca1XVlwAAwmog/BIatU8uGbDmJCioUpWT6FZq25k5oDyq0m1EIKUuW2mHidZXcntEgKvEyT0vC1fVW5rbuDBgAUsn4d4sRMCW+6ShVi7ckAQ8oNlxnFcw/E5FClLQPzsAdo8ODtgXFnFCMAShHEeWQJFxaj1rldWnAAJAaHvg5mK+CQ9nUArIkdYRwONzcFYrerIci39aN3itOjxiaipFE/AWofYVBAo90hXpdLQZdS5iko1pBDEww0TWjifhDVepSSSG0hRBccUk9Gi9QxwYMFDbjheQlKATOK0Mgx7K0HUZkeS6vDTP4EQAPgOglfyCz1y7gXRJuhUKCADN8DNrRFYr8zO7FMBMgaRvFdAoGnjGFr3t0eEDJr1ASDOcGyNjm49wlbpRMUaWuDRgoRPe0tjRdwsAdKOlrbE9HR6RFEHbi7PDHkGDs7urpnTZa6OBwPMVQLwvKwC3+QGZY745+c8rw0CKF2UBkpW5E1lrdvx4JBmN+kK3M7XEwtpGg7tFE/Np6kqcFcJiAq1LJ+E31Hj9flxk1kymuZx/Sw+FnkfftBNgymZ5VtplOg+bia5i+fGQrS3pDNyIPyBP48VTqkqOJ+EOd3ZHlxIWAAAXawfywmIutnaFIgsApMBW+4oQWAO25PPTif4MlQQ9FByTx1+t1Knc6xVhnyxRBIfA/Htgff6tWfSKBlHV1IwDACSb66Xwt//16c1ZNOy63O1AKnUbkLSJ80WJU/3dqOP415et1Rx8k5jsUmuYB7gdo6GQSOpNoFsxRu6TvCpG2c6boochuADGLa/SnEvFLq9VBPRwOcl7bZ1MG9XAqEa95LSHd6D0IIqsSKA+kEvGGKirfEF/gyTDwC4KFAbPCu/Y0BDiteIKvmKFy2cl3HzHD0c3Ko1UwfgagagZYDoZhBPJ57Wm7GsZMtMuVDpJ4D+BpDViQ/G+u9KsM6n4NPHWn+R3rFuSoTo2Q4rGyJWNqR8xe5K32GEZfq0nzdxPQahPXnvNJqolS51kw/5nVYanxiCv9KoOGNGAmttSVZoe5uMnk3jQxrUfJ+841Hr9JjiV3q0mHEVlukhwu+iZaAWwrJvif5QAiwgNueHWLjjVLHXC3pGHLoSENmHxsuSlPQNjKwzsVqeTAU5JxaTW+xAzIyj6A6hRKK4WiB/8JnOa0ImALE7eBebJTLz1PM8uOby6FTy346EvA9BrXDEy4JQ1bDg1pwEW1R2sjnseOy6YcTMbf1CT3qaQ2KkPYNQfoYOARVOYLnxJ8rIpZVg6HV/DgnzXjKRgx6QBOZu3kAbrRLe+uKYWl8CFV8m9eQxrSgAGAYB2gLliUlIt74MDgoUUtTX1E2Fjm1zgB5itTw/EbEon4v40m4t8QkruKKhGl7S0yxkjQDfW0N2ml6VyskhEs/Dvd4qb8DAGWv4diHnDD0bAGLElaGrAEX1VqFlB/f39+ZDh+/3yfeRGIbqGCcLfK1zMH4Hkmuqa1pWnJ5Pq0Bw4MHhodHrhT49wiAq0H+FVYR3HlCXgTzFuJeUPuk6aueslDPQWTXZRcAIzNI4mBX7rVxWKNJku/iCa5bmY1TmjIfWCguPaaiyPWrXhTKjFYkcqA4XC4OXdCLGUincDNYLSAKAdwlhjjTCKZywb2OF1HBYMx/9xzMlEN/AUuBHGAQRPEdFie4NedliXVQ73/AtBfWDT551QiXlZVxsn99wcyRzC1ikUejPWpZNw15cZYLOZLj2dGYK2flkgl4t1u9bEcGtaAAUAPRX4NC1E0Bibm+8yLGiWqphJ0hiK/JaBnuuME/seRxGBZpTYnU9SR2oYzo6/SJPjaSojol9e36M3F+PZpIcJ9I8Pxe9zsZ6k07BQaAIriY9NCQHPuhPYdt/tZS8imdAqz+FSl7zmSiL+gsegm5g1g3srAHX6f2eW28RpGXyuD77NplieTXdV2LoeG/gIXp29vA9b7e2C+cvJ6dKaiG5E0CAunbUD0emp4IOZ2P6tNcer8Bmxkawl4eCQRrwuBulJo6C/w2Fh/jqGg3kH0eHvP0lkhtE6ET1sdZ+ZPq16rkXlvPPMz2GtOZwWLivhI3KKhDRgAjmWbfg77agAtPpnfeVJTeqayeHFvO9tMoQn4D05KazYiXd2RHxCw3r4luxIVVkka3oDHxvpzINqk0HSZSXK30+LOjQRrpOKcCqTHs7XInKo5wWDMr4d6n2DG3QrN036frJb6R81oeAMGCvI7ihvxOvLarw2jL+x2n6sC2ybRF9s5j1Krd9p7lrbND2ReUSw162pUWCWZEQYMAPN95k1gpZq8rSbJvZ3d0QdnktxrweOqmJNMuMbt/laKYDDm7wxFv+eT+X9VHz9tcLsoWaVoaC/0ZDpDS6IE8QYsgtYnkSbQ3Uezge2NGMh+5tgjtxdDF5WQhK5GUPeYjmAw5vefk/kqCHdDocjdSRh4ZDQR/4bb/a8UM8qAAbWN+ynIMrCDQNsb8c0cDoebc3ltBHbbaafD2JZKxm9yu+9OiMVivg9+/9GXpSnWgHA97GsYnQEBby5sabq0noTZy2XGGTAA6N3Rb4J5K0pTHMkxkCJwCqABhnx9NLHPtg6Sq+MN9d4LKDnyTicvJHcdODBYktxqtYnFYr53j2SWEdGXiTgMhg5AR4kqMgw84+Pc1+spEaQSzEgDBgDdiF4H4m1w+Jaehj0ai2vrccuhoIQh34b6suFP1OlXuKM7ogvG0wAqI1zA2Nx6QdM9M+nLe5IZa8BAQSmCCM/ZaTQpktI411dvb3A91PuEoud1SkjwxW6HPJ5Oe8/SNp/M74WT5cD05Al0i5uZUNVmxnihp+JgMv4m+cwloIoUt9JN8j9RT0EQnaHo98oxXgBgk55wql5SLQzDCPik+TQqYrw0IBmXzmTjBWa4AQMF9Y7U8MBXihpN5YqHX/Xeh9kfuT0moJABROBNKo/A8ighKOay6y+mWCzmM4X/UTvNbwXGCbS+tSVw8cFkvKoF7uoBze0O1IrxI++OLLzgvF8wfAKEKEp0hhCw7PyFFzZ/+MG7riVHdPVEQ8x4CTbrXgaGNCHuYOb/ZDOq//DJ0eNi/IP3drsxnlgs5kt/mHkC6sL4U5Fjoq3zfeZ1if2Dvx4bG6usDlmdMqPXwNNhGEZA0vyvAryuZEF25q2tFyy4s9aOEd3ovQIFXWV751wxC0sP9b5S1LO2o+bC5oZhBEzhf7QM4+0n0OOCjz5Zb/6JWjArDfh0Fi/ubWeN1jJjOYAQbEqCnAm/Ko/TjU5VM0pFD0W+jUL2le3sgYm2jA4P3Amc8lTvg8rakrBLk7ma1AQqVnF4moCwg9PGAR5iiH5TaI/VWU2lmjPrDXgyhtHXmhf8HcVSK0ChENYtxVKjVaEg56M9CMI6pROIXmo9P3D16bMDPRSNAfwKFIyfgDfZZ369qP5ZFXQjspYJWxzsENwlj+OxWr0sGwXPgKeglDVZYRpHf13JveKiYMFtDNzt4Ic+7XZX8QuuVpQcyBHhgXma+eNKBv0vXtzbLjXxEzArq4aePpvwOBPPgKchFov53hvP7CQ4CvzPMdHDJmk/LmdqdyrOF9gEKsiyqsDAhCa5zyq6Su+O7HS43kwT6O5y15gd3RFdSHwHhDVw4kBk3ppKDn6r1PvOdDwDtqDg7PK/WKKjq59Aj58Q2ssqxtzREWkRc7CSCdcUNYydRlZlJeMrdlsnZYwpx8BLIN41X5MvqHyVFy/ubTcFrSTQmpK2hwi7Ws9vunEmRlBVCs+AbSh6rH/G4DVlXOYwAwMCSDO4OMWmAIFaGdyGgmZxEKVXi0xJwrWq2UWFqfnHj5YRBJIHcAhAupjCmQZxDgAY1EYFZ9kyOHIInsUDrS1N3/WM1xrPgBXpDEW/VwycqJtIrAL8qt8nbyhlnaobkR+CsNHtEUwiB8YtbmpJNxKzJpCjXD784N03LvjMZwcB/CWAikuzlgIBD7e2LPjanj17/ljK+eNH3nutZeGFaRSm7O5H5THGSOOrU4nBhqyS4AbeF9ghxbXqj5S3dKrDITBtTCUHnqrImIzIckH0YAXCGEslD2CLxrnvz8ZgjHLwDLhEitUItsCBGkS5FIutbVrU0vTTaqwNdSOyFoTNqEwmkOqYhoTgW+spI6qR8Ay4DGKxmO+9D7MrwbzJYTSRU3JgbPHPMe+vthCbYRgBKfzfYcZdKCXHWJ1+IeR9B/bve62a45npeAZcIQpfZF4D0DWozA8/B/CbBLFDML1QazGBjo5IizaXVjHkaoBiqIzzLsvADmY8NhsyhWqBZ8AVxjCMQF7MWyVYXMngMArx1UowMCFAz0uSL/nksWfrZT0YDoebj5piJZiuJ+AyqKuc5LlQ4HsARM8fywRebnTxQA8PDw8PDw8PDw8PDw8PDw8PDw8PDw8PDw8PDw8PDw8PDw8PDw8PDw8PDw8PDw8PDw8PDw8PDw8PDw8PDw8PDw8PDw8PDw8PDw8PjzP5/wH7mQ2iwMl1RAAAACV0RVh0ZGF0ZTpjcmVhdGUAMjAyMC0xMi0xNVQyMzowNjowMCswMDowMLEKlTQAAAAldEVYdGRhdGU6bW9kaWZ5ADIwMjAtMTItMTVUMjM6MDY6MDArMDA6MDDAVy2IAAAAAElFTkSuQmCC;strokeWidth=102;spacingTop=-3;spacingBottom=-3;spacingLeft=-3;spacingRight=-3;points=[[0,0.5,0],[1,0.5,0],[0.5,1,0],[0.5,0,0]];labelBackgroundColor=none;rounded=0;html=1;whiteSpace=wrap;" parent="107" vertex="1">
          <mxGeometry width="32" height="32" as="geometry" />
        </mxCell>
        <UserObject label="" tags="Background" id="109">
          <mxCell style="vsdxID=96;fillColor=none;gradientColor=none;strokeColor=none;strokeWidth=0;spacingTop=-3;spacingBottom=-3;spacingLeft=-3;spacingRight=-3;points=[[0,0.5,0],[1,0.5,0],[0.5,1,0],[0.5,0,0]];labelBackgroundColor=none;rounded=0;html=1;whiteSpace=wrap;" parent="1" vertex="1">
            <mxGeometry x="473" y="622" width="32" height="32" as="geometry" />
          </mxCell>
        </UserObject>
        <mxCell id="110" style="vsdxID=97;fillColor=none;gradientColor=none;image;aspect=fixed;image=data:image/png,iVBORw0KGgoAAAANSUhEUgAAAPAAAADwCAMAAAAJixmgAAAABGdBTUEAALGPC/xhBQAAACBjSFJNAAB6JgAAgIQAAPoAAACA6AAAdTAAAOpgAAA6mAAAF3CculE8AAAA51BMVEUAAAApLjQpLDInLDMoLDIoKzQqKjIoKzMoLDMoLDQpLDMrKysnLDMpLDNAQEAoLDMpKzIoLDMqLjEoLDMoLDMpLTMgIEAnLDMoLDMrKzUmKzMnLDErKzUoMDAoKzMoLDQoLDIoLDMoLDMnLDMpLDQoLDMpLjIoLDMpLDMnLTQnKzIoLDInLDMoLDIkLjcmLTMnLTIoLTMoLDMpLDQoLDMmJjMnKzMnLDInKzIoKzIqLTMoLDMnLDQpLDMnKzQnLTQoLDMoKzIoKzMpLTMnLDMoLTQoKzIwMDAoLTQoLDIoKzMoLDP///+bTQTKAAAAS3RSTlMALFdvf1MkX9fLSwyvlwSza+dDc793CO/HGDw0MCDfQLv3889j+zjbw4+JramFHChbq4uj6xSDnbeZgeN7r/dP00efg5tnkxC3p4dkqX2oAAAAAWJLR0RM928Q8wAAAAlwSFlzAAAOxAAADsQBlSsOGwAAAAd0SU1FB+QMDxcdO4ucPq4AAAffSURBVHja7Z15Q+I4FMARighIFUHACzlEcQ8PxNnZxV2PmVFn+v2/zzpj0yalR4Ak77W+358zTJLfpO17OZrmcgRBEARBEARBEARBEATxQVnLFyyfQnEdukF6KW04QcoV6Ebpo7rphFGzoRumCXvLCacG3TJNbDtRZPOqtuuRwmXotmlhx4kmk8/qRoxwEbpxOrBcuSYXh5vunxWWLhVxXGfCVsKfLQLquK5eGHlcVy6MPa4rF8Ye11ULo4/rqoXRx3XVwujj+mLCyfFVT1wHEpaJrzriOpCwXHzNjrBkfE2NcNg91+B/KBlf0QvvxjxV89zvZOMreuFKjPAa9zvZ+IpeuNWO9NjgfycbX9ELe62ZpxT2s6T4il+41Ynw3Qz9f0kSwS+c2ws33qpmVTjXsubv4/p2YLyeJeE35cquxdPYmZueyJawBCRMwh9cODE3x46ssGxujh5ZYdncHD2ywrK5OXqkH0aSuTl6pIUlc3P0yIcbudwcPQvEV6ncHAOt/ULhIKpdCyUUErk5Ag5/zTp3jhQIp4Jq9731nfDOyJ5wkd1uBx9E2Iufhdi/zqCwFfvXJEzCaUFSOPXjXFnhzIxzZYUzM86VFc7MOFdWeIlxbmxuDk+S8MLj3PjcHJ4k4UXHuQm5OTyJwguOcxNyc3iShRcb5ybk5vDICEOWR8LYGkjC2CBhZOWRcDLVY2G3cwA2uBVGvCsgVV6huN/SpVvs9R2MDDZ3dOgeDKHFYuipfxmihLN3GW3VnXwCbZTESK3x6QhaKJG2yqvaPoPWkaD3kS7oXyi8qL0HdH98Hhc5f/u92fzjTzVRWLK887J3t6nbEXHBity4VHjZqOKUvUsxUFbkFSsR53Sa90RVViJ7W+EaWi2Csmph7Ete5x9N2CJhEs6W8ES1MFvZvYE2i2CsWrjkFji9hVYLZa2vWnidZVpjjMbr7K3zvroyvcHS9MayPv31uYmDz3//Y1nXA9a4njrhuBdD8aDwCIjWDFpGAqWnmlRWb49u+mpXke+gfRK5UuqL3nik/v2PygxaKoaNU+W+b0+uBtapvOGJrm0v66Xdf91K/gOOwUz2U+PqQpPtO/duRW2ttSRy6zZjqr2mY/Zfq23NTopDtxUP2mu6ZMKwE3qPbit6+qtiU4THoMJsaeBJf1VsbAK7xZnNSXzRXxU7Ewt2e9xXtxXf9FfF5lPOQYVZWLrXX9U3t6ozSN8qm+TQkWEF8B7TkEcu5t02DEwExzMEN/GN2wYjr1A/mwuBUdhs2/WJidpYzB/BvbDtHb5mZFKxxWbN4I4RZatnYzPVsdMaDWQ5EbDHyJ2Z6lhap3+kEsEau6INvd/l7YAwEARDYdNNXVMVPphLZENhbwMZS/a+uBXWYcbEbCyscp9SPPusRiNhcA42fBkYe4HLnrJ8GuKdMa+DDa7eenvVIU4D8s5sPjRX50sbrotPma/Ro4i8Lr4yLtwE6OBcbo+NR4emfY9BOtjPZk1MOQjAdDBcF0N1MFgXQ3VwLrfO5qe7JofFV2AdnMs9sbqfzdV5NADrYK6LzX0jxx4DdjDXxbMXQzX6uxAAOvhtWMwyalMbxw9GAHcRj3cKg5nZrar3nZcNqKXaa9aCqd5F+HdqrLYRyAX9k5cZa8OW/sr8rWKAZ1H5jdC+irfnPTGakAe3sFUIZ7Cvt6KqF5HaJm6f6HZ0vXZofYfLj8DQZ435r53WNf7P297jEX5X/sRrysaetkq8HMfpmkpyImn5b8qPdQ0jvJGZM4LdSvOLS/+7UT09z09uXyuKc5cOvSGMnhyz4PvuQru+s++fh6Bh8SPv6Cx9OYr+CQHPqq/qE79sJB+n/ck3vxfUHuRu1/ySrzEdjcedSvqgcBPmbc8v9xWTLx85nLqyLPOS25GuLeYti58LOaMrNUVWBtx1g803Z7/6rVOzUr7LHZaiMYtbmup3znhz5Q5p3XDFdRD65sSzZx9W3P9xyp/t9AS7+z6aPHfTObUV0vyXGnc5jxCftn3Af4+1vvTUXp4vpv0IbRXHXplrqrO1VEhe7/FloDwchkN4dDmDxsLZQutOOKnsFXz8m4h4bPZwwSxkR/zI+ARXehWO8Oh6Cyl56Ua3TsRz9/op+YLWUeDb6PU7qV2+Fz+m4r9b7hEAwv1MbHr/a+Jiwf514BS6menNFCtRPQ8eojeOa79dCp4hOZqgS54TOCgHFJxyZH641wv+tpPCDz/YhUHQOOKXc0cqtGH2cK7MxXVAJGKOtRT42RPG41HkOPwqZBERk6xC5B48I0+tEri94/Li5C98nBXwZ1ZJ2PmOrPCrse0xmpnICf+AbqcyLDlhrOeTkTAJkzAJkzAJpxoSJmESTjckTMIfS5gNlxEviyoVrrAFh5QsrKwofOtvbcD6xU6lwkV/PWmahpXCFYUv+GU3NDsp9QmX+G/VttM7/S4pfCSsKCn+IhZC4W1h6amOYKu7VuFL8WPTNxm6nsOE7Yaw5jTLyopDlPChuPy9yhY2nIjCLUvYHdDN1N0bInwqbExK39aGBYWrE6F7tRx1Do8vfNwVutfCuk1WkfB5jdd1hmAvPpsSFugvvg8zNRRCfDvp3soRz+Oc7mAbuk1amfvWay89uyiXQ9yJ1c7OXE4kE853E/QlflMUWL4xhTvC1yxHX4YjZzo+ydxAgSAIgiAIgiAIgiAIgiA08z+a5LR0AvkqIwAAACV0RVh0ZGF0ZTpjcmVhdGUAMjAyMC0xMi0xNVQyMzoyOTo1OSswMDowMMUVPM8AAAAldEVYdGRhdGU6bW9kaWZ5ADIwMjAtMTItMTVUMjM6Mjk6NTkrMDA6MDC0SIRzAAAAAElFTkSuQmCC;strokeWidth=102;spacingTop=-3;spacingBottom=-3;spacingLeft=-3;spacingRight=-3;points=[[0,0.5,0],[1,0.5,0],[0.5,1,0],[0.5,0,0]];labelBackgroundColor=none;rounded=0;html=1;whiteSpace=wrap;" parent="109" vertex="1">
          <mxGeometry width="32" height="32" as="geometry" />
        </mxCell>
        <UserObject label="" tags="Background" id="111">
          <mxCell style="vsdxID=98;fillColor=none;gradientColor=none;strokeColor=none;strokeWidth=0;spacingTop=-3;spacingBottom=-3;spacingLeft=-3;spacingRight=-3;points=[[0,0.5,0],[1,0.5,0],[0.5,1,0],[0.5,0,0]];labelBackgroundColor=none;rounded=0;html=1;whiteSpace=wrap;" parent="1" vertex="1">
            <mxGeometry x="623" y="258" width="36" height="36" as="geometry" />
          </mxCell>
        </UserObject>
        <mxCell id="112" style="vsdxID=99;fillColor=none;gradientColor=none;image;aspect=fixed;image=data:image/png,iVBORw0KGgoAAAANSUhEUgAAAPAAAADwCAMAAAAJixmgAAAABGdBTUEAALGPC/xhBQAAACBjSFJNAAB6JgAAgIQAAPoAAACA6AAAdTAAAOpgAAA6mAAAF3CculE8AAABs1BMVEUAAAAwMDAnLTQoLDMoKzMoKzMoLDIoLDQoKzMoLDMoLDIpLTMpLDQqLjEkLjcpLDMoLDMoLTQrKzUoMDAoLDMoKzInLDEpLjInLDMoLDMrKzUqKjIoLDMnLTQoLDMoLDIoKzMoLDMmJjMnLDMpLDMpLjQoLDQoKzIoLTMnLDMoKzQmKzMoLDMpLDNAQEApLTMrKysgIEAoLDMpLDIoLDMnLDMmLTMnLTIoLDMpKzIoLDMpLDQnLDMnLDQoLTQoLDMkLDQpLTUpKzMpKzIpLDMoLDMqKjMnLTMnKzQnLDMoLDMtLTEoKzMoLTMoLDQpLDMpLDYpKzInLDMmKjQoLTMmJjkmKzMnLDMnKzMoLDQoLTMoLDMpLjMoLDMoLDMmKzYnKjIoLDQoLDMnKzMoLDMnLTMnKjUnLTYnLDIpKzQpLTMoLDQrLTUoLDIpLDMnLDInLDQpLTInLTQnLDMrMTcnKzYoLTImKzMnLDMoLDIoKzQoLDMoLDMnLDIoLTMpLDMpLDMoLDMnLDMoLDQnLDMoLDIoKzQoLDMoLDInLDImLTQnLDMoLDMoKjMnLTMoLDP///81/+qcAAAAj3RSTlMAEE9zh5+7y9+/p4NjQxzD52cwIOuTNDjv0xgk94/Hf1+zFK9LLEBHq89TPNeXBHcMCNtX+28oW/Nr46Obe7eLQH3cdmntefa3lvQ5/Xjt21G20oX8G2pogqzX8DLx+i9bhf39/u9hVeRY3/JlyrSd/HH23SpCZWT4i615+fjM6OHRafv32vfgmP1K9oaL8BUq0B4AAAABYktHRJB4Co4MAAAACXBIWXMAAA7EAAAOxAGVKw4bAAAAB3RJTUUH5AwPFwYCfa99PAAADbtJREFUeNrtnfl/4rgZhw0JCeQAQg5IAgkkhBwEYhJnQsgks213e0zb7THbaafdTtvt9Nre97W973Zb/8uFDK8kG8mSLRnL8/H3twhF1oOx9OqV/L6GkShRokSJEiVKlChRokSJEiVKlChRokSJEsVEqfTMbGZuPpsbamFxaTkfdYfCVbpgu1VcWClF3a2wtDqJ+1Jr6xtR9y0MlSs2W5szW1H3T7W2i7anqrVU1F1Uqx2bp8ruq4Rc5/KOkOtRd1Od+Df4Xo29qDuqSKvoUd3frTfLqwet1uHK7NHx5Ih9EnVX1SgNQG1neSpdO3Uhd7pRd1aFzsY0O5TPNtbXHMT7ZtS9VSAYs46on/bq5yTxziswJ1+MWawD+ue9S3KaPn0QdX+l9QBYiiyWXo0gPjej7rC0TrnERitLTE+xH7kubT6xuYCJF6fQJ7NZXw6t8e6pALExi4kvwqa92q8OL3O8GtYFSn0R4hULKvXDXCaPae8nwdAukrZEiK9RpUFYkxNBSzGFFOpEiDiHKuXCGLhctEOF9xiLEa/in349fNqhWuEBixG3kKF5rvQWdy8otMOxohcisIN4m1UJ+0auFV56Y96m6iZMXgfxqcmq1IJKRXXffrtP57UPwwUmiRvMSotQZSZ03rXQTTqC+IxVJwUOzooiLxeT114Pm5ckrjBn2l2oshsKb+HyKvxZmEZcY1XpwbjVN5XzFi7zhvFw/EdWBZBZOlkuew03J3DtKtNlh9YaTbW897TDLxSmPgVrlMOXs12/4fFjuYXr11k1erBUfKiStw99Qi62A6mmh8pjy9BeMFm1uuDRWWA2BDb1IAxeA9ahx7Ktlx37KadM2wJcXH32NweNSO6zUXlNMLnOZJoe6oHT/ci2H1MwbrH3h8Flfaue10BjtOT2dHfCemMSQ032/QPjY8eQEJ3XmIMhTI7XWLJtUeK78edsw64NTUhsvjB42/D7WpIE3rSFiRv8WQcej+C+HhYvFFuSG1kHqPnNAY8Y9tbK7OZuxlUCG1sM3gNULOvdWYGGTozuivfKFw2Tq/zmOmp5H+CJRNZPWCO/OO+1Pkz8VY/mwB47MgKJz3ssu1DKjBuqG1ximHMaHs3BqBVsKOXz9qVP0sBgPx55PYjRcL7i0RxsKQey7wV45ddJMLfCQMQkRtOC5TXxd6GSrrwG2PtoICKIK4QztI58aRnP9sAL4N8JMB1eSgcJYnt/vJPQwsuL6rZne7A543vvdEq8k3fYSWwPFtY7R6S1/ci7PbBj/C7hpsVLA3YSu7TDmRbgu/FpD02NFw1ajjvCJi7y9o6goq68aFfIuXfRZDgMi7zdwWDTEoN3Cx8isZR5omEedllsB+c03nnuUrQMv3wVvHh32lJ3EGx93OSsq3zvaALX6vD3FMD89GPiT5UXuaEme9jOOXn3RQZeMMd8uPGmy4t+g7SHrjyLFss7u2LzDLiOxZeHU+Y1UtAsfR7Zal1cr5y0hScZWFPXdeXFXZT1nNyrBL18TVte5O1Vck7kA2j+EjMtI+BF3s+qim3dD9q+iKPgxd5mBU3vEYO6AHEkvNj0yMk39SHbDzGDNxUyL97zk/aedJ17GBxiBq9ZwC1chsFr5OE3HdDxhvW6bYsTR8aLx2lrW66d7hu2OHGEvHjyvJNr58O2LUwcJS9xcFDKyd37CDTzUe5Rtmh5jSZcZCBz/uZj0MrjHu/wXsS82O0ReIdkqI9/Ahr5JG8LI3JeYwP1rx60ib3H0MSbI5PNizh6XuwGsK1ysAa6n0Kd/fR9AZtYB14jhbxlXC8dXZ9Bnf3suIRFrAUvfkXJtk+DED9B//7W56CMTszg7c5hXrkDIqK6kSF+inv7eVxKI2bxEh60mq9LB5Z5HJz4C7i3z8jySWJ9eIcmNXZ6Z30dDOo+w711HYd3E+vES5zwtu15H86A1Bdxb7/k9n05ifXixW/P2n5eFX37y/i/nn9l4mOS+Kua8Rp7xHK2KLb07n7tHfw/X6dt/xDELzTjNYxlckfpWOAM8OvfIP7hxTepdSgbc7rwuneUcpyXg771bbL289cY1SaI9eEd/qrnHF1rtJm7wb3vvOuo+t23mY26iHXiHfZg3Xk3KjdXlF2H/Pe+77pt73qNcg5ivXiHqrt/gVbhbPkA8eRLh7uTb0/9wHse+yGd1yC+3ZBfvfJSmR5/JzvfuDseUD/60Y+9W3yKx+efkLzE+/RHUb5cvlWr2n70058J877zcw15R8gZSxj38S84jRG8L36pJ+9Q2wtiuL/6temD96m2vEOVGgK8v+F6/WLDO9TBbYH3y+buH8WJd6S9q5uKDDGDt/dMU96Ruq3FzNwmmqoGx3eZ298KBQZg8m68qTEv0upG87AEngGxUAgM3vbzOPC6JELM4n0vhrwixCze32He35tRYygkFuC1/xCriFTexCK8wod9NJEXsRjvq0MsyvuqEIvzvhrEArx/FDRdtBONWID3T6aY6aKhJjsuxCtqrGkod8cFeWNLbG7/+S9kx1m8f8W8fzPpX5X2Gq4dsy7vV/EJg/fvuM4/kAc0XsSHHO8AnzdWxK2cbUvzxoe4l7GV8MaFeIsbWVyUNx7EG0V1vHEgZgcyC8KrP7GLt3/unpp88upOTPJaCy/3UvNLDqf9P/3x6k1M8i4QJ+hLxE76v/7tj1dnYoLXqjs/ejJJ3P4PLnvDM0KyrsSMg1Yv9b6b2MHLwdCT2JPXMP7rJPbDqycxh9dF7I9XR2Iur5P4PX+8+hEL8DqI/fLqRizESyUW5dWLWJCXQizOqxOxMO8E8f98dVwXYh+8buI1f/3Wg9gXr5vYZ791IGa9eJO+bNL3s2NOzOAtj+I0HdPfwI01sXdgzXn6P70fX2JeIFFGFKQncSXm8TJjH8/Fk5jLa18x/rNkx5GYz8vOIdKIITGf1+MguzuMcwyIBXg9Ekrl7bgRC/AWvWKdVGNGLMLr2Q8IIPlWPIileQ146es6cL+nSeyPt5e+PJkwq6GqxPmV6REL8J7il4xfmtWuHkGoqapMv6dFLMK75S4+d07JEJgsK9Xv6RAH4nUbXfBazI1cv6dBLMC7SeF1mtXbluNr0JlYgLdg0ood71ijmFV7sv0Omzgwb9YkWkH55VF0fF2JA/P2yaA2KKA8sV7Wk1iA987k1SbKyciCOhKX+bzEiyh8XmfYav2I88WAvBYZIYEod2UM0I3YnA/KSw7QJ3iZtON2D2hGvMDl7QjwEj2bPNahFfEtl7dGLWbxUvOqaERcCsjrSEdL9ooefE0NsWQIznuh87FVf7xkfLO6AI0SYnaWXGG1UGPEIoAEm6EXk7yXtgiLEuKGr3+kCQUQIxJlMsDkeBURy2aERalJ56gDMYuXjK8iyquIWDLVRQGGXBztnxyI/fFyg8ypIJZLVr4H7WDbiDHxsHgf+eCVIkb/WJcBRpHi0ZHI1IDLSyZ6rvnilSHeVXKLwcjCmWevubzk++x+eWWIUYimFV//5lB30i+FAl320754hcPpBSbeAmNdIovpBtxMHDwLkpAILCO6HVxMeAdCI4YftRU8OjREmCbW6+PdP5bZ1SB4jwLxBidO0f2kfkRJojMetIgShpsnMK8gcfesUFmbczyv8LgFjzoGPxLSfGmNoj5mqWF0FfEKEZfGGYEKxJF60skfTPDAOr7HravdNH5KBHgDhCHhEvdQIEZiiEIZQwIDw2+E/VCQvMeY18xJ8fKJZ3H7xN0AGyFYMGwDp2xl5iBibLOQYbADhpnhEI9u8OBiZeRsm8OlsNLh5axjivYMT4eXRzwqbubv8xqv4VI4FLXs4zoOcfIkt9e4vA+D23mexKPScjc/inBewaX8bOYcQTI7ei6PcZTe+zMMhGNui+CVCsPpRTx6WufLzYFz1OLnq+cIUsVVTdqnY7O6n3V0iEiLJBt21IOYMOKI3Uk4P+Ir8jepHpin1CjL67TuKOT1Isb5CTbxQ2NCWfArwrk5anLheti8XsTLY+JzYkSGNXEx+AXBtqzQEv5tjXtDHEMjeWfELxOEONUZPsDns+QmBthJEhmi8p53q3kf+vAUO5ofEEFqFaWh8Bq5Uqbjzx5MGjKpC2Hcq1LfAk1ddmoX+Dsm0uSqS7shvnZC3rPAhpZBnAVd4NcNhVecOAWhNueFm6aoi4z0a15VgteS8LIEJkaTxpl407SrIQiOvUYEeVCdpk+IGP0Wi5KpKdHWQ8XzCWJtG06LGB8fkX2a8OZSxcNErVdD5HUQ03uBry97g0krzmJNrd1Hdqi8DmLrbGJB0iOuH9yhhWjIxTx1A7ZE1Oi3/Lbvm9g+Tzs+6taJ6cFHDmum9oi8FlZmArm0bxO8qtLUexLbm7ewIOq2F7PEBztKotoekFFYqkdLxMS+en1nTYV3IhHGWu6o83C/4IxzHTDT2YQc2VpGU3tm8fKqPjObOXWWFwPmkhNTkxvtpxjYt+OWM1sLS/OB16FqeqHy+qk5Pu+NimTU3r2487p+Run1yZmHKkvJcpDXi1tmco2KUnN2JO94d/vKHh9vMfKJVHZl8quydHjMws2FOlq5kDtr7ssPZsPAHSmdowRxrDZCMjaYKi/i459W4fZAvkW2zJOMI/ZdtnMY+lhFU2+1fbKylC6vTiN+fmm5flu7yTw6q7eijpySKFGiRIkSJUqUKFGiRIkSJUqUKFGiRIkS6az/A75mofo2FmSZAAAAJXRFWHRkYXRlOmNyZWF0ZQAyMDIwLTEyLTE1VDIzOjA2OjAyKzAwOjAwJpWEHQAAACV0RVh0ZGF0ZTptb2RpZnkAMjAyMC0xMi0xNVQyMzowNjowMiswMDowMFfIPKEAAAAASUVORK5CYII=;strokeWidth=102;spacingTop=-3;spacingBottom=-3;spacingLeft=-3;spacingRight=-3;points=[[0,0.5,0],[1,0.5,0],[0.5,1,0],[0.5,0,0]];labelBackgroundColor=none;rounded=0;html=1;whiteSpace=wrap;" parent="111" vertex="1">
          <mxGeometry width="36" height="36" as="geometry" />
        </mxCell>
        <UserObject label="" tags="Background" id="113">
          <mxCell style="vsdxID=100;fillColor=none;gradientColor=none;strokeColor=none;strokeWidth=0;spacingTop=-3;spacingBottom=-3;spacingLeft=-3;spacingRight=-3;points=[[0,0.5,0],[1,0.5,0],[0.5,1,0],[0.5,0,0]];labelBackgroundColor=none;rounded=0;html=1;whiteSpace=wrap;" parent="1" vertex="1">
            <mxGeometry x="779" y="620" width="30" height="30" as="geometry" />
          </mxCell>
        </UserObject>
        <mxCell id="114" style="vsdxID=101;fillColor=none;gradientColor=none;image;aspect=fixed;image=data:image/png,iVBORw0KGgoAAAANSUhEUgAAAPAAAADwCAMAAAAJixmgAAAABGdBTUEAALGPC/xhBQAAACBjSFJNAAB6JgAAgIQAAPoAAACA6AAAdTAAAOpgAAA6mAAAF3CculE8AAAA8FBMVEUAAAAgIEAoMDAoLDQpLDInLDMoLDIqLTMnLDIoKzMpLjFAQEAoLDMoLDMoLDIoLTEpLDMoLDMqLzUmLTMnLDMoLDMpLDQoLDMoKzIoLTQnLDMoLTQoLDMoLDInLTQoLTInLDEqLjEoLDQrKzUpLDMoKzMoLDMpLjIpLTMqKjInLDMoLDMpLDMoKzQkLjcoLDMnLTIpLDQoLDMoLDMpLDMmLy8oLDMoKjMnLDMnLDMoKDYoLDMnKzMqLjAoLDMrKysmKzMoLDMoKzMoKzMoKzIoLDMmJjMoLDMpLTMoKzMoLDMrKzUnLDMpLjQoLDP////+H10HAAAATnRSTlMACCBAV29/gaOlaQS/+/Q/w/orKK/sY+eTt5tn86eP3zRDyzBLn9M4gyTj15dTHONbo3OL7zztWpeWJv2DdMcMPLNf30fbFOt3h/cYzyzCgrLcAAAAAWJLR0RPbmZBSQAAAAlwSFlzAAAOxAAADsQBlSsOGwAAAAd0SU1FB+QMDxceAWa9tN8AAAUGSURBVHja7d1pV9NAFAbglNK6JFUUKIosrQWlFgTFfaGViorL/P+fY8UkTfdOyF06ed+v9ty5z6Fp0s6N8TwEQRAEQRAEQRAEQRAEyUkKS8XlUpkyN27euu1LM8MslYKK4cidu9LUfymusGCvcu++tNZbXePj9rK+Kuyt8ryX+9kQFfsPmLnCYv8hv1dUvCnhFRQ/SnaxFWzvEJ6FdxWIa4nPq+16gXaxQMHfuN/D4wbjYmLivXj1fYYrviGwhPhJtPYmx2rDYH7x02jlFZYr+hEwu/ggXLfSZFkuAj+rSIlb4bKHPMtF4OBISPw8WpX+A3oQ7AmJi+Gax0zr9cFC4pNwyRf8YBnxy3DFUwGwiLgcLliWAEuIZcECYmEwv1gazC4WB3OL5cHMYgVgXrEGMKtYBZhTrAPMKFYC5hNrAbOJ1YC5xHrATGJFYB6xJjCLWBWYQ6wLzCBWBqYXawOTi6XAr4JJeRaDzTrBrI8UeL7ce50zsHmT+Q6fcrB5mzfwu0UHv7cEZ76pyQ3+8NEO/GnRwd5nO3HmfbGDvQ/vgzmy6w5YuC+AlQRg9YW19gWwkgCsvrDWvgCelUK9VCrmCFy7GkY9a+cF3Nn6//IvOQFHXmOo39U6wH2vOc8DOOE1ezkAJ71d6hskZMD+11KpE9GS3q3a6IsLnTR3lpdqvn1fVODVi6tTUHPU2xl9caNl0uVsSQu4ffz/n672tGZ5292U3p7Yt+uLDBzfstYTz/J6R6m9xtSUgKtxRxvns7xxnTSpKgGfjO1uvHfCi+dLx64vMrB/Mb/X+/Y9tbdVsOuLDOx9Hf2PECZ5Pa+eVtxt2PZFBk6OH8zy9v7GJ6luGT9q2/dFBh4WT/Oy9kVXeEDM6JW7lk6IOb2CXx5iMatX8ttSKOb1in493Pt3wuk+ZfXKfh/+Vi2fkP9qpwksEYDVF9baF8BKArD6wlr7AlhJAFZfWGtfACsJwDyFx+8ITtrxW3zwxB3B8Tt+Cw+esiN45uSG+LQdwZqL4Gk7gqW8gak/1QEGmBAcJM7BQR7A5TlfnzOwA3NaVmAH5rSswC7MaVmBXZjTsgK7MKdlBXZhTssK7MScltWntAtzWnbnYQfmtHJ7pZW7a+lxARhgx8AvXQRPu3rquAiecvXUIn4OldDOw8Srpy75g06E9pYmXD0d0Q8iYvdQfWGtfQGsJACrL6y1L4CVBGD1hbX2BfBAMKcVBnNaboAxp5UI5rQABnhxwLnbW8rd7iHmtMa9HnNa84sxp7UIYMxpWaSziGDMac0dzGktCpivL3Jw7q6lxwVggB0DY07LBTDmtOJgTssVsFwAVl9Ya18AKwnA6gtr7QtgJQFYfWGtfQGsJACrL6y1L63g07CvzH87+xEWvpQWDmU77Gs568LnYeF9aeFQoh2OzJ+vWAwLX0gLB1OInmiV+dhuM/pdriltHEg97KqS/a+jXZUHcXQIB9mX3glL//wljUykEb3vCIZ2o4PYrEkr+/EfG6pDuFc8HrDScyrej1paoagenZjUiP3NuCOah/7+juuvaTiOmyuG+CirxwuYn5fSZ6fGYf8RXpU/RIscmEQu9i9TTeNkkdMXx8lWqtenTcgXozEPyLxe+/f128s8DylvjWrr+xtvEt8KdnD9FrNM5REtt5e6prd1wPJIuvP0Q+3Z5gn1I+ij+MUdeXPrgPmBgwiCIAiCIAiCIAiCIAgik7/sEWMZCajTcgAAACV0RVh0ZGF0ZTpjcmVhdGUAMjAyMC0xMi0xNVQyMzozMDowMSswMDowMIOBiMYAAAAldEVYdGRhdGU6bW9kaWZ5ADIwMjAtMTItMTVUMjM6MzA6MDErMDA6MDDy3DB6AAAAAElFTkSuQmCC;strokeWidth=102;spacingTop=-3;spacingBottom=-3;spacingLeft=-3;spacingRight=-3;points=[[0,0.5,0],[1,0.5,0],[0.5,1,0],[0.5,0,0]];labelBackgroundColor=none;rounded=0;html=1;whiteSpace=wrap;" parent="113" vertex="1">
          <mxGeometry width="30" height="30" as="geometry" />
        </mxCell>
        <UserObject label="" tags="Background" id="115">
          <mxCell style="vsdxID=102;fillColor=none;gradientColor=none;strokeColor=none;strokeWidth=0;spacingTop=-3;spacingBottom=-3;spacingLeft=-3;spacingRight=-3;points=[[0,0.5,0],[1,0.5,0],[0.5,1,0],[0.5,0,0]];labelBackgroundColor=none;rounded=0;html=1;whiteSpace=wrap;" parent="1" vertex="1">
            <mxGeometry x="930" y="258" width="31" height="31" as="geometry" />
          </mxCell>
        </UserObject>
        <mxCell id="116" style="vsdxID=103;fillColor=none;gradientColor=none;image;aspect=fixed;image=data:image/png,iVBORw0KGgoAAAANSUhEUgAAAPAAAADwCAYAAAA+VemSAAAABGdBTUEAALGPC/xhBQAAACBjSFJNAAB6JgAAgIQAAPoAAACA6AAAdTAAAOpgAAA6mAAAF3CculE8AAAABmJLR0QA/wD/AP+gvaeTAAAACXBIWXMAAA7EAAAOxAGVKw4bAAAAB3RJTUUH5AwPFx4DiLPV8wAAKU1JREFUeNrtnX94XFW577/v2tNmgKRGSGmAehyPMZlkT+I0kzyg4HE44AEeQcqlHvQRr/WKB7zgxaPyqAe41ite8IhXPKLIBR7LVa5wLYdW4QgPehi0SLGZNDQzzaT0XOKx2tAGbyUBpu3e671/zBTakqy1Z2bP7MnM+jxP/sl+Z+13reQ76/f7AgaDwWAwGAwGg8FgMBgMBoPBYDAYDAaDwWAwGAwGg8FgMBgMBoPBsPigoB0wVIdkMhmennnps8z0NgHKTmRHbgvaJ4P/GAE3ID2xxLUEuhXg0OHfMZC3BH10x/aRDUH7Z/API+AGwrbtVgct/0JE71nQiOWGzuVv+nAqlXKC9tdQOUbADUIsNvxuB/JRAG1aY8Z0KIyzMun0vwXtt6EyRNAOGCqn107ceAhyM7yIFwAInYcO0GRP/+BHgvbdUBmmB17ERCLJ8HEnzD7OhLPKLoTw486T2v6jGVIvToyAFymxWOLtLugpBq+otCwGcseF3HeNjY3tD7pehtIwQ+hFSDSW+BsHvMMP8QIAAdG8E/qdbZ/eF3TdDKVhBLzIKM5bHwVoqb8l8zKXnGd7BxKDQdfR4B0j4EVEtH9wLTH9EKVMfRjTJbwixBJPx2LD7w66rgZvGAEvEnpiif8Cph/Ao3gZ5DLwqVw2fQqAm0t41VKH5K/eEYu/L+g6G/SYRaxFQNQe/juQvLOEj/zJWiLfk922bcfhX3T3rjpXWNZPAT7OUwkE12X3gucyY48HXX/DwhgB1zl9/YkPSsYD8Pq3IjyTn21LTk2l8sc+su3hTlfwb8D8Ni9FMeCGlliJ7LbfPht0Oxjmxwi4jumxhz5AxA/B21SHifm2iezoZ3WG0f7BTWD6gEc38sISQzue3ZoNuj0Mb8QIuE7pthNnCUIKgOXFXjI+uTObvttr+T2xxB0EXOXR/OWlIhTdvv2Z3UG3i+FozCJWHRKLnT4gCL+ER/EycG0p4gWAyUz6Uwz8k0fzEw5K51nbtluDbhvD0RgB1xm2nWw9hENPAtDu8zLADFw7mUl7FeJRTGbS1xLwPY/mJ7oi/Jug28dwNJ6+4Q2146QVJz1NIE+LTAA+U654DzOzd8+/nHTyqX0E2B7MV5x08qkrXty755Gg28lQwAi4jujtH/w6QGu82FbS8x7Li3v3bPAqYmIMndy5Ymzf3unJoNvLYBax6oa+vuFzpJCPw8PfhJm+MJkd+Ue/fejpH9pIzBfrLfmAI5Z07TKLWoFj5sB1QDweb5dC/hSexCu+Xg3xAsDk+MhqYmzWW1LLEun8azKZDOltDdXECLgOyDvicQDH6+yI8MhkdusXq+nLiuVtZwPYo7Nj4B0vvDhXlS8Sg3fMEDpg+mKD/yBBX9MaEv6QG0+vrIVP0fgZETiHngOg7GEZzJZsOWPHjqd/W5vWMhyL6YEDpLf33W91ga/q7Ag4RI48s1Z+5ca2TIHEJ/V+EUk6aFakA8SsQgdEMpkMzb368mYiOllnSywvn9ix7ala+jez949jHctPjYGgvuRPOH75ilPlzN49v6qlf4YCpgcOiBf2vXQliLxEwDgoBQXyResKfoTBUmfHjOvi8Xh7ED42O6YHDoB4PN7usPhneFi4AmAR6D90LD+lY+VpK56enp7Oe/hMxf61d5z6AwG6gUBe1klaXBbOzN49T1S98QxHYRaxAiAaS3wDwOdL/RwD+4nxfQvi29ns1lIibXgiEkmGw62zVzNwAwHtJX4874jQO8zecG0xAq4xfX2DXVLQBDQrvBryYL5bML69Y8forkp96ho4fWVIHvoEQFcAKH+lm7E+l01/3P9WMyyEEXCN6YklHiJgtU/FOSBsBOgXRHhqYvtIxsuHkslkaN++l2MOyfcS0flgPheVfaG85o/FYjib3TpWndYzHIsRcA2JxoaSAFdtnsjAfgLGAJ5m0ByBXx/OMkUg0EqMTgbiAKpzNZDo0dz4yAXVqqPhaIyAa0QymQztmZndSgXxqPgTgBOD9ndBmA+AqEVtRGfnMiOpoF1tBsw2Uo2Y3jf7EQ/i3SIPooeBjUH7Ox8EfB9gbT4lBn8raF+bBbONVANs225lCv0UmmGrZHx4Zy6de3HvngeWn3zabgDvhretpurCmGJBa3OZ9Ddn9k1PdJx8ahJAZCFzAjpPWnHKrhf37hkP2vVGx/TANUCK8BcAdKqt+P6d2fRrN4EmMiP3hEPuO8C4BUDV937n9QjYT4Qv5l9u650cH9n0+u/ldbrPkqSbIpFkOAi/mwnTA1cZ2x7ulOD/A/Uqbx4hecnM9PT+I385PT2dn9m355cdp664D1I4ALpRmx55N8D/gw/SRycn0o/v3z91VObCF/dO/3H5yad1ARhYsARCu7X04MyLe/c8UwN/mxbTA1cZKeTVANQ9EeO23NjY1EKPc2NjU7lM+rr8XNtbCPwhAKkquOoAeJiACzs72t6Wy4x+ZefO9MxCxiTlV6AZGRDjM1Xw03AEZhW6iiSTydD0zOzvoR4+T4dDbm+pqT27uxMd1EJnAkiCOUlADKXt5eYBjIGRAjgVXiKfKdWHnv6hbxHzZ5RGzOfnsqOP+daohqMwAq4iUXvoUhBvUNkQ6IqJzMg9lb7Ltu1WaR0XYYkOglwBiFaGfP1UFdMUQHMgvCiJpw/Otk3Nl72hFOLxePurjvW88tglYUNuPP1Bv9vWUMAIuIpEY4knACQVJrs7O9relkqlHI9F1h1RO3EzCKooIY7F4i3VOLttMHPgqtHdn4hCLV4Q4fbFLF4AwBJXl3Qt5JLU7h0bysMIuEoIyVdrTPJCinuD9rNScmNjUyB6VGN2RdB+NipGwFWgcHCDLldb8caGGVZK6NK6RAvnwA1+YwRcBVxx3Ed092kl03eD9tMv8i+3PgJgRm0lrwzaz0bECLgKMLMu61/myFNXi53iavZ6tRWt7u5OdATta6NhBOwzvQODZ2gvLRDdHrSffiMJuq2wsFiKjwXtZ6NhBOwzLHGtxmTOkq/eF7SffrNzPJ2D/oSYWczyGSNgHynkz6XVSiPm9dlsdi5oX6sBgb+vMYn2DgyeEbSfjYTJbeMjksLvhebcM1lCt29aEbZttzK3dEohVjLJ00hSiIjzDPECQs5Ufn/7dKUnsBbi1bllm8KtszMAFpzrSinOAbClmm3QTBgB+8uFmucpr3GrvBKJJMPHL/vzmSzFGgYudIGVhfN1DGICCGAQAAYcC+HWWURjiV0ANkrGplOXt23x6zDJ1FQqH40l1kMRcZPA5wLQp5IxeMIcpfSRqJ14HqS46M58zUR21Jfto+7+RNRiup7Bq1FZfKsZAjYcEqGv+RES1kPcL8fi/JsbdRpRa8wc2Cf6+ga7VOIFAGJUfCvHtoc7o3biB4IxzuDLUXlwug4GrgpJ57loLPGNSjMsdHa0bgagEmfIRUvN8jw1OkbAPsGE8zQmuyqN4dwTG7reJfk8CGvh//QnDODzrzrW872xoU+UW0gqlXJApNzjZiHO99n3psUI2CdYCPX8l1l3XnhBbNtujcYSPyPwTdAFB6gQAtoZfHdPLHFXuQm8WVNXKsShNviAEbAPRCLJMJiTKhvSH/ifl2g8HnEp/DT0C2S+QsAV0zOzj5dzeopJO1WI2fZwp6fCDEqMgH3g+GV/PhPqnjEvOP9kqeX29Q12wbGeRiHaRhAkxVL8ulQRFw91KC9qOMI9J6A6NRRGwD4gpW5Ox5tLXXW1bbtVCvoZtNEs53sdpgCkCPQjMNYDfD8Kp6TKuf0UFUvxk5KH0wz1MFqSGUb7gNkH9gfl8JaIflFKYclkMjT94txPwBz1+hkCNktgA4XcTaoAed39iSgxXQrwGg+B5l9zac/M7B0APllCNVIA1iocNgtZPmD2gSskGo9H4FjPq2xIUH8pBzh6+xNfZcYNXmwZGCPmL5YTOK6nf/AjxLQOQJcX+1Lid9n2cKdLco/KRhJ6i8NtQ5mYIXSFkBPSzeV2lyLevr7BLmZljKkj4HWTmfSqcqM+To6P3tfZ0dbL0F7IBwBI8K1e94mLwQqU9SbWbr0ZNBgBVwgzn6V8DpS0+iwtuhn6qc0cmNbkMqNfqdT/VCrlTGbSnyTma1CIDb0gBLTnHet6z22jmToQ2FxsqBAj4EohUq4QC7Dn+W9PbNUQGGu0rwQ+lMuOPOhnNSayo9/VxngucE3XwOmekoALVtedQZ7n+Ib5MQKuGPVCk0v0rNeSiKyvat8GumEik36kGjWZyI5+18NwOrxEOp564UMipKw7eZx7GxbGCLgCij2R6ixy3usiTXd3ogP6E0qpycxIVW/ynNLR9ikAyiOfDKzxsq1UvByh2j5r9dqbG+bHCLgCQu4hW/WcAc8rrNTC50Ez95WMG6tdp1Qq5TDxOo1Zxx/3zXqav7Lmy0DXhgY1RsAVwKSewxHYu4A1kTwY2FirQHiT46P3MTCmshGEi73VS90GZhhdGUbAFSAAtYCJxryUUzhLrTnYoMmx5D+ke99qjwUpBcyaNjSoMQKuANacZGJJnq4PLm2bjUA9l3ZC8sAmL2X5Vjdi3Sp3l5cE3qSbRghheuAKMAKuDOU/H1mY9FKIYNKddx6pdQQLLxcSwu37tee0BVvqNmAO6qJGQ2AEXCbFGzqqWzrOihNbvc2Bmd+qfu59Mcxn1O91QhF9Ea/oRiErC9E8DeVgBFwmYinpeo6c12BxJLQ3jgLKocTK9xbyEKspjhw0sbaON8PoMjECLhNiqd7+IO+9JjOr55LEVQkDq/ULpBm2C289J5HyTLQktyeI+jUCRsBlol09lfAc/4oh1GeQiQK59ilAyi8WSdLbF4uUuoMhZiW6TIyAy0WzekrEY16LImblEJMlAjmtxGDle4nFHzzVT3+gxQi4TIyAy4U5onqsXX090taS6jmiJlxt9eqofq+Q0lMcad1pLEC7Cm9YACPgcmF1dEh3yaH93ouyXtCYnOFlz9VPovF4RBvnmg54WlyToJeV5ZjIMGVjBFwupA6oLl+xPO/bCvfVKQCq+WS4pW2uppff2bF0RyV3e92bFktc9RSBg5kiNAJGwOWjjNS4c2d6xmtB2Wx2DkQplY3wcE/YTwTU7yPg4Vr6Y5gfI+A6gRjKs8cM/lDvwFBNTi1F7cHzGFBGGiEhPZ/Ntg4dUn+ZEUqOPW0oYARcBtF4PKI0KIR1LYlDwtLFtQpJydoL/37ARLdoTOZeeelNT3ktz8NQ25zEKhMj4Dph1/ZndhOgvC5IwOqonfhYNf2Ixga/rAs3S6CN1coxbCgNI+AyYIfUQz4iz/Pfoz4m5Dq9Ee6uVpb7qD10KUA6HxyXuPSoIJpRiXZUY5gXI+AyIFiaIR+XdXNox/Ztv0QhILqKEEt6yG8R98YS7wfxeq0h40cmlnP9YARcDixblM+Jyh5eWiz+3oNZJ0v6tV/D6Z7Y0PVcWFXWzUXzFsSXynkHE/Yr631oSbsfdWk2jIDLQnNySHLZt4ey2a1jHgOth0BY3xNLPFTu6nS3nTgrGks8UUxbqoVBNxUDtpfeYlAL2CVuL7fNmhlzAqYOOTDX9ulw61wc4CGdLQGrWfKFvbGh+yVhw4HZ1sdUC0y2bbc6ouViMK0h72FxAODhakfENJSOEXAZMNFKAi/4nITu/quaqalU3raHL3KJt8FbdsIQgy8nxuXh1tl8NJbYAsYUCexmZgdMYQCdIERdYIi45L97xuL8hytrNEwpM3HpghoY5sUIuAwIMqTKC8fMni7yq8hmt073xFZdRBBPoLR90jCAJAhgLnhbYQq7aYTci7JjtQ3pY/CGmQPXMZOZbSMMeTYCi8iBnJD8HlW6Uq8woS7vPC92jIDrnMnMthGLxSqARmr6YqJHLc4P79gx6jkwgbI4zbDdj1FLM2IEvAjIZrdO5+da3+M1DWiFOES4qfOk1otqHQnTUDpGwIuEqalUfjKT/mShN9Ye9igPwgYhuXdiPH2j14B8hmAx844yIMYMKxaGqIoRJrLZrWMAzu4bWHUOS7FOd2vIAw6IfsHs3jg5vq22w3RDxRgBl4EuWiNronX4QfHY5S+7Bk5fuUS65zFhDZiTgKd3z4HwKIM38gF6bOfOkbLObpeELiwQ0e+q7kMDYgS8yCmm8LwHwD22bbdK67gIwV0hXbGysF8tQ0SUZ4lpEP1OEk8fnG2bMreJGgMj4AaiuOiUKf4YmgCziFUGdRtF0tB0GAGXgZSWG7QPixDlwh4JVH8e3oAYAZeB9p+NTQ88D8ogCCwcs+dcBkbAZeDmNdcFydMFhGZDKWA/jms2I0bAZVAMGas66BCOx+PtQftZL3QNnK6L+2yGz2ViBFwurL4y+IprmV64SIsrdWFj9wft42LFCLhMiNQCFmzy/RzGQ7SNiu5PNzNGwGXCpLniZy6ov462LcoPQdTsGAGXiybuFQmzkPUamswLBNoftIuLFSPgMmESSgFLkzLzdVizhWR64LIxAi4XklPKxyZp9WswqduCIMwcuEyMgMugJ7ZqiJlWqWyY5WDQftYLxGyrLeRgrRK3NRqVhTtrIuLxePuBQ+IjTHQVAE//bOGQ++axsbH9tfZ11apVb80ftC6RKAqHcIgZmaV04MFMJqNLJu4rkUgyHG596RWAPPyv0QgId1vy1ftMNBBvGAFrsO3huCR5JQOXo9QsesRX5cZH76yFn7FYbIWDljsA/A2AExSmf5ICd+7cnv6HWvj1jlji0xbwTyV+bI6AHwkWdxYDGBgWwAh4AWzbbnXRcjMKPW5Z1y6ZaNPk+Mjqavva2zf4gBT0wRIDyM5Jy7lg57PPbi7hMyXTYw/+nIjOL/fzDNx9XMi9LoiRzGLAzIHnoTeWeL9L4QkQXYMK7kwTc181/YzFYiuiscSLLOhvy4j+3Crc0JPdduI/V9NHAaqoDQi4Iu9Yz1U7repixfTAR9DdnegQS/k7AH3Ij/KI8PLEeLoqyauLQ+adAJZVWJSUlvPeavXE0VjiIIAlfpRFwGaS/HG/Qt02AqYHLmLbw51iKX7tl3gBgBkn2LZdFQE73LIZlYsXAIRwQz+vho99fYNd8Em8AMDAWVLQ0912otJAfg2DETCA7v5E1IV8GlXYu2Vradnzv4XoG4h/HoQuH4ts7R5I/He//XQtYVdeyhvoEITHC8nIDU0v4O7+RFQwnigjDM4MgFsBKIPDsUsf8NtnKa2ycvSqEBJX+l0mSbzXQ23u5NJvI4VBfH9PLHGt3z4vNppawL0DQzHB2ApvGQAPswWMtfm5trfkMunrAJ5UGUuid/vpcyx2+gCAEz2YSoBeAOh5AF5CAJ0Yi8VW+OkriP9K+Zwxnctsu+rAXNspYKwFsKWE0kME3BaNDX7ZV58XGU0rYNu2W1nyj+F9b3c3mNbkMul35bLpe18Ly8ri16oPEfAXfvrtSOejOhsC78jPtZ2Uy4x05jIjf5nLpEMC9BXd5w5yi6/DUib1CjQLjAKFrBO5bPreXCb9LjCfD6CERSpaF7UHz/PT78VE0wrYofC34PFEFQHfD4fc/lx25MFjny0R7v/WfHxJbHBwwDfHBd6uesxg+ercsjOnplL7j/z9jszIOoCUkS+IvLWHF/r6BruI+Tjl+1z5y2N/l8uOPpafa+snwk3QTE9eqzPR/cUFs6ajKQXcGxu8jIArPJg6YFozkUl/aqGDBOPj255mUg9RnYOk7TVL4M2qhwT67bHiPeLh79Wf9fEKpLC0Z8EtCv3rfL+fmkrlJ8bTN5KgYXhIrUpAuxT0ULVW/OuZphNwNB6PMMhLlr85IeT58/W6x0Lg32tM3lfDKi7cazH/WfPZN8MnJKBevCO4y5efoAxAP7F9JFNM5pbz8MqYpOPu8Mv/xULTCRiHrC9DP++dk4wLivmHtDDTbzUmTXe1kKFewCLGlJcMiNns1mmL88MEaA+aMPhy2x6OB133WtJUAu7rG+wC4XKdHYGv2JlNez6ZJAg/1pi0NNPhg3g83k7gt6hsmLyvOGez2bmWkHsRPCxuuSS/FXT9a0lTCdgV9AVozjYT8P2JzOgDpZS74qS2h5khVTaCcFXQ9a8VeV7y11ojSQ+VUubY2Nh+EnQJAN01w2Q0NpQMug1qRdMI2LaHOwna3jcnOH9dqWWnUilHgDS9AzXNVgdL/rDyOcDhJY6n6cmRTGwfyTCxhy9CvjnoNqgVTSNgl+TnoMmdy0RfLP8iuXxE/Zw7ursTuvjIDQExv0f5HHi+3OuBk+Oj9zGwUWN2Rt/AqnOCboda0DQCBnCh6iEDY5PjI5vKLdyig1/XGoXx2aAbodoUszCoT3QxVXR5IsRCeyiFpVgTdFvUgqYQcDQej0C3Eky0rpJ3FELV8P9T2VgSfxt0W1SbEDvaOpIlf1TJOwpROvh+lQ1rvrAbhaYQMNyQbv65q5Le93UopXrKwF/adrKhDxuQhO7QyoGJ7aOlnHmeF0nao6Erm2FLqSkEzIXztQtCwC/8eI8j+B81JiTF7BeCbo9qEYkkw0zQHBvlUT/etXM8nYPmgIdL7sVBt0m1aQoBE3Cu6rkketSP9+wq9CyvKI0YDRsapuX42Yug+Z8i0A99eyHrFrNEww+jG17AxfmvatjqhOSrJW9pLAjxr1SPGXhLLJZ4u9fiFhNErNyCY4Ddg/iJX++TgG7lv+FPwDW8gNkh3dbNiJ8xiB2CdoXUlex79IugiUSSYQhSXmAQQK6YW9kXTl3etgXqG0utkUgy7LW8xUjDC5iYTlIb+JtYqziMVl4aYEHvD7pd/Cbc9tJHwbCU9SZ4uUTimVQq5YDVt5XC7fsbOkdVwwsYuiRj0v/EWszaYeIJfQNDDbVPyUzXaEykJfP/0/cXE6aUz51QJLBGqQENL2AmWql6TsL/5NJL6MANAFjpl8s1yYxQC2zbbiVGv9qKRquTLkWT5hXS3zBBdUbDC5gglZcXmFl7pa1UMpnMC2B6TmUjCfF3vvOdpwXdPn7gUPjLIHWMcQaqcleXQZovBdHQ++4NL+DAIL5d+RigA27oO0G76RPq6CaEQ6d0tP6varyYGDX/gq4njICrRC6T/g6AQxqzC5PJxb1KGh0YvIiAdpUNMT3t5fK+oXQaXsBEpA6MpskeXwkM6O68Ltmz7+V1ATSLf0j6qs6ELJR8RdMzpD3j/rvaN0rtaHgBS7BykUq3yFUJfBBXs2YxiyA/FVTbVEp397tOY6iPTjKwe8ezI7qQQ5WgjEZJAr7tO9cjDS9gYvEH5XNUT8A7d6ZnCDSidhDLegeqmyGwWoilB7+vy4pIwG3Ver9tD3cC6hHUihNbvQTEW7Q0vIARcqbUBuxbLOT5sNi5WmcjXf3prXrDtpOtTHSBxuxALpP+ZrV8kOTqUrfsavS5d8MLODc2NgV1HKVw78BQ1USczY5tJeDfVTZE6Kh2nl6/kXjpe8SsPnnF0IbkrQxKqp/ziIdCFjVlJ69eZGQAnLHQQ2acWbSpiHg83n5AhlayfMOw7gFAfdBfEL4K4HtBN5QXbDvZ6tKsNg1rCPKfjwwwJ5kdaYWmdm1/xpfDM9pL+yRSATdV1WkOATOPgOgMhcG5AO4spciugdNXhlznHABJEIYYWJl30D7fmhV7K/LEntjgdZOZ0W8E3Vw6HJq9hzzk/XVJbDiy9oIAIR1EYwmAMQVChgibhRSPFaJseKfwxcDK9QsJfjLotqo2TSFgImxmYOGzuozzI5Fk+LWEZQvQOzAUk4xPEPP5kE70yOUb5UqOVz8h/ls0Nni82ogjYD/eNn/Zumx/RBSSzGsqrnEhnWuEGRe6JG+JxhLTYDxKFt/pLWKHvFLjw67ipf+GpikE3BKSj+Udy1HUtzV8wuxlAO499kEymQxN75u7GCSvYsnnVkk6RTgMaGJzeezOy3s9RQAo388M3anJcukEYS1LWhuNDY0Q5K0rOpY9ON8iVDQej8Ah5WUQIihjZjUKDb+IBRSDgmtyzxK98Thgb2zwsul9s8+BeANAyqgeBj/hIQbdPz0z+/ve2OBlb3jqWNdD0/m4wH1B16IWNIWAAQCsjWJ41uEFl76+wa5obPBxBt1fHOoZgqGTQfdH+4d+XoysAtsejhOwVvUhAjY3w/AZaCIBtyyR90Gbb5ZvjsYGvywFjS/iHvegon5Lg3auLJjPh2NNRGOJz7kk74Cm95VEtwbtcq1oGgEXMgHwRo3ZGcU56KK9YMCqvVmi40ooqt4IA7gViu3AIjl/QgQvDppiEeswFltfd0lq9y8rwAEwBbwhSEAYhTO7VU+tQkSn9/UNdu3YMXpUrqZIJBmGnH1rddaf5mUabwj7Sq0AR6raDkw31KyGdUDt/px1Qm9s6IcM1qYY9QRjCkCKiB89JJY8pTug0N2d6BBLKUbE5zDjMgDvqFI1M0LyJUeKuKd/6FvE/JkqvQ8E/FaCfgq4j4X4YE4VfcO27Va2lp4uXXEuCBcC8OkkHP8ilxmtZTL1wGk6Aff1DXYV5rhlD5MdgDdIpu+WkkN4Prq748PWEuvvQOgAcJDBO7x9kq4CoAvWNgfwwwByxSOHSXWR+COYPcWsYsbxgigmGWEibHPQcseuzG/+rdx26B0YiknJ1xazR5b9dyFBqya2j1R8om4x0XQCBoBoLPE5FOZTpeAw0e0hSV/PZrf6HgivFHpjQ59gsK8RHhn4zGQm/e0g69XdneigFrqemK9B6dO7z1fz4kS90pQCTiaToemZ2V9DvyBymC0M+enJzLa6OBxf9H8bfBp6MrA/xPm3VCfoXOn0xFYNAeIuAuIea9B0Q+fDNM0q9JGkUilHSP4oAA89Ka/LZdLvqhfxHvafBH8ShUWzihHMN9SLeAFgMrNt5JSOtmGwOq5YkV0WW7qEag1LU/bAh+kdGDyDJT2O+VOv5Am8diIz+kDQfi5E1E58DIT1lZVS371XTyxxLRWmO/MNqacl4exmObQxH03ZAx9mYvvoFjCvAY4Ju8KYIsFn17N4ASCXTd8LxlqU2RMTsNniA5cEXQ8Vk5n0twlYjXn+Rgx5UTOLF2jyHvgw3d2JDmspXcyQK5mwKyQPbKqnIaWO4kjiLpQyJ2ast5D/9GKp52L/G1ULI+AGIZlMhl6YmfuYBF+jWPxxAE4Jwbfs2L7Nv4yMhsAwAm5AovF4hF1xpgCtZOYwg/YT024L9FTQW2AGfzECXiREIsnw0hNmhwTwdiaZPaXjTWN+BWyrZtmG6mIEvAiw7eG4S/LHwFFBzLcg5H64GLSvLss2VB8j4DrHtu1WF+HxBe4lb+nsaHtPub1lNcs21Iam3kZaDLg47jxFUIEz9sz8OV6PZRtqgxFwvUNSszUkzqzLsg01wQh4kUPg9sVYtsEfmupCf71i23arQ0ujAvR2ZjriOh1Pg2hZVSNRKhBEohhK9+0kjxQzzZGFyRUntubMHDlYjIADIJlMhvb+6c/vZSnWMJB0gSihGDH2qGVFqm4YWQ2S8Q9g/q/0Br8YLIHpmdl8NJbYQoRHD1HoPr8yLhi8YwRcQwrxjK2rp2dm1wKi6uF1fED3/xEGkGRGMsTOTT2xxMNC8Ne9BWY3+IERcA2w7eFOh+RX4WAtGrfNQwSsZkmre2KJjRRy/97sI1cfs4hVRZLJZKgnlrjWJfkcAVeg/sRblTCzBKyGY030xBLXBl3BRscIuErY9nDnCzOzTxQTXLdWWt5CMPAXFXw8WsFndYQJuC3aP/TzeDzeXsX3NDVGwFWgd2DwDJfkNgbOqva7BOjE8j9dyWc9wnx+3rGe7u5PVPPLomkxAvaZbjtxVjHKhy5qpE9wJXdia3WfNioYTxRiXRn8pN7mZIuawsV6/BzlDZlnQDQCyYXrfoI6wRyH5ouAiP5vuf4KQkayJkk2kAcoA+bXw7USoijcOS4lBGwnQTzRbScuqDQcr+F1jIB9omvg9JUsnYdQmnh3MWg9Ez+4UGiYntjgPQT6TwsVIJlluT5L5rz6Pgvfn59b9vH58iZHIslwS9vcecVg8UmPr2wVhJ909yeaOo6Vn5ghtA8kk8nQEun8GN6HzbuYaHVnR1vvZGbka6p/ZgL+PcCq5RZKej41lcpPjo9symXSZwN0NgCvAdU7BeNn3d2JxbAPXvcYAfvAnpnZqz0uWDkAr+vsaOudHB/Z1CjHEHOZkVRnR9sqMG7x+JEusRQ/CNrvRsAIuEJse7gTmqz2ReaEkOfnMqNfaRThHkkqlXJy2fSXCPwheFscuzDaP3Rl0H4vdoyAK8SFvJaAdo3ZnGRc0AyB5CYyow9IxgXwIGJmvsUMpSvDCLgCIpFkmAlXacwcgC5qppXXndn0Zi8iJqCdWuj6oP1dzJhVaI90DZy+UrhOxCI+7fCVPxKzXcza3ve2XGYkFbT/tWZnNr25p3/ocmJ1UnVivqo3NpRhZqdwTVH+QbjWlIme6Q0jYAV9fYNdrhCXEXgtpNNVuN1Hr+28sP6q3+78XNuNQdcjKCbHRzZFY4lbAXxeYRZm8N2FNmWwJLgk0RNLjAG0wZLygWOTlRtexwyh5yEej7f3xBJ3SUHPEfgmAF3llEOE2xfahmkW8nNtNxYToZcEAXEC3yQFTUTtxA+Ki4WGYzACPoae/qGL8451+PZQJThCinuDrk/QFL/A1lVQRAiEtS7J54t5nQ1HYAR8BFE78TFi3gDAj5XRETOPK5B/ue0BVH7uOgzg1qid+EEymTRTvyJGwEWi/UNXFlN1+vLPwUQmKkWRqalUHoRHfSmMsPaFmdknjIgLGAGjkJ0AzLf5WaZF7sO18Z6qeKPIv7KJyR8BA2DgrOl9s3dVr96Lh6YXsG3brcXUIqXcrFHDmDr5xDc96UtRBOUKrGQ8U49lH4t7kDcxsN+v8kBYa+bERsCQInw1vEemmAZhAxjrATw87+oqY4osusiv45J8gB7DscmtXyd38OW2kXos+1h27kzPEOiSBd6XA2M9AxsBlLJucFOzr043dW6kSCQZDrfOPg/9LaLdBP78io5lDx4rzO7+RNRiOpMhV4JpykL+Qb8TT/cNrDpHSnE/jlxcY0xZEJdks1vH6rXs+ejuTnSIFroULDuZsIss+dSRwe8KeY5nz2PgFnhJWM5Yn8umP+63n4uFphZwrz14NRPdrjHLWSzODnpFubs70UEtfB4xusAiY+HVx/z6oqhm2eWSTCZDe2Zm7/CwnecIyb3NetijqQUc7R/6OZjPX+g5A/sp5K4y4VGDoyeWuEsnYgbdMJkZ+VrQvgZB086BI5FkGMxJjdk6I95gOaWj7VPQBgvgNUH7GRRNK+Djl/35TKhXnucOzLXdGbSfzU4qlXII+KLKhoB4sy5mNa2ApStWakxSzX6OuV5Y0dH2GDSr09JyI0H7GQRNK2AmUgqYCGNB+2gokEqlHAaUJ9vYFacF7WcQNK2ACVJ5FK9wP9VQR8yoHhJp72U3JE0rYMPiQi9QGei2V1A0r4CZptQGZLII1AnJZDIEVkf9dJn+ELSfQdC0AiZSD8kAJE1SrvrghZmXLoXmtJy0QlNB+xkETStgwfknAajmua35Q9YXgvaz2bHt4U4G3aox27Vr+zO7g/Y1CJpWwNlsdo40K5sgfDFqD10atK/NSjQej7gknwCg2zG4P2hfg6JpBQwAIOjv7BJviNqJm81wunZEIslwTyxxLTvWNni4KSakeDBon4Oiqc9Cx+Px9lcd63kPgdmBQkiYFMC+XbEzHA0RhZgRRyFZmqckcQxsnMykLwna96BoagEDQNRO3AxSH9Uz1C2OJPQ3c6bD5h5CA5CH8E0ATbkA0gDc1sziBYyAsXNnekYIuRbqFWlDvUH0aGdH25eCdiNorKAdqAf2vTD9/PIVpy4F8FdB+2LwRM7i/Pu2bt3a9JdNjICLzOzd80THyacAoGTQvhhU8C/CIXne+Pj4S0F7Ug8YAR/BzN49Ty5ffsoMiP4aJm9U/cF8e+fyZR/dsmXLK0G7Ui80/Sr0fPT1DXZJgTsAOjdoXwwAgBRDXjeZ2Wa28I7BCFhB38Cqc6QrLgdhDTzuSxp8Y4aBjQS6rxnTs3rFCNgDkUgyvPSE2SES/FYBWsnM/gWBNxwBzRF4NwR+t+LEZSN+xdY2GAwGg8FgMBgMBoPBYDAYDAaDwWAwGAwGg8FgMBgMBoPBYDA0JP8fsF7DwBb2NwwAAAAldEVYdGRhdGU6Y3JlYXRlADIwMjAtMTItMTVUMjM6MzA6MDMrMDA6MDAUHpnvAAAAJXRFWHRkYXRlOm1vZGlmeQAyMDIwLTEyLTE1VDIzOjMwOjAzKzAwOjAwZUMhUwAAAABJRU5ErkJggg==;strokeWidth=102;spacingTop=-3;spacingBottom=-3;spacingLeft=-3;spacingRight=-3;points=[[0,0.5,0],[1,0.5,0],[0.5,1,0],[0.5,0,0]];labelBackgroundColor=none;rounded=0;html=1;whiteSpace=wrap;" parent="115" vertex="1">
          <mxGeometry width="31" height="31" as="geometry" />
        </mxCell>
        <UserObject label="" tags="Background" id="117">
          <mxCell style="vsdxID=104;fillColor=none;gradientColor=none;fillOpacity=0;strokeOpacity=0;spacingTop=-3;spacingBottom=-3;spacingLeft=-3;spacingRight=-3;points=[[0,0.5,0],[1,0.5,0],[0.5,1,0],[0.5,0,0]];labelBackgroundColor=none;rounded=1;strokeColor=none;html=1;whiteSpace=wrap;" parent="1" vertex="1">
            <mxGeometry x="368" y="25" width="362" height="67" as="geometry" />
          </mxCell>
        </UserObject>
        <mxCell id="118" style="vsdxID=105;fillColor=#ffffff;gradientColor=none;fillOpacity=0;strokeOpacity=0;shape=stencil(vZRNkoMgEIVPw1KKnxhlnUkukBNQI1FqGLGQJGZOH0yrJdYwu8kO+j26+RpbxA99IzuFGOm9s1/qrivfIP6BGNNto5z2YYX4EfHDxTpVO3ttK9h3MjgZeUVUBWfo6GZEus+z/lEQI5jTIgcBTn7b21hxmHSQHrArcA7eE3hDqrHI5KWYl2B3i3835V4suyjhlH7I5KD7zFkvvbZtpBnpapWFStnFyDqS+rtS3SpM13czul1xiBLn4pfSCZCcxSAlnrs3W0iiM+9gEVjELILNjU49DN8+DI0fJvRnH6VcAP+fZ/tRzKVTLHTLQoqIhSR68waUv8clLF5zCROrjYGxXuvbOQ4h+Afw4xM=);spacingTop=-3;spacingBottom=-3;spacingLeft=-3;spacingRight=-3;points=[[0,0.5,0],[1,0.5,0],[0.5,1,0],[0.5,0,0]];labelBackgroundColor=none;rounded=1;html=1;whiteSpace=wrap;" parent="117" vertex="1">
          <mxGeometry width="362" height="67" as="geometry" />
        </mxCell>
        <mxCell id="119" value="&lt;div style=&quot;font-size: 1px&quot;&gt;&lt;p style=&quot;text-align:center;margin-left:0;margin-right:0;margin-top:0px;margin-bottom:0px;text-indent:0;vertical-align:middle;direction:ltr;&quot;&gt;&lt;font style=&quot;font-size:16.93px;font-family:Arial;color:#333333;direction:ltr;letter-spacing:0px;line-height:100%;opacity:1&quot;&gt;&lt;b&gt;Project  Execution Timeline&lt;/b&gt;&lt;/font&gt;&lt;/p&gt;&lt;/div&gt;" style="text;vsdxID=104;fillColor=none;gradientColor=none;fillOpacity=0;strokeOpacity=0;spacingTop=-3;spacingBottom=-3;spacingLeft=-3;spacingRight=-3;points=[[0,0.5,0],[1,0.5,0],[0.5,1,0],[0.5,0,0]];labelBackgroundColor=none;rounded=1;strokeColor=none;html=1;whiteSpace=wrap;verticalAlign=middle;align=center;overflow=width;;html=1;" parent="117" vertex="1">
          <mxGeometry x="3.18" y="2.86" width="356.24" height="60.96" as="geometry" />
        </mxCell>
      </root>
    </mxGraphModel>
  </diagram>
</mxfile>
